<svg width="1440" height="200" viewBox="0 0 1440 200" fill="none" xmlns="http://www.w3.org/2000/svg">
<rect width="1440" height="200" fill="#FFF2D1"/>
<g clip-path="url(#clip0_1042_7528)">
<g clip-path="url(#clip1_1042_7528)">
<path d="M428.409 19.532C466.283 2.50222 500.989 -24.1721 521.076 -37.3541C524.459 -37.9375 521.62 -45.7143 507.241 -53.4113C408.648 31.3574 221.036 66.927 171.933 73.0066C-7.80649 95.2612 -86.8852 51.742 -148.827 21.8966C-156.951 24.0543 -162.676 30.6207 -153.646 39.7697C-144.615 48.9188 -88.3253 70.6776 -67.9574 77.0408L-57.9514 145.895L-15.5351 89.8011L8.09697 93.2921L29.1041 159.304L61.7414 99.9777L87.8692 99.7044L115.687 160.924L143.407 97.764L163.826 95.2359L199.062 152.575L215.846 88.7951L237.723 86.0864L277.278 138.448L287.807 71.9874L311.087 64.6624L355.444 115.936L359.106 49.8319L383.543 39.8955L431.794 86.7381C431.189 67.233 430.295 28.3811 428.409 19.532Z" fill="white"/>
<path d="M557.602 -71C438.573 18.516 295.854 74.5964 147.193 86.6632C95.09 90.8877 43.0419 90.0645 -8.3748 81.3698C-56.3516 73.2698 -100.735 59.7925 -178.778 20.175" stroke="#252323" stroke-width="2" stroke-miterlimit="10"/>
<path d="M351.268 103.322L311.648 50.4159L352.598 37.7769L351.268 103.322Z" fill="#F11602"/>
<mask id="mask0_1042_7528" style="mask-type:luminance" maskUnits="userSpaceOnUse" x="312" y="37" width="41" height="68">
<path d="M352.609 104.438L312.362 49.1075L347.613 37.7769L352.609 104.438Z" fill="white"/>
</mask>
<g mask="url(#mask0_1042_7528)">
<path d="M337.536 98.9226C346.027 81.2575 361.919 70.3396 380.42 69.431" stroke="white" stroke-width="0.75" stroke-miterlimit="10"/>
<path d="M328.208 90.1814C336.699 72.5163 352.591 61.5984 371.092 60.6898" stroke="white" stroke-width="0.75" stroke-miterlimit="10"/>
<path d="M317.086 82.6826C325.578 65.0175 341.47 54.0996 359.971 53.1911" stroke="white" stroke-width="0.75" stroke-miterlimit="10"/>
<path d="M308.139 74.2651C316.631 56.6 332.523 45.6821 351.024 44.7736" stroke="white" stroke-width="0.75" stroke-miterlimit="10"/>
</g>
<path d="M197.658 139.345L166.161 80.6919L209.295 75.9077L197.658 139.345Z" fill="#36AB67"/>
<mask id="mask1_1042_7528" style="mask-type:luminance" maskUnits="userSpaceOnUse" x="166" y="75" width="39" height="66">
<path d="M200.131 140.118L166.27 79.204L204.262 75.9077L200.131 140.118Z" fill="white"/>
</mask>
<g mask="url(#mask1_1042_7528)">
<path d="M182.634 132.601C194.531 116.267 213.2 108.765 232.987 112.409" stroke="white" stroke-width="0.75" stroke-miterlimit="10"/>
<path d="M174.916 122.393C186.813 106.058 205.482 98.5561 225.268 102.2" stroke="white" stroke-width="0.75" stroke-miterlimit="10"/>
<path d="M165.214 113.141C177.111 96.8064 195.781 89.3044 215.567 92.9486" stroke="white" stroke-width="0.75" stroke-miterlimit="10"/>
<path d="M157.789 103.298C169.686 86.9636 188.355 79.4616 208.141 83.1058" stroke="white" stroke-width="0.75" stroke-miterlimit="10"/>
</g>
<path d="M31.2993 144.303L12.5753 80.7891L56.4219 87.0323L31.2993 144.303Z" fill="#FEBC1B"/>
<mask id="mask2_1042_7528" style="mask-type:luminance" maskUnits="userSpaceOnUse" x="12" y="79" width="41" height="66">
<path d="M35.2508 144.616L12.575 79.267L52.1921 87.2603L35.2508 144.616Z" fill="white"/>
</mask>
<g mask="url(#mask2_1042_7528)">
<path d="M15.557 134.646C31.8229 119.011 53.1188 118.27 73.0289 132.57" stroke="white" stroke-width="0.75" stroke-miterlimit="10"/>
<path d="M10.3988 122.914C26.6647 107.28 47.9606 106.538 67.8707 120.838" stroke="white" stroke-width="0.75" stroke-miterlimit="10"/>
<path d="M3.10782 111.663C19.3737 96.0286 40.6696 95.2875 60.5797 109.587" stroke="white" stroke-width="0.75" stroke-miterlimit="10"/>
<path d="M-1.86874 100.404C14.3971 84.7693 35.6931 84.0282 55.6031 98.3282" stroke="white" stroke-width="0.75" stroke-miterlimit="10"/>
</g>
<path d="M274.281 125.35L238.913 69.1713L281.189 60.7236L274.281 125.35Z" fill="#1A66EA"/>
<mask id="mask3_1042_7528" style="mask-type:luminance" maskUnits="userSpaceOnUse" x="239" y="60" width="38" height="67">
<path d="M276.244 126.283L239.313 67.7636L276.158 60.7236L276.244 126.283Z" fill="white"/>
</mask>
<g mask="url(#mask3_1042_7528)">
<path d="M258.77 76.6152C259.125 74.8159 258.092 72.7762 256.432 72.0267C254.773 71.2773 253.159 72.1041 252.804 73.9034C252.45 75.7026 253.483 77.7424 255.142 78.4918C256.768 79.2106 258.409 78.382 258.77 76.6152Z" fill="white"/>
</g>
<mask id="mask4_1042_7528" style="mask-type:luminance" maskUnits="userSpaceOnUse" x="239" y="60" width="38" height="67">
<path d="M276.244 126.283L239.313 67.7636L276.158 60.7236L276.244 126.283Z" fill="white"/>
</mask>
<g mask="url(#mask4_1042_7528)">
<path d="M273.543 109.638C273.898 107.839 272.865 105.8 271.206 105.051C269.547 104.301 267.933 105.128 267.579 106.927C267.224 108.726 268.257 110.765 269.916 111.515C271.548 112.266 273.189 111.437 273.543 109.638Z" fill="white"/>
</g>
<mask id="mask5_1042_7528" style="mask-type:luminance" maskUnits="userSpaceOnUse" x="239" y="60" width="38" height="67">
<path d="M276.244 126.283L239.313 67.7636L276.158 60.7236L276.244 126.283Z" fill="white"/>
</mask>
<g mask="url(#mask5_1042_7528)">
<path d="M276.752 71.945C277.107 70.146 276.074 68.1066 274.415 67.3572C272.756 66.6078 271.142 67.4345 270.788 69.2335C270.433 71.0325 271.466 73.0719 273.125 73.8213C274.757 74.5724 276.398 73.744 276.752 71.945Z" fill="white"/>
</g>
<mask id="mask6_1042_7528" style="mask-type:luminance" maskUnits="userSpaceOnUse" x="239" y="60" width="38" height="67">
<path d="M276.244 126.283L239.313 67.7636L276.158 60.7236L276.244 126.283Z" fill="white"/>
</mask>
<g mask="url(#mask6_1042_7528)">
<path d="M275.78 90.2805C276.134 88.4815 275.102 86.4421 273.442 85.6927C271.783 84.9433 270.17 85.7699 269.815 87.5689C269.461 89.3679 270.493 91.4073 272.153 92.1567C273.784 92.9079 275.425 92.0794 275.78 90.2805Z" fill="white"/>
</g>
<mask id="mask7_1042_7528" style="mask-type:luminance" maskUnits="userSpaceOnUse" x="239" y="60" width="38" height="67">
<path d="M276.244 126.283L239.313 67.7636L276.158 60.7236L276.244 126.283Z" fill="white"/>
</mask>
<g mask="url(#mask7_1042_7528)">
<path d="M261.52 116.539C261.874 114.74 260.842 112.701 259.183 111.951C257.524 111.202 255.91 112.029 255.555 113.828C255.201 115.627 256.234 117.666 257.893 118.416C259.552 119.165 261.166 118.338 261.52 116.539Z" fill="white"/>
</g>
<mask id="mask8_1042_7528" style="mask-type:luminance" maskUnits="userSpaceOnUse" x="239" y="60" width="38" height="67">
<path d="M276.244 126.283L239.313 67.7636L276.158 60.7236L276.244 126.283Z" fill="white"/>
</mask>
<g mask="url(#mask8_1042_7528)">
<path d="M259.801 97.9186C260.156 96.1196 259.123 94.0801 257.464 93.3306C255.805 92.5812 254.191 93.4079 253.836 95.207C253.482 97.0061 254.515 99.0456 256.174 99.795C257.833 100.544 259.44 99.6852 259.801 97.9186Z" fill="white"/>
</g>
<path d="M425.65 74.4002L382.077 25.3055L421.361 8.51099L425.65 74.4002Z" fill="#FEBC1B"/>
<mask id="mask9_1042_7528" style="mask-type:luminance" maskUnits="userSpaceOnUse" x="383" y="8" width="44" height="68">
<path d="M426.346 75.6976L383.085 24.1048L416.473 8.51099L426.346 75.6976Z" fill="white"/>
</mask>
<g mask="url(#mask9_1042_7528)">
<path d="M402.136 28.5857C402.197 26.7073 400.861 24.8196 399.186 24.4006C397.511 23.9816 396.087 25.1909 396.027 27.0693C395.966 28.9477 397.302 30.8354 398.977 31.2544C400.686 31.7041 402.11 30.4948 402.136 28.5857Z" fill="white"/>
</g>
<mask id="mask10_1042_7528" style="mask-type:luminance" maskUnits="userSpaceOnUse" x="383" y="8" width="44" height="68">
<path d="M426.346 75.6976L383.085 24.1048L416.473 8.51099L426.346 75.6976Z" fill="white"/>
</mask>
<g mask="url(#mask10_1042_7528)">
<path d="M422.689 58.3894C422.749 56.5108 421.414 54.6229 419.738 54.2039C418.063 53.7849 416.639 54.9943 416.579 56.8729C416.518 58.7515 417.854 60.6394 419.53 61.0584C421.232 61.4757 422.629 60.268 422.689 58.3894Z" fill="white"/>
</g>
<mask id="mask11_1042_7528" style="mask-type:luminance" maskUnits="userSpaceOnUse" x="383" y="8" width="44" height="68">
<path d="M426.346 75.6976L383.085 24.1048L416.473 8.51099L426.346 75.6976Z" fill="white"/>
</mask>
<g mask="url(#mask11_1042_7528)">
<path d="M418.986 20.7475C419.046 18.8689 417.71 16.981 416.035 16.562C414.36 16.143 412.936 17.3525 412.875 19.2311C412.815 21.1097 414.151 22.9976 415.826 23.4166C417.529 23.8338 418.926 22.6261 418.986 20.7475Z" fill="white"/>
</g>
<mask id="mask12_1042_7528" style="mask-type:luminance" maskUnits="userSpaceOnUse" x="383" y="8" width="44" height="68">
<path d="M426.346 75.6976L383.085 24.1048L416.473 8.51099L426.346 75.6976Z" fill="white"/>
</mask>
<g mask="url(#mask12_1042_7528)">
<path d="M421.363 38.9467C421.423 37.0681 420.087 35.1802 418.412 34.7612C416.737 34.3422 415.313 35.5516 415.252 37.4302C415.192 39.3088 416.528 41.1967 418.203 41.6157C419.906 42.0329 421.337 40.8559 421.363 38.9467Z" fill="white"/>
</g>
<mask id="mask13_1042_7528" style="mask-type:luminance" maskUnits="userSpaceOnUse" x="383" y="8" width="44" height="68">
<path d="M426.346 75.6976L383.085 24.1048L416.473 8.51099L426.346 75.6976Z" fill="white"/>
</mask>
<g mask="url(#mask13_1042_7528)">
<path d="M412.158 67.3632C412.218 65.4846 410.882 63.5967 409.207 63.1777C407.532 62.7587 406.108 63.9681 406.047 65.8467C405.987 67.7253 407.323 69.6132 408.998 70.0322C410.701 70.4494 412.105 69.2742 412.158 67.3632Z" fill="white"/>
</g>
<mask id="mask14_1042_7528" style="mask-type:luminance" maskUnits="userSpaceOnUse" x="383" y="8" width="44" height="68">
<path d="M426.346 75.6976L383.085 24.1048L416.473 8.51099L426.346 75.6976Z" fill="white"/>
</mask>
<g mask="url(#mask14_1042_7528)">
<path d="M407.054 49.3462C407.114 47.4678 405.779 45.5801 404.104 45.1611C402.429 44.7421 401.005 45.9514 400.945 47.8298C400.884 49.7082 402.22 51.5959 403.895 52.0149C405.604 52.4646 407.028 51.2553 407.054 49.3462Z" fill="white"/>
</g>
<path d="M116.543 146.61L90.9807 85.1873L134.763 85.691L116.543 146.61Z" fill="#F387AB"/>
<mask id="mask15_1042_7528" style="mask-type:luminance" maskUnits="userSpaceOnUse" x="90" y="83" width="41" height="65">
<path d="M119.736 147.168L90.9783 83.6617L130.045 85.787L119.736 147.168Z" fill="white"/>
</mask>
<g mask="url(#mask15_1042_7528)">
<path d="M109.765 96.51C110.435 94.8882 109.712 92.7303 108.151 91.6456C106.59 90.5608 104.814 91.0031 104.145 92.6248C103.475 94.2466 104.198 96.4045 105.759 97.4892C107.32 98.574 109.123 98.1299 109.765 96.51Z" fill="white"/>
</g>
<mask id="mask16_1042_7528" style="mask-type:luminance" maskUnits="userSpaceOnUse" x="90" y="83" width="41" height="65">
<path d="M119.736 147.168L90.9783 83.6617L130.045 85.787L119.736 147.168Z" fill="white"/>
</mask>
<g mask="url(#mask16_1042_7528)">
<path d="M118.053 131.76C118.722 130.138 117.999 127.98 116.438 126.895C114.878 125.811 113.101 126.253 112.432 127.875C111.762 129.496 112.485 131.654 114.046 132.739C115.607 133.824 117.383 133.381 118.053 131.76Z" fill="white"/>
</g>
<mask id="mask17_1042_7528" style="mask-type:luminance" maskUnits="userSpaceOnUse" x="90" y="83" width="41" height="65">
<path d="M119.736 147.168L90.9783 83.6617L130.045 85.787L119.736 147.168Z" fill="white"/>
</mask>
<g mask="url(#mask17_1042_7528)">
<path d="M128.309 95.3589C128.978 93.737 128.255 91.5788 126.694 90.494C125.133 89.4092 123.357 89.8516 122.687 91.4735C122.018 93.0954 122.74 95.2536 124.302 96.3384C125.856 97.3907 127.639 96.9809 128.309 95.3589Z" fill="white"/>
</g>
<mask id="mask18_1042_7528" style="mask-type:luminance" maskUnits="userSpaceOnUse" x="90" y="83" width="41" height="65">
<path d="M119.736 147.168L90.9783 83.6617L130.045 85.787L119.736 147.168Z" fill="white"/>
</mask>
<g mask="url(#mask18_1042_7528)">
<path d="M123.908 113.192C124.578 111.57 123.855 109.411 122.294 108.327C120.732 107.242 118.956 107.684 118.286 109.306C117.617 110.928 118.34 113.087 119.901 114.171C121.456 115.224 123.232 114.781 123.908 113.192Z" fill="white"/>
</g>
<mask id="mask19_1042_7528" style="mask-type:luminance" maskUnits="userSpaceOnUse" x="90" y="83" width="41" height="65">
<path d="M119.736 147.168L90.9783 83.6617L130.045 85.787L119.736 147.168Z" fill="white"/>
</mask>
<g mask="url(#mask19_1042_7528)">
<path d="M104.959 136.257C105.628 134.635 104.906 132.477 103.345 131.393C101.784 130.308 100.008 130.75 99.3382 132.372C98.6686 133.994 99.3914 136.152 100.952 137.236C102.513 138.321 104.289 137.879 104.959 136.257Z" fill="white"/>
</g>
<mask id="mask20_1042_7528" style="mask-type:luminance" maskUnits="userSpaceOnUse" x="90" y="83" width="41" height="65">
<path d="M119.736 147.168L90.9783 83.6617L130.045 85.787L119.736 147.168Z" fill="white"/>
</mask>
<g mask="url(#mask20_1042_7528)">
<path d="M106.791 117.629C107.46 116.008 106.738 113.85 105.177 112.765C103.616 111.68 101.84 112.122 101.17 113.744C100.501 115.366 101.223 117.524 102.784 118.609C104.345 119.693 106.121 119.251 106.791 117.629Z" fill="white"/>
</g>
<path d="M248.748 146.997C249.618 146.669 250.481 146.93 250.919 147.378C251.138 147.603 251.267 147.893 251.199 148.188C251.131 148.484 250.876 148.73 250.452 148.893H250.45C245.341 150.781 240.511 153.247 237.668 156.226C236.248 157.714 235.333 159.32 235.115 161.039C234.898 162.754 235.373 164.602 236.776 166.582L236.984 166.865C237.49 167.534 238.079 168.166 238.742 168.758C239.415 167.937 240.25 167.15 241.253 166.411H241.254L241.796 166.031C247.521 162.173 257.045 160.497 265.087 161.603H265.086C268.018 162.004 270.817 163.098 272.646 164.615C273.562 165.373 274.242 166.244 274.567 167.193C274.874 168.086 274.863 169.04 274.452 170.019L274.364 170.215C273.413 172.242 270.964 173.722 268.068 174.743C265.344 175.703 262.188 176.27 259.411 176.498L258.861 176.539C252.151 177.006 245.306 175.632 240.154 172.877C240.078 173.218 240.026 173.56 240.005 173.903C239.862 176.2 240.936 178.579 243.081 180.698L243.485 181.079C245.556 182.948 248.328 184.278 251.462 185.203C254.804 186.189 258.547 186.711 262.27 186.938L262.446 186.955C263.306 187.065 263.819 187.575 263.84 188.121C263.851 188.412 263.716 188.689 263.445 188.878C263.178 189.066 262.787 189.162 262.285 189.126V189.125C257.608 188.84 253.004 188.146 248.988 186.818C245.098 185.531 241.75 183.647 239.424 180.958L239.202 180.696C237.265 178.35 236.384 175.8 236.692 173.317C236.786 172.56 236.991 171.813 237.307 171.082C233.159 167.989 231.01 163.832 231.998 159.713L232.072 159.424C232.879 156.458 235.069 154.09 237.991 152.115C241.008 150.075 244.821 148.442 248.748 146.996V146.997ZM264.407 163.766C257.723 162.865 249.718 164.161 244.771 167.2L244.302 167.499C242.901 168.43 241.861 169.46 241.154 170.543C242.981 171.673 245.119 172.584 247.442 173.24C251.771 174.461 256.726 174.796 261.465 174.04L262.41 173.874C263.597 173.635 264.949 173.33 266.215 172.925C267.483 172.52 268.654 172.019 269.486 171.397H269.487L269.678 171.25C270.602 170.518 271.101 169.759 271.263 169.028C271.435 168.251 271.233 167.48 270.716 166.768C269.741 165.425 267.653 164.31 264.955 163.85L264.407 163.766Z" fill="#F77367" stroke="#F77367" stroke-width="0.3"/>
<path d="M10.6084 146.97C9.88498 146.702 9.16639 146.915 8.79883 147.286C8.61477 147.471 8.50239 147.717 8.56152 147.969C8.62098 148.222 8.83961 148.426 9.19141 148.559L9.19336 148.56C13.3894 150.088 17.3515 152.083 19.6826 154.49C20.8463 155.691 21.5947 156.986 21.7725 158.369C21.9498 159.748 21.5627 161.237 20.4131 162.834L20.2432 163.063C19.8343 163.597 19.3569 164.101 18.8213 164.574C18.2703 163.915 17.5891 163.283 16.7725 162.69H16.7715L16.3252 162.381C11.6157 159.254 3.78653 157.897 -2.82324 158.792L-3.27441 158.86C-5.52008 159.23 -7.63356 160.082 -9.04688 161.237C-9.80114 161.853 -10.363 162.562 -10.6328 163.336C-10.8871 164.067 -10.8785 164.847 -10.5381 165.646L-10.4658 165.806C-9.67948 167.458 -7.65698 168.659 -5.27734 169.486C-2.88781 170.316 -0.0953064 170.782 2.29199 170.939L2.29102 170.94C7.79369 171.317 13.4086 170.212 17.6416 167.99C17.6996 168.252 17.7391 168.515 17.7559 168.78C17.8726 170.628 16.996 172.546 15.2373 174.258L14.9062 174.566C13.2097 176.075 10.9365 177.15 8.36426 177.898C5.62166 178.695 2.54848 179.118 -0.507812 179.302L-0.654297 179.316C-1.3674 179.406 -1.80548 179.824 -1.82324 180.287C-1.8326 180.534 -1.71535 180.767 -1.48633 180.925C-1.26043 181.081 -0.933678 181.161 -0.517578 181.131V181.13C3.32567 180.9 7.10974 180.337 10.4111 179.26C13.5057 178.251 16.1854 176.789 18.0908 174.718L18.4619 174.296C20.057 172.393 20.7847 170.321 20.5303 168.3C20.4537 167.692 20.2875 167.092 20.0322 166.504C23.4317 163.999 25.2003 160.628 24.3857 157.284C23.775 154.763 21.9311 152.768 19.4512 151.116C16.9705 149.463 13.8345 148.14 10.6084 146.969V146.97ZM-2.25879 160.601C3.22802 159.872 9.79724 160.92 13.8545 163.376L14.2383 163.619C15.3753 164.364 16.2208 165.187 16.7988 166.051C15.3071 166.957 13.5619 167.686 11.666 168.213C7.87742 169.267 3.50362 169.505 -0.615234 168.727L-1.36914 168.572C-2.14129 168.405 -2.96016 168.205 -3.73926 167.959C-4.78046 167.632 -5.73971 167.227 -6.41992 166.726L-6.72266 166.49C-7.38476 165.937 -7.74478 165.369 -7.86719 164.825C-8.00615 164.206 -7.84435 163.591 -7.42383 163.02C-6.62869 161.941 -4.92135 161.04 -2.70801 160.668L-2.25879 160.601Z" fill="#F387AB" stroke="#F387AB" stroke-width="0.3"/>
<g clip-path="url(#clip2_1042_7528)">
<path d="M82.7523 -8.78819C85.1325 -8.94721 87.7697 -8.5106 89.9373 -7.39751C92.0346 -6.32039 93.685 -4.61346 94.2541 -2.19806L94.3063 -1.96182L94.3063 -1.96085C94.7634 0.218405 94.0536 2.35096 93.0097 4.29144L92.7975 4.67658C92.2658 5.6013 91.5011 6.59279 90.7265 7.63238C89.9554 8.66721 89.1764 9.74677 88.6315 10.8314C88.0868 11.9157 87.7674 13.0224 87.9371 14.109C88.097 15.1328 88.6869 16.1149 89.8768 17.0294L90.1232 17.2106L90.1232 17.2116C92.6114 18.9806 94.9292 20.6884 96.5608 22.7911C98.085 24.7555 99.011 27.0661 98.9027 30.0985L98.8677 30.7148L98.8677 30.7158C98.4713 35.9294 94.7007 40.0179 89.804 41.6848L89.3267 41.839C89.1294 41.8964 88.971 41.8622 88.852 41.7842C88.7293 41.7036 88.6384 41.5691 88.5955 41.4145C88.5526 41.2599 88.5612 41.0952 88.6249 40.9584C88.6716 40.8583 88.7496 40.7674 88.8696 40.7041L89.0033 40.6511L89.0043 40.6501C95.9834 38.5458 99.7882 31.0906 96.4056 24.5267L96.2391 24.2145C95.0912 22.1355 92.96 20.8376 90.9584 19.5431C89.0659 18.3192 87.2882 17.0991 86.4244 15.2357L86.2646 14.8541C85.618 13.1403 86.3523 11.3768 87.5113 9.67222C88.0885 8.82334 88.7631 8.00004 89.4074 7.21673C89.9689 6.53401 90.5091 5.8788 90.9342 5.26873L91.1096 5.01061C92.1743 3.3821 92.9764 1.56546 93.0838 -0.223341C93.1848 -1.90826 92.6685 -3.56046 91.1955 -4.99346L90.8883 -5.2771L90.8874 -5.2771C88.7586 -7.11399 86.0069 -7.70038 83.2797 -7.60357L82.7349 -7.57527L82.7339 -7.57526C82.5281 -7.5605 82.3876 -7.62699 82.2971 -7.72391C82.2036 -7.82431 82.1521 -7.97026 82.1519 -8.12795C82.1514 -8.4444 82.3535 -8.75844 82.7532 -8.78721L82.7523 -8.78819Z" fill="#F77367" stroke="#F77367" stroke-width="0.3"/>
</g>
<circle cx="256" cy="26" r="8" stroke="#86CDA4" stroke-width="2"/>
<path d="M413.739 95.863C411.302 95.7818 408.66 96.2687 406.457 97.405C404.105 98.6182 402.244 100.578 401.681 103.382L401.635 103.623C401.204 106.111 402.123 108.511 403.325 110.623V110.624C403.901 111.622 404.727 112.69 405.543 113.78C406.362 114.876 407.174 115.998 407.739 117.118C408.304 118.238 408.615 119.34 408.451 120.4C408.288 121.455 407.653 122.495 406.269 123.485L405.291 124.187C403.031 125.826 400.935 127.481 399.398 129.468C397.637 131.746 396.613 134.459 396.906 138.076C397.361 143.924 401.718 148.438 407.248 150.107H407.249C407.542 150.193 407.804 150.144 408.009 150.01C408.21 149.877 408.346 149.667 408.408 149.442C408.47 149.217 408.461 148.966 408.358 148.746C408.267 148.551 408.104 148.388 407.869 148.293L407.764 148.256C400.529 146.088 396.615 138.396 400.085 131.634L400.256 131.312C401.422 129.191 403.596 127.855 405.735 126.467C407.791 125.132 409.817 123.747 410.733 121.556L410.818 121.343C411.557 119.374 410.693 117.39 409.454 115.575C408.832 114.664 408.108 113.782 407.426 112.956C406.741 112.126 406.101 111.354 405.639 110.65L405.434 110.33C404.424 108.718 403.694 106.968 403.589 105.262C403.477 103.452 404.067 101.682 405.799 100.16L406.019 99.9763C408.16 98.2389 410.892 97.6659 413.637 97.7585L414.204 97.7869C414.507 97.808 414.749 97.7066 414.913 97.53C415.074 97.3569 415.15 97.1232 415.15 96.8923C415.15 96.431 414.843 95.9309 414.225 95.8875H414.224L413.739 95.863Z" fill="#4885EE" stroke="#4885EE" stroke-width="0.3"/>
<circle cx="342.5" cy="182.5" r="5.5" stroke="#86CDA4" stroke-width="2"/>
</g>
<g clip-path="url(#clip3_1042_7528)">
<path d="M1502.86 88.4829C1543.74 81.2059 1583.91 63.8028 1606.6 55.9186C1610.03 56.178 1609.17 47.9438 1597.1 36.9718C1480.81 95.1309 1290.19 83.8633 1241.09 77.7821C1061.35 55.5219 995.273 -5.97196 942.482 -50.0249C934.077 -49.9141 926.923 -44.9424 933.449 -33.867C939.976 -22.7915 989.258 12.0405 1007.46 23.1797L1000.37 92.395L1055.18 48.3415L1077.25 57.4915L1081.52 126.633L1127.64 77.0602L1153.05 83.1683L1165.1 149.324L1207.38 94.8336L1227.8 97.3624L1247.99 161.564L1279.82 103.805L1301.7 106.514L1327.29 166.943L1353.71 105.058L1378.07 103.633L1408.58 164.177L1432 99.6985L1454.38 97.2876L1489.75 154.485C1493.92 135.421 1502.53 97.5246 1502.86 88.4829Z" fill="white"/>
<path d="M1650.23 32.1985C1512.96 89.9767 1360.88 109.551 1213.76 84.9914C1162.2 76.3793 1111.93 62.8852 1064.19 41.9115C1019.63 22.3535 979.877 -1.54288 913.856 -59.0001" stroke="#252323" stroke-width="2" stroke-miterlimit="10"/>
<path d="M1405.26 149.87L1383.63 91.7849L1427.55 86.3894L1405.26 149.87Z" fill="#F11602"/>
<mask id="mask21_1042_7528" style="mask-type:luminance" maskUnits="userSpaceOnUse" x="1387" y="85" width="41" height="65">
<path d="M1401.47 149.689L1387.95 92.3298L1427.8 85.6655L1401.47 149.689Z" fill="white"/>
</mask>
<g mask="url(#mask21_1042_7528)">
<path d="M1391.54 145.311C1408.52 130.08 1429.43 121.884 1447.97 123.167" stroke="white" stroke-width="0.75" stroke-miterlimit="10"/>
<path d="M1384.63 134.558C1401.61 119.328 1422.51 111.132 1441.05 112.415" stroke="white" stroke-width="0.75" stroke-miterlimit="10"/>
<path d="M1375.68 124.574C1392.65 109.343 1413.56 101.147 1432.1 102.43" stroke="white" stroke-width="0.75" stroke-miterlimit="10"/>
<path d="M1369.05 114.228C1386.03 98.997 1406.93 90.8012 1425.47 92.0843" stroke="white" stroke-width="0.75" stroke-miterlimit="10"/>
</g>
<path d="M1247.49 148.061L1235.66 85.7612L1279.2 88.3679L1247.49 148.061Z" fill="#36AB67"/>
<mask id="mask22_1042_7528" style="mask-type:luminance" maskUnits="userSpaceOnUse" x="1240" y="86" width="40" height="63">
<path d="M1244.85 148.151L1240.59 86.3049L1279.37 87.6274L1244.85 148.151Z" fill="white"/>
</mask>
<g mask="url(#mask22_1042_7528)">
<path d="M1234.5 140.651C1253.4 127.476 1275.03 122.87 1292.84 128.265" stroke="white" stroke-width="0.75" stroke-miterlimit="10"/>
<path d="M1229.51 128.868C1248.4 115.693 1270.04 111.087 1287.84 116.483" stroke="white" stroke-width="0.75" stroke-miterlimit="10"/>
<path d="M1222.36 117.53C1241.25 104.355 1262.89 99.749 1280.69 105.144" stroke="white" stroke-width="0.75" stroke-miterlimit="10"/>
<path d="M1217.55 106.173C1236.45 92.9981 1258.09 88.3923 1275.89 93.7875" stroke="white" stroke-width="0.75" stroke-miterlimit="10"/>
</g>
<path d="M1084.75 113.256L1086.87 48.3764L1127.57 61.82L1084.75 113.256Z" fill="#FEBC1B"/>
<mask id="mask23_1042_7528" style="mask-type:luminance" maskUnits="userSpaceOnUse" x="1083" y="48" width="45" height="66">
<path d="M1083.51 113.724L1091.94 48.8916L1127.01 61.1277L1083.51 113.724Z" fill="white"/>
</mask>
<g mask="url(#mask23_1042_7528)">
<path d="M1073.52 101.999C1094.27 91.676 1115.53 93.3371 1130.93 106.424" stroke="white" stroke-width="0.75" stroke-miterlimit="10"/>
<path d="M1071.38 89.3632C1092.13 79.0405 1113.39 80.7016 1128.79 93.7881" stroke="white" stroke-width="0.75" stroke-miterlimit="10"/>
<path d="M1067.06 76.6732C1087.8 66.3506 1109.06 68.0117 1124.46 81.0982" stroke="white" stroke-width="0.75" stroke-miterlimit="10"/>
<path d="M1064.98 64.5402C1085.72 54.2175 1106.98 55.8786 1122.39 68.9651" stroke="white" stroke-width="0.75" stroke-miterlimit="10"/>
</g>
<path d="M1325.21 152.842L1308.8 92.2937L1352.67 91.1953L1325.21 152.842Z" fill="#1A66EA"/>
<mask id="mask24_1042_7528" style="mask-type:luminance" maskUnits="userSpaceOnUse" x="1313" y="90" width="40" height="63">
<path d="M1322.03 152.806L1313.46 92.8401L1352.88 90.4597L1322.03 152.806Z" fill="white"/>
</mask>
<g mask="url(#mask24_1042_7528)">
<path d="M1324.21 102.127C1325.3 100.446 1325.14 98.3464 1323.83 97.4021C1322.52 96.4578 1320.6 97.0343 1319.51 98.7152C1318.41 100.396 1318.58 102.496 1319.89 103.44C1321.18 104.35 1323.12 103.776 1324.21 102.127Z" fill="white"/>
</g>
<mask id="mask25_1042_7528" style="mask-type:luminance" maskUnits="userSpaceOnUse" x="1313" y="90" width="40" height="63">
<path d="M1322.03 152.806L1313.46 92.8401L1352.88 90.4597L1322.03 152.806Z" fill="white"/>
</mask>
<g mask="url(#mask25_1042_7528)">
<path d="M1330.48 137.756C1331.58 136.075 1331.41 133.976 1330.1 133.032C1328.79 132.088 1326.87 132.664 1325.78 134.345C1324.69 136.026 1324.85 138.125 1326.16 139.069C1327.44 140.011 1329.39 139.437 1330.48 137.756Z" fill="white"/>
</g>
<mask id="mask26_1042_7528" style="mask-type:luminance" maskUnits="userSpaceOnUse" x="1313" y="90" width="40" height="63">
<path d="M1322.03 152.806L1313.46 92.8401L1352.88 90.4597L1322.03 152.806Z" fill="white"/>
</mask>
<g mask="url(#mask26_1042_7528)">
<path d="M1342.79 101.984C1343.88 100.303 1343.72 98.2039 1342.41 97.2597C1341.1 96.3155 1339.18 96.8919 1338.09 98.5727C1336.99 100.253 1337.16 102.352 1338.47 103.297C1339.75 104.239 1341.7 103.664 1342.79 101.984Z" fill="white"/>
</g>
<mask id="mask27_1042_7528" style="mask-type:luminance" maskUnits="userSpaceOnUse" x="1313" y="90" width="40" height="63">
<path d="M1322.03 152.806L1313.46 92.8401L1352.88 90.4597L1322.03 152.806Z" fill="white"/>
</mask>
<g mask="url(#mask27_1042_7528)">
<path d="M1337.38 119.528C1338.47 117.848 1338.31 115.749 1336.99 114.804C1335.68 113.86 1333.76 114.437 1332.67 116.117C1331.58 117.798 1331.74 119.897 1333.05 120.841C1334.33 121.783 1336.28 121.209 1337.38 119.528Z" fill="white"/>
</g>
<mask id="mask28_1042_7528" style="mask-type:luminance" maskUnits="userSpaceOnUse" x="1313" y="90" width="40" height="63">
<path d="M1322.03 152.806L1313.46 92.8401L1352.88 90.4597L1322.03 152.806Z" fill="white"/>
</mask>
<g mask="url(#mask28_1042_7528)">
<path d="M1317.14 141.516C1318.23 139.835 1318.07 137.736 1316.76 136.792C1315.45 135.848 1313.53 136.424 1312.44 138.105C1311.34 139.785 1311.51 141.884 1312.82 142.829C1314.13 143.773 1316.05 143.196 1317.14 141.516Z" fill="white"/>
</g>
<mask id="mask29_1042_7528" style="mask-type:luminance" maskUnits="userSpaceOnUse" x="1313" y="90" width="40" height="63">
<path d="M1322.03 152.806L1313.46 92.8401L1352.88 90.4597L1322.03 152.806Z" fill="white"/>
</mask>
<g mask="url(#mask29_1042_7528)">
<path d="M1320.02 123.038C1321.11 121.357 1320.95 119.258 1319.63 118.314C1318.32 117.37 1316.4 117.946 1315.31 119.627C1314.22 121.308 1314.38 123.407 1315.69 124.351C1317 125.295 1318.93 124.687 1320.02 123.038Z" fill="white"/>
</g>
<path d="M1166.96 135.787L1161.79 71.7919L1204.26 79.6466L1166.96 135.787Z" fill="#F387AB"/>
<mask id="mask30_1042_7528" style="mask-type:luminance" maskUnits="userSpaceOnUse" x="1164" y="72" width="41" height="65">
<path d="M1164.99 136.06L1166.85 72.3257L1204.12 78.9221L1164.99 136.06Z" fill="white"/>
</mask>
<g mask="url(#mask30_1042_7528)">
<path d="M1174.75 85.0886C1176.08 83.6207 1176.27 81.4496 1175.2 80.1966C1174.12 78.9436 1172.2 79.1287 1170.87 80.5966C1169.55 82.0644 1169.36 84.2356 1170.43 85.4886C1171.51 86.7416 1173.45 86.5585 1174.75 85.0886Z" fill="white"/>
</g>
<mask id="mask31_1042_7528" style="mask-type:luminance" maskUnits="userSpaceOnUse" x="1164" y="72" width="41" height="65">
<path d="M1164.99 136.06L1166.85 72.3257L1204.12 78.9221L1164.99 136.06Z" fill="white"/>
</mask>
<g mask="url(#mask31_1042_7528)">
<path d="M1174.19 121.295C1175.52 119.827 1175.71 117.656 1174.63 116.403C1173.56 115.15 1171.64 115.335 1170.31 116.803C1168.98 118.271 1168.79 120.442 1169.87 121.695C1170.95 122.948 1172.86 122.763 1174.19 121.295Z" fill="white"/>
</g>
<mask id="mask32_1042_7528" style="mask-type:luminance" maskUnits="userSpaceOnUse" x="1164" y="72" width="41" height="65">
<path d="M1164.99 136.06L1166.85 72.3257L1204.12 78.9221L1164.99 136.06Z" fill="white"/>
</mask>
<g mask="url(#mask32_1042_7528)">
<path d="M1193.02 88.4951C1194.35 87.0271 1194.53 84.8558 1193.46 83.6027C1192.38 82.3496 1190.46 82.5347 1189.14 84.0027C1187.81 85.4707 1187.62 87.642 1188.7 88.8951C1189.78 90.1161 1191.69 89.9631 1193.02 88.4951Z" fill="white"/>
</g>
<mask id="mask33_1042_7528" style="mask-type:luminance" maskUnits="userSpaceOnUse" x="1164" y="72" width="41" height="65">
<path d="M1164.99 136.06L1166.85 72.3257L1204.12 78.9221L1164.99 136.06Z" fill="white"/>
</mask>
<g mask="url(#mask33_1042_7528)">
<path d="M1184.4 104.716C1185.73 103.248 1185.92 101.076 1184.84 99.8229C1183.76 98.5697 1181.84 98.7549 1180.52 100.223C1179.19 101.691 1179 103.863 1180.08 105.116C1181.16 106.337 1183.08 106.152 1184.4 104.716Z" fill="white"/>
</g>
<mask id="mask34_1042_7528" style="mask-type:luminance" maskUnits="userSpaceOnUse" x="1164" y="72" width="41" height="65">
<path d="M1164.99 136.06L1166.85 72.3257L1204.12 78.9221L1164.99 136.06Z" fill="white"/>
</mask>
<g mask="url(#mask34_1042_7528)">
</g>
<mask id="mask35_1042_7528" style="mask-type:luminance" maskUnits="userSpaceOnUse" x="1164" y="72" width="41" height="65">
<path d="M1164.99 136.06L1166.85 72.3257L1204.12 78.9221L1164.99 136.06Z" fill="white"/>
</mask>
<g mask="url(#mask35_1042_7528)">
<path d="M1166.72 104.844C1168.04 103.377 1168.23 101.205 1167.16 99.9525C1166.08 98.6995 1164.16 98.8846 1162.84 100.352C1161.51 101.82 1161.32 103.991 1162.4 105.244C1163.47 106.497 1165.39 106.312 1166.72 104.844Z" fill="white"/>
</g>
<path d="M1007.11 79.4306L1018.25 14.7629L1055.91 34.8447L1007.11 79.4306Z" fill="#F11602"/>
<mask id="mask36_1042_7528" style="mask-type:luminance" maskUnits="userSpaceOnUse" x="1006" y="15" width="49" height="66">
<path d="M1006.82 80.124L1023.2 15.2424L1054.87 34.2039L1006.82 80.124Z" fill="white"/>
</mask>
<g mask="url(#mask36_1042_7528)">
<path d="M1027.07 31.9843C1028.62 30.9244 1029.34 28.7603 1028.67 27.1789C1028 25.5975 1026.19 25.1706 1024.64 26.2305C1023.09 27.2905 1022.37 29.4545 1023.04 31.036C1023.7 32.6495 1025.49 33.0743 1027.07 31.9843Z" fill="white"/>
</g>
<mask id="mask37_1042_7528" style="mask-type:luminance" maskUnits="userSpaceOnUse" x="1006" y="15" width="49" height="66">
<path d="M1006.82 80.124L1023.2 15.2424L1054.87 34.2039L1006.82 80.124Z" fill="white"/>
</mask>
<g mask="url(#mask37_1042_7528)">
<path d="M1016.81 66.7121C1018.36 65.652 1019.08 63.4876 1018.41 61.9059C1017.74 60.3242 1015.92 59.8973 1014.37 60.9574C1012.83 62.0175 1012.11 64.1819 1012.78 65.7636C1013.44 67.3453 1015.23 67.7702 1016.81 66.7121Z" fill="white"/>
</g>
<mask id="mask38_1042_7528" style="mask-type:luminance" maskUnits="userSpaceOnUse" x="1006" y="15" width="49" height="66">
<path d="M1006.82 80.124L1023.2 15.2424L1054.87 34.2039L1006.82 80.124Z" fill="white"/>
</mask>
<g mask="url(#mask38_1042_7528)">
<path d="M1043.72 40.1711C1045.27 39.111 1045.99 36.9466 1045.32 35.3649C1044.65 33.7832 1042.84 33.3563 1041.29 34.4164C1039.74 35.4765 1039.02 37.6409 1039.69 39.2226C1040.36 40.8042 1042.17 41.2312 1043.72 40.1711Z" fill="white"/>
</g>
<mask id="mask39_1042_7528" style="mask-type:luminance" maskUnits="userSpaceOnUse" x="1006" y="15" width="49" height="66">
<path d="M1006.82 80.124L1023.2 15.2424L1054.87 34.2039L1006.82 80.124Z" fill="white"/>
</mask>
<g mask="url(#mask39_1042_7528)">
<path d="M1031.08 53.4806C1032.63 52.4205 1033.35 50.2561 1032.68 48.6745C1032.01 47.0928 1030.19 46.6659 1028.64 47.726C1027.1 48.7861 1026.38 50.9505 1027.04 52.5321C1027.71 54.1138 1029.53 54.5407 1031.08 53.4806Z" fill="white"/>
</g>
<mask id="mask40_1042_7528" style="mask-type:luminance" maskUnits="userSpaceOnUse" x="1006" y="15" width="49" height="66">
<path d="M1006.82 80.124L1023.2 15.2424L1054.87 34.2039L1006.82 80.124Z" fill="white"/>
</mask>
<g mask="url(#mask40_1042_7528)">
<path d="M1014.01 48.8625C1015.56 47.8024 1016.28 45.638 1015.61 44.0563C1014.95 42.4746 1013.13 42.0477 1011.58 43.1078C1010.03 44.1679 1009.31 46.3323 1009.98 47.914C1010.65 49.4957 1012.44 49.9205 1014.01 48.8625Z" fill="white"/>
</g>
<path d="M784.261 125.864C786.699 125.78 789.341 126.284 791.545 127.463C793.898 128.722 795.757 130.753 796.319 133.657L796.365 133.907C796.795 136.484 795.877 138.969 794.676 141.159V141.16C794.1 142.195 793.274 143.302 792.458 144.434C791.639 145.57 790.827 146.733 790.262 147.896C789.696 149.058 789.385 150.203 789.549 151.306C789.712 152.403 790.35 153.483 791.733 154.509L792.711 155.237C794.971 156.936 797.068 158.653 798.604 160.713C800.254 162.927 801.256 165.536 801.133 168.941L801.094 169.633C800.639 175.692 796.286 180.373 790.754 182.105H790.752C790.457 182.194 790.194 182.144 789.988 182.004C789.787 181.866 789.652 181.65 789.591 181.419C789.529 181.188 789.539 180.93 789.641 180.704C789.744 180.475 789.94 180.286 790.234 180.197L790.576 180.086C797.589 177.697 801.333 169.859 797.914 162.949L797.743 162.615C796.576 160.414 794.401 159.029 792.263 157.589C790.206 156.204 788.182 154.769 787.267 152.5L787.182 152.277C786.445 150.241 787.305 148.188 788.544 146.305C789.166 145.36 789.891 144.447 790.573 143.59C791.258 142.73 791.897 141.929 792.359 141.198L792.565 140.865C793.575 139.193 794.306 137.377 794.411 135.606C794.523 133.725 793.931 131.887 792.198 130.308V130.307C789.882 128.227 786.822 127.639 783.796 127.847L783.797 127.848C783.491 127.87 783.249 127.764 783.085 127.581C782.925 127.402 782.85 127.162 782.85 126.925C782.85 126.454 783.153 125.934 783.775 125.889L784.261 125.864Z" fill="#F387AB" stroke="#F387AB" stroke-width="0.3"/>
<path d="M1038.02 153.861C1036.12 153.795 1034.06 154.192 1032.34 155.121C1030.5 156.114 1029.05 157.718 1028.61 160.01L1028.54 160.404C1028.28 162.368 1028.98 164.258 1029.89 165.926L1029.89 165.927C1030.34 166.742 1030.98 167.614 1031.62 168.502C1032.25 169.394 1032.88 170.306 1033.32 171.217C1033.76 172.127 1034 173.021 1033.87 173.879C1033.75 174.731 1033.26 175.572 1032.19 176.375L1031.43 176.946C1029.67 178.281 1028.03 179.633 1026.84 181.256C1025.55 183.001 1024.77 185.057 1024.86 187.74L1024.89 188.285C1025.25 193.06 1028.64 196.748 1032.96 198.113H1032.96C1033.2 198.186 1033.42 198.145 1033.58 198.029C1033.75 197.916 1033.86 197.738 1033.91 197.551C1034 197.202 1033.89 196.762 1033.47 196.585L1033.38 196.552C1027.78 194.792 1024.74 188.543 1027.43 183.045L1027.56 182.784C1028.47 181.063 1030.15 179.978 1031.82 178.845C1033.36 177.793 1034.89 176.698 1035.64 175.004L1035.78 174.657C1036.36 173.042 1035.68 171.417 1034.72 169.936C1034.23 169.193 1033.67 168.475 1033.14 167.802C1032.6 167.125 1032.11 166.497 1031.75 165.925L1031.44 165.4C1030.73 164.163 1030.23 162.838 1030.16 161.546C1030.07 160.076 1030.53 158.642 1031.87 157.408L1032.21 157.117C1033.84 155.819 1035.88 155.387 1037.94 155.46L1038.38 155.483C1038.63 155.501 1038.82 155.415 1038.96 155.263C1039.09 155.116 1039.15 154.918 1039.15 154.726C1039.15 154.346 1038.91 153.918 1038.4 153.881L1038.02 153.861Z" fill="#FEC949" stroke="#FEC949" stroke-width="0.3"/>
<path d="M1270.1 15.9675C1270.79 15.7062 1271.49 15.9138 1271.84 16.2751C1272.02 16.4562 1272.12 16.6952 1272.07 16.9412C1272.01 17.1881 1271.8 17.3872 1271.46 17.5173L1271.46 17.5183C1267.45 19.0009 1263.66 20.9362 1261.43 23.2712C1260.32 24.437 1259.6 25.6938 1259.43 27.0349C1259.26 28.373 1259.63 29.8172 1260.73 31.3669L1260.89 31.5886C1261.28 32.1044 1261.74 32.5921 1262.25 33.0496C1262.77 32.4117 1263.42 31.7996 1264.2 31.2253L1264.63 30.9265C1269.14 27.8897 1276.63 26.5723 1282.95 27.4421L1283.38 27.5076C1285.53 27.8668 1287.56 28.6948 1288.91 29.8162C1289.63 30.4147 1290.17 31.1025 1290.43 31.8552C1290.69 32.6118 1290.66 33.4239 1290.27 34.2546L1290.27 34.2537C1289.51 35.859 1287.58 37.0263 1285.3 37.8289C1283.3 38.5341 1281 38.9696 1278.93 39.1697L1278.06 39.241C1272.8 39.6071 1267.43 38.5351 1263.38 36.3806C1263.33 36.6325 1263.29 36.8855 1263.27 37.1394C1263.16 38.9325 1264 40.7933 1265.68 42.4539H1265.68C1267.33 44.0759 1269.63 45.211 1272.25 45.9851C1274.55 46.6622 1277.08 47.0616 1279.64 47.2703L1280.74 47.3484L1280.88 47.3611C1281.56 47.4493 1281.98 47.8579 1282 48.3083C1282.01 48.5485 1281.9 48.7766 1281.68 48.9314C1281.46 49.0839 1281.14 49.16 1280.75 49.1316V49.1306C1277.07 48.9065 1273.45 48.3611 1270.29 47.3162C1267.33 46.3367 1264.76 44.9164 1262.94 42.906L1262.59 42.4958C1261.06 40.6477 1260.36 38.6355 1260.61 36.6736C1260.68 36.0843 1260.84 35.5021 1261.08 34.9324C1257.83 32.4994 1256.14 29.2275 1256.92 25.9812L1257.04 25.5281C1257.73 23.2922 1259.42 21.496 1261.64 19.9919C1264.01 18.3873 1267.01 17.1033 1270.1 15.9666V15.9675ZM1282.41 29.2058C1277.16 28.4988 1270.88 29.5155 1267 31.8982L1266.63 32.1335C1265.55 32.8555 1264.74 33.6516 1264.19 34.489C1265.62 35.3667 1267.28 36.0745 1269.09 36.5857C1272.72 37.6079 1276.9 37.8392 1280.84 37.0837L1281.56 36.9333C1282.3 36.7719 1283.08 36.5775 1283.82 36.3396C1284.82 36.0216 1285.74 35.6292 1286.39 35.1433H1286.39L1286.68 34.9138C1287.31 34.3776 1287.65 33.8282 1287.77 33.3005C1287.9 32.7006 1287.75 32.104 1287.34 31.5505C1286.53 30.4351 1284.73 29.5161 1282.41 29.2058H1282.41Z" fill="#76A3F2" stroke="#76A3F2" stroke-width="0.3"/>
<circle cx="892" r="8" stroke="#86CDA4" stroke-width="2"/>
<circle cx="1193" cy="162" r="8" stroke="#86CDA4" stroke-width="2"/>
<circle cx="936.5" cy="148.5" r="5.5" stroke="#86CDA4" stroke-width="2"/>
</g>
</g>
<defs>
<clipPath id="clip0_1042_7528">
<rect width="1440" height="200" fill="white"/>
</clipPath>
<clipPath id="clip1_1042_7528">
<rect width="708" height="200" fill="white"/>
</clipPath>
<clipPath id="clip2_1042_7528">
<rect width="17" height="51" fill="white" transform="translate(82 -8.97021) rotate(-0.10079)"/>
</clipPath>
<clipPath id="clip3_1042_7528">
<rect width="708" height="200" fill="white" transform="translate(732)"/>
</clipPath>
</defs>
</svg>
