<svg width="1440" height="1089" viewBox="0 0 1440 1089" fill="none" xmlns="http://www.w3.org/2000/svg">
<rect width="1440" height="988" fill="#FEC949"/>
<g clip-path="url(#clip0_1032_7159)">
<path d="M180.596 93.7989L181.479 97.3141L183.989 94.7064C189.034 89.4796 196.336 90.6513 200.337 94.9936C202.733 97.6013 203.937 101.346 202.733 105.551L201.736 109.031L205.21 108.032C210.793 106.435 215.585 109.112 217.935 113.19C220.285 117.279 220.205 122.77 216.032 126.814L213.43 129.33L216.938 130.214C223.633 131.892 226.35 138.233 225.089 143.701C224.229 147.434 221.512 150.754 216.938 151.903L213.43 152.787L216.032 155.303C221.248 160.358 220.079 167.675 215.745 171.684C213.143 174.085 209.406 175.291 205.21 174.085L201.736 173.086L202.733 176.567C204.682 183.413 200.257 189.065 194.674 190.512C191.131 191.431 187.119 190.662 183.989 187.411L181.479 184.803L180.596 188.318C179.186 193.959 174.485 196.785 169.774 196.785C165.062 196.785 160.361 193.959 158.951 188.318L158.068 184.803L155.558 187.411C153.54 189.502 151.155 190.57 148.771 190.823C141.617 191.569 134.418 184.964 136.814 176.578L137.811 173.097L134.337 174.097C130.153 175.291 126.404 174.097 123.802 171.696C119.468 167.698 118.299 160.369 123.515 155.315L126.117 152.799L122.609 151.914C116.98 150.501 114.16 145.791 114.16 141.07C114.16 136.349 116.98 131.639 122.609 130.226L126.117 129.341L123.515 126.826C118.654 122.116 119.342 115.43 122.965 111.306C125.567 108.354 129.671 106.711 134.337 108.043L137.811 109.043L136.814 105.562C134.819 98.5662 139.485 92.8109 145.24 91.5243C148.691 90.7547 152.531 91.5818 155.558 94.7179L158.068 97.3256L158.951 93.8104C160.717 86.757 167.63 84.1149 173.247 85.8725C176.618 86.9178 179.53 89.56 180.596 93.7989Z" fill="#F44535"/>
<mask id="mask0_1032_7159" style="mask-type:luminance" maskUnits="userSpaceOnUse" x="114" y="85" width="112" height="112">
<path d="M180.596 93.7989L181.479 97.3141L183.989 94.7064C189.034 89.4796 196.336 90.6513 200.337 94.9936C202.733 97.6013 203.937 101.346 202.733 105.551L201.736 109.031L205.21 108.032C210.793 106.435 215.585 109.112 217.935 113.19C220.285 117.279 220.205 122.77 216.032 126.814L213.43 129.33L216.938 130.214C223.633 131.892 226.35 138.233 225.089 143.701C224.229 147.434 221.512 150.754 216.938 151.903L213.43 152.787L216.032 155.303C221.248 160.358 220.079 167.675 215.745 171.684C213.143 174.085 209.406 175.291 205.21 174.085L201.736 173.086L202.733 176.567C204.682 183.413 200.257 189.065 194.674 190.512C191.131 191.431 187.119 190.662 183.989 187.411L181.479 184.803L180.596 188.318C179.186 193.959 174.485 196.785 169.774 196.785C165.062 196.785 160.361 193.959 158.951 188.318L158.068 184.803L155.558 187.411C153.54 189.502 151.155 190.57 148.771 190.823C141.617 191.569 134.418 184.964 136.814 176.578L137.811 173.097L134.337 174.097C130.153 175.291 126.404 174.097 123.802 171.696C119.468 167.698 118.299 160.369 123.515 155.315L126.117 152.799L122.609 151.914C116.98 150.501 114.16 145.791 114.16 141.07C114.16 136.349 116.98 131.639 122.609 130.226L126.117 129.341L123.515 126.826C118.654 122.116 119.342 115.43 122.965 111.306C125.567 108.354 129.671 106.711 134.337 108.043L137.811 109.043L136.814 105.562C134.819 98.5662 139.485 92.8109 145.24 91.5243C148.691 90.7547 152.531 91.5818 155.558 94.7179L158.068 97.3256L158.951 93.8104C160.717 86.757 167.63 84.1149 173.247 85.8725C176.618 86.9178 179.53 89.56 180.596 93.7989Z" fill="white"/>
</mask>
<g mask="url(#mask0_1032_7159)">
<g opacity="0.5">
<path d="M233 85.39L225.777 92.6157L218.394 85.2292L211.057 92.5812L202.505 84L193.792 92.7305L185.159 84.0689L176.836 92.4089L168.49 84.0574L159.938 92.6386L151.741 84.425L143.372 92.8224L134.728 84.1608L126.233 92.6731L117.807 84.2412L109.392 92.6731L101 84.2527V87.1935L109.392 95.6024L117.807 87.1706L126.233 95.6139L134.728 87.1016L143.372 95.7518L151.741 87.3658L159.938 95.568L168.49 86.9868L176.836 95.3497L185.159 87.0097L193.792 95.6599L202.505 86.9408L211.057 95.5105L218.394 88.1585L225.777 95.5565L233 88.3193V85.39Z" fill="#C11202"/>
<path d="M233 95.051L225.777 102.277L218.394 94.8787L211.057 102.242L202.505 93.661L193.792 102.38L185.159 93.7299L176.836 102.07L168.49 93.7184L159.938 102.288L151.741 94.086L143.372 102.483L134.728 93.8218L126.233 102.334L117.807 93.8908L109.392 102.323L101 93.9137V96.8545L109.392 105.263L117.807 96.8316L126.233 105.275L134.728 96.7626L143.372 105.413L151.741 97.0269L159.938 105.229L168.49 96.6478L176.836 105.011L185.159 96.6707L193.792 105.321L202.505 96.5903L211.057 105.172L218.394 97.8195L225.777 105.217L233 97.9803V95.051Z" fill="#C11202"/>
<path d="M233 104.701L225.777 111.938L218.394 104.54L211.057 111.892L202.505 103.322L193.792 112.041L185.159 103.391L176.836 111.731L168.49 103.368L159.938 111.949L151.741 103.747L143.372 112.133L134.728 103.483L126.233 111.995L117.807 103.552L109.392 111.984L101 103.575V106.504L109.392 114.924L117.807 106.493L126.233 114.924L134.728 106.412L143.372 115.074L151.741 106.676L159.938 114.89L168.49 106.309L176.836 114.66L185.159 106.332L193.792 114.982L202.505 106.251L211.057 114.833L218.394 107.481L225.777 114.879L233 107.641V104.701Z" fill="#C11202"/>
<path d="M233 114.362L225.777 121.599L218.394 114.201L211.057 121.553L202.505 112.972L193.792 121.702L185.159 113.052L176.836 121.392L168.49 113.029L159.938 121.61L151.741 113.397L143.372 121.794L134.728 113.144L126.233 121.656L117.807 113.213L109.392 121.645L101 113.224V116.165L109.392 124.574L117.807 116.154L126.233 124.585L134.728 116.073L143.372 124.735L151.741 116.337L159.938 124.54L168.49 115.97L176.836 124.321L185.159 115.981L193.792 124.643L202.505 115.912L211.057 124.494L218.394 117.142L225.777 124.528L233 117.302V114.362Z" fill="#C11202"/>
<path d="M233 124.023L225.777 131.26L218.394 123.862L211.057 131.214L202.505 122.633L193.792 131.363L185.159 122.713L176.836 131.041L168.49 122.69L159.938 131.271L151.741 123.058L143.372 131.455L134.728 122.793L126.233 131.306L117.807 122.874L109.392 131.306L101 122.885V125.826L109.392 134.235L117.807 125.803L126.233 134.247L134.728 125.734L143.372 134.396L151.741 125.998L159.938 134.201L168.49 125.619L176.836 133.982L185.159 125.642L193.792 134.292L202.505 125.573L211.057 134.155L218.394 126.791L225.777 134.189L233 126.963V124.023Z" fill="#C11202"/>
<path d="M233 133.684L225.777 140.909L218.394 133.523L211.057 140.875L202.505 132.294L193.792 141.024L185.159 132.363L176.836 140.703L168.49 132.351L159.938 140.921L151.741 132.719L143.372 141.116L134.728 132.454L126.233 140.967L117.807 132.535L109.392 140.955L101 132.546V135.487L109.392 143.896L117.807 135.464L126.233 143.908L134.728 135.395L143.372 144.045L151.741 135.659L159.938 143.862L168.49 135.28L176.836 143.643L185.159 135.303L193.792 143.953L202.505 135.234L211.057 143.804L218.394 136.452L225.777 143.85L233 136.613V133.684Z" fill="#C11202"/>
<path d="M233 143.345L225.777 150.57L218.394 143.172L211.057 150.524L202.505 141.955L193.792 150.674L185.159 142.024L176.836 150.364L168.49 142.001L159.938 150.582L151.741 142.38L143.372 150.766L134.728 142.115L126.233 150.628L117.807 142.184L109.392 150.616L101 142.207V145.137L109.392 153.557L117.807 145.125L126.233 153.569L134.728 145.045L143.372 153.706L151.741 145.309L159.938 153.523L168.49 144.941L176.836 153.293L185.159 144.964L193.792 153.615L202.505 144.884L211.057 153.465L218.394 146.113L225.777 153.511L233 146.274V143.345Z" fill="#C11202"/>
<path d="M233 152.994L225.777 160.231L218.394 152.833L211.057 160.185L202.505 151.604L193.792 160.335L185.159 151.685L176.836 160.025L168.49 151.662L159.938 160.243L151.741 152.041L143.372 160.427L134.728 151.777L126.233 160.289L117.807 151.845L109.392 160.277L101 151.868V154.798L109.392 163.218L117.807 154.786L126.233 163.218L134.728 154.706L143.372 163.367L151.741 154.97L159.938 163.184L168.49 154.602L176.836 162.954L185.159 154.614L193.792 163.276L202.505 154.545L211.057 163.126L218.394 155.774L225.777 163.161L233 155.935V152.994Z" fill="#C11202"/>
<path d="M233 162.655L225.777 169.892L218.394 162.494L211.057 169.846L202.505 161.265L193.792 169.996L185.159 161.346L176.836 169.674L168.49 161.323L159.938 169.904L151.741 161.69L143.372 170.088L134.728 161.426L126.233 169.95L117.807 161.506L109.392 169.938L101 161.518V164.459L109.392 172.868L117.807 164.436L126.233 172.879L134.728 164.367L143.372 173.028L151.741 164.631L159.938 172.833L168.49 164.263L176.836 172.615L185.159 164.275L193.792 172.925L202.505 164.206L211.057 172.787L218.394 165.424L225.777 172.822L233 165.596V162.655Z" fill="#C11202"/>
<path d="M233 172.316L225.777 179.542L218.394 172.155L211.057 179.507L202.505 170.926L193.792 179.657L185.159 170.995L176.836 179.335L168.49 170.984L159.938 179.565L151.741 171.351L143.372 179.749L134.728 171.087L126.233 179.599L117.807 171.167L109.392 179.599L101 171.179V174.12L109.392 182.529L117.807 174.097L126.233 182.54L134.728 174.028L143.372 182.678L151.741 174.292L159.938 182.494L168.49 173.913L176.836 182.276L185.159 173.936L193.792 182.586L202.505 173.867L211.057 182.437L218.394 175.085L225.777 182.483L233 175.246V172.316Z" fill="#C11202"/>
<path d="M233 181.977L225.777 189.203L218.394 181.805L211.057 189.168L202.505 180.587L193.792 189.306L185.159 180.656L176.836 188.996L168.49 180.645L159.938 189.214L151.741 181.012L143.372 189.41L134.728 180.748L126.233 189.26L117.807 180.817L109.392 189.249L101 180.84V183.781L109.392 192.19L117.807 183.758L126.233 192.201L134.728 183.689L143.372 192.339L151.741 183.953L159.938 192.155L168.49 183.574L176.836 191.937L185.159 183.597L193.792 192.247L202.505 183.517L211.057 192.098L218.394 184.746L225.777 192.144L233 184.907V181.977Z" fill="#C11202"/>
<path d="M233 191.627L225.777 198.864L218.394 191.466L211.057 198.818L202.505 190.248L193.792 198.967L185.159 190.317L176.836 198.657L168.49 190.294L159.938 198.875L151.741 190.673L143.372 199.059L134.728 190.409L126.233 198.921L117.807 190.478L109.392 198.91L101 190.501V193.43L109.392 201.851L117.807 193.419L126.233 201.851L134.728 193.338L143.372 202L151.741 193.603L159.938 201.816L168.49 193.235L176.836 201.586L185.159 193.258L193.792 201.908L202.505 193.178L211.057 201.759L218.394 194.407L225.777 201.805L233 194.568V191.627Z" fill="#C11202"/>
</g>
</g>
<g clip-path="url(#clip1_1032_7159)">
<path d="M8.28516 198.391C43.4282 172.091 61.7698 125.086 53.7088 81.9331C51.8617 72.0362 47.1159 60.8017 37.2556 58.7673C29.1906 57.1033 20.8732 63.1045 18.1007 70.8621C15.3283 78.6197 17.2153 87.4225 21.1439 94.6633C34.5042 119.263 72.9685 124.905 92.8346 105.174C112.701 85.4427 107.336 46.9435 82.837 33.3909C78.6526 31.0796 73.1253 29.5513 69.3407 32.4726C65.0351 35.7935 65.8678 42.5715 68.1805 47.5001C77.7456 67.8598 106.39 75.8204 125.708 64.2793C145.028 52.7503 151.931 24.9988 141.328 5.1404C134.466 -7.71487 114.643 -16.1734 106.031 -4.40677C98.6674 5.67068 107.031 19.5885 115.857 28.4225C140.119 52.7347 172.969 71.7275 207.158 68.4073C241.346 65.087 273.242 32.2686 265.957 -1.30332" stroke="white" stroke-width="2" stroke-miterlimit="10"/>
</g>
<g clip-path="url(#clip2_1032_7159)">
<path d="M44.1821 164.852C49.8684 181.917 39.6635 202.539 22.6666 208.316C5.66984 214.093 -15.1236 204.012 -21.1813 187.069C-36.272 144.812 29.9938 122.266 44.1821 164.852Z" fill="#1A66EA"/>
<mask id="mask1_1032_7159" style="mask-type:luminance" maskUnits="userSpaceOnUse" x="-24" y="142" width="70" height="68">
<path d="M44.1821 164.852C49.8684 181.917 39.6635 202.539 22.6666 208.316C5.66984 214.093 -15.1236 204.012 -21.1813 187.069C-36.272 144.812 29.9938 122.266 44.1821 164.852Z" fill="white"/>
</mask>
<g mask="url(#mask1_1032_7159)">
<path d="M4.92001 166.147C5.35269 166.051 5.78358 165.984 6.24194 166.05C6.46595 166.07 6.69245 166.102 6.9136 166.133L7.24318 166.187L7.57491 166.276C8.01472 166.411 8.43669 166.484 8.85758 166.625C9.27313 166.765 9.67906 166.834 10.0825 166.891C11.6698 167.088 13.2678 167.287 14.6275 167.949C14.9795 168.111 15.2931 168.332 15.622 168.518C15.9426 168.712 16.2044 168.976 16.5048 169.182C16.6564 169.28 16.7737 169.42 16.9007 169.545C17.0277 169.67 17.1493 169.794 17.2791 169.909C17.4172 170.015 17.5224 170.157 17.6344 170.295C17.7478 170.428 17.8612 170.562 17.9829 170.686C18.4312 171.217 18.9324 171.722 19.3893 172.307C19.8491 172.881 20.2781 173.527 20.5353 174.258C21.0642 175.729 20.9551 177.378 20.965 178.882C20.9789 180.392 20.9175 181.906 20.4666 183.246C20.0171 184.581 19.4867 185.769 18.6883 186.736C17.8668 187.726 16.5809 188.266 15.4402 188.971C14.1692 189.755 12.7528 190.654 11.1341 191.002C10.9629 191.042 10.7916 191.082 10.6179 191.109L10.0907 191.151C9.91452 191.166 9.73831 191.182 9.56602 191.204L9.04453 191.224C8.70032 191.246 8.34861 191.317 8.01082 191.358C7.6716 191.404 7.30776 191.564 6.95677 191.675C6.83513 191.722 6.83976 192.112 6.96389 192.077C7.13511 192.037 7.31167 191.999 7.48681 191.966C7.66053 191.938 7.82853 191.932 8.00438 191.939C8.3436 191.978 8.68995 191.991 9.04487 192.058C9.22036 192.088 9.39835 192.13 9.58169 192.173L10.1274 192.234C10.4948 192.275 10.8754 192.331 11.2364 192.268C12.7873 192.13 14.1706 191.291 15.4626 190.621C16.8156 189.916 18.1778 189.219 19.2216 188.192C20.2599 187.163 20.8792 185.879 21.4453 184.473C22.01 183.072 22.4003 181.487 22.5055 179.831C22.6094 178.181 22.587 176.445 22.1604 174.784C21.7456 173.144 21.0815 171.556 20.1249 170.204C19.648 169.522 19.0184 168.982 18.3553 168.525L17.8392 168.204C17.6676 168.095 17.5096 167.979 17.312 167.903C16.9318 167.738 16.594 167.522 16.2191 167.359C14.5523 166.581 12.6247 166.413 10.7499 166.305C10.5123 166.292 10.2805 166.259 10.0408 166.212C9.80499 166.171 9.56493 166.147 9.32666 166.094C9.08696 166.047 8.83941 165.987 8.5933 165.921L7.84566 165.8C7.59241 165.761 7.33665 165.71 7.08304 165.693C6.83193 165.689 6.58081 165.684 6.32542 165.695C5.81106 165.689 5.32666 165.827 4.86544 166.029C4.73311 166.074 4.79196 166.175 4.92001 166.147Z" fill="#4885EE"/>
<path d="M4.72099 165.887C6.29046 165.766 7.77826 165.285 9.37235 165.307C11.2632 165.334 13.016 166.027 14.6404 166.599C16.2569 167.158 18.044 167.551 19.2859 168.78C19.4407 168.93 19.5873 169.089 19.7286 169.247C19.8588 169.424 19.9686 169.613 20.0853 169.799L20.4231 170.357C20.5194 170.554 20.6007 170.765 20.6902 170.965L20.9563 171.556C21.0405 171.756 21.1029 171.972 21.1803 172.176C21.2577 172.379 21.3418 172.578 21.4342 172.769C21.5198 172.963 21.5822 173.179 21.6746 173.37C22.3965 174.956 23.2133 176.659 23.3938 178.511C23.5689 180.361 23.0609 182.171 22.6399 183.828C22.2257 185.481 21.9403 187.231 20.9045 188.614C19.8632 189.996 18.2855 190.898 16.7642 191.803C15.0313 192.834 13.0388 193.55 10.9885 193.925C8.94493 194.297 6.829 194.489 4.79548 194.138C4.65743 194.118 4.59714 194.364 4.73911 194.391C6.51724 194.753 8.41415 195.165 10.341 194.95C12.2693 194.731 14.0735 193.947 15.7739 193.187C17.4865 192.424 19.0884 191.432 20.3843 190.17C21.6721 188.917 22.7821 187.513 23.4902 185.791C24.1969 184.074 24.1388 182.129 24.176 180.278C24.216 178.417 24.1903 176.458 23.6065 174.635C23.0226 172.812 22.1006 171.138 20.9556 169.718C19.7921 168.282 18.2469 167.371 16.5976 166.678C14.7827 165.918 12.838 165.3 10.7528 165.078C8.73458 164.862 6.67286 165.28 4.64895 165.429C4.41389 165.428 4.48842 165.899 4.72099 165.887Z" fill="#4885EE"/>
<path d="M-4.17892 165.09C-2.50169 163.667 -0.696049 162.279 1.41776 161.538C3.50589 160.808 5.6757 160.179 7.90328 160.148C10.1177 160.102 12.3138 160.359 14.4191 160.935C16.5335 161.519 18.3587 162.733 20.0676 163.91C21.7951 165.103 23.1548 166.706 24.34 168.382C25.5321 170.054 26.6103 171.873 27.2491 173.876C27.8722 175.852 28.4497 177.914 28.4821 180.04C28.5091 182.165 28.0118 184.235 27.4311 186.231C26.8703 188.238 26.063 190.202 24.8217 191.924C23.5885 193.637 22.1627 195.299 20.3749 196.578C18.5843 197.867 16.4455 198.573 14.3584 199.235C12.2525 199.903 10.0156 200.097 7.8073 200.099C7.59649 200.094 7.58399 200.719 7.80407 200.732C10.083 200.766 12.3616 200.481 14.5485 199.874C16.7301 199.265 18.8411 198.364 20.733 197.124C22.6357 195.888 24.1999 194.223 25.5639 192.471C26.9444 190.701 27.6899 188.56 28.3271 186.482C28.9817 184.403 29.4847 182.226 29.4726 180.003C29.4573 177.813 29.655 175.491 28.9627 173.302C28.2583 171.116 26.9464 169.206 25.6438 167.39C24.3201 165.546 22.4703 164.188 20.632 162.959C18.7897 161.724 16.7551 160.67 14.5486 160.131C12.3581 159.595 10.0752 159.297 7.79843 159.469C5.53125 159.627 3.26193 160.092 1.1474 160.963C-0.988885 161.852 -2.67468 163.478 -4.3191 164.949C-4.45287 165.085 -4.32196 165.217 -4.17892 165.09Z" fill="#4885EE"/>
<path d="M0.987123 206.719C1.64059 207.02 2.3422 207.248 3.0638 207.401C3.78611 207.509 4.52804 207.565 5.26783 207.587C6.7442 207.577 8.20239 207.443 9.58067 207.35C12.8202 207.202 15.9656 206.549 18.9851 205.446C22.2667 204.242 25.3119 202.358 27.9915 199.977C28.6828 199.409 29.3148 198.762 29.9801 198.141C30.6625 197.542 31.2446 196.824 31.8771 196.155C33.097 194.769 34.1825 193.222 35.0186 191.557C35.4535 190.726 35.7481 189.841 36.0681 188.967C36.3506 188.084 36.5408 187.182 36.7591 186.282C36.9143 185.381 37.0374 184.473 37.1644 183.571C37.2336 182.67 37.3082 181.771 37.3774 180.871C37.5766 177.26 36.8793 173.677 35.7337 170.248C35.4302 169.39 35.1834 168.513 34.8274 167.659L34.332 166.362C34.1736 165.926 33.9464 165.511 33.7517 165.082L33.1296 163.808C32.9024 163.393 32.6388 162.986 32.3859 162.581C32.1263 162.181 31.8627 161.773 31.5827 161.384C31.277 161.006 30.9564 160.64 30.6289 160.278C28.0173 157.398 24.6248 155.056 21.0571 153.69C18.3559 152.663 15.5244 152.487 12.8246 152.311C10.0933 152.167 7.44983 152.68 4.86911 153.216C2.29909 153.755 -0.428237 154.217 -2.86844 155.469C-2.95512 155.515 -2.78391 155.817 -2.69723 155.772C0.454593 154.111 3.91744 153.258 7.38633 152.96L10.0006 152.77C10.8756 152.737 11.758 152.739 12.6448 152.725C13.5319 152.775 14.4229 152.831 15.3147 152.927C16.2028 153.08 17.0949 153.239 17.9642 153.483C21.4127 154.481 24.6561 156.395 27.4376 158.812C30.2351 161.234 32.1687 164.355 33.5954 167.506C35.0456 170.697 35.8941 174.058 36.1241 177.458C36.3459 180.868 35.7419 184.257 34.753 187.519C34.2625 189.157 33.6621 190.777 32.9066 192.355C32.7365 192.755 32.5142 193.135 32.2959 193.522L31.6292 194.662C31.1701 195.412 30.6087 196.095 30.0672 196.789C27.7992 199.474 24.9545 201.509 21.98 203.086C18.8117 204.766 15.4869 206.152 11.8746 206.686C11.4505 206.749 11.021 206.811 10.5969 206.874C10.1639 206.906 9.72942 206.944 9.29639 206.977C8.85944 207.002 8.42212 207.05 7.9841 207.059L6.66004 207.035C5.77757 207.033 4.89046 206.898 4.01442 206.743C3.13801 206.611 2.28302 206.313 1.46048 206.001C1.04243 205.849 0.569793 206.522 0.987123 206.719Z" fill="#4885EE"/>
<path d="M-3.74359 166.142C-1.99216 164.528 0.236155 163.596 2.41988 162.851C4.64141 162.093 7.02558 162.184 9.25779 162.286C11.5089 162.381 13.7129 162.909 15.6733 163.811C15.9119 163.926 16.1645 164.011 16.3992 164.119C16.631 164.239 16.8711 164.349 17.1111 164.459C17.3512 164.569 17.597 164.657 17.8356 164.773L18.5283 165.141C18.7587 165.265 18.9988 165.375 19.221 165.509L19.8587 165.954C20.0699 166.108 20.2839 166.251 20.4787 166.423C20.6652 166.604 20.845 166.789 21.0219 166.985C21.1935 167.179 21.3679 167.363 21.5313 167.566L21.9507 168.227L22.3488 168.881L22.6694 169.589L22.9944 170.282L23.2597 171.003C23.3514 171.239 23.4445 171.47 23.5483 171.703C23.6332 171.942 23.7113 172.186 23.799 172.415C24.5298 174.289 24.8729 176.304 25.007 178.287C25.0355 178.779 25.1179 179.264 25.1464 179.757C25.1978 180.25 25.288 180.748 25.2976 181.247C25.3247 181.745 25.3878 182.259 25.3411 182.754C25.3104 183.254 25.305 183.766 25.1606 184.241C25.0321 184.72 24.929 185.212 24.7072 185.655C24.5013 186.102 24.3408 186.573 24.0726 186.975C23.6078 187.832 23.073 188.607 22.5608 189.406C21.5338 190.992 20.2878 192.581 18.6302 193.781C16.9794 194.977 15.101 196.038 13.0296 196.556C12.5096 196.656 11.9817 196.743 11.453 196.789C10.9183 196.795 10.3904 196.796 9.86537 196.786C9.33567 196.73 8.81525 196.682 8.30125 196.653C7.78939 196.573 7.27861 196.51 6.7671 196.493C6.26309 196.426 5.75587 196.393 5.23616 196.385C4.72786 196.335 4.21814 196.289 3.69202 196.262C3.18123 196.2 2.6683 196.102 2.14717 196.014C1.63995 195.895 1.1552 195.714 0.658324 195.535C0.444665 195.455 0.48533 195.346 0.694709 195.442C2.52525 196.401 4.52631 197.194 6.67683 197.536C8.822 197.877 11.0621 197.821 13.2536 197.432C15.4452 197.043 17.5579 196.199 19.4488 195.028C21.3411 193.851 22.8261 192.183 24.0436 190.443C25.2703 188.711 26.379 186.799 26.8937 184.643C27.4042 182.502 27.5805 180.26 27.4329 178.029C27.2789 175.779 27.1469 173.403 26.2777 171.19C25.4135 169.001 24.1741 166.928 22.5133 165.164C20.8501 163.389 18.6322 162.206 16.3718 161.247C14.0861 160.275 11.5625 159.913 9.06346 159.865C6.56051 159.811 3.96375 160 1.57527 160.952C-0.792872 161.893 -3.0854 163.236 -4.76372 165.155C-5.61697 166.114 -4.60361 166.934 -3.74359 166.142Z" fill="#4885EE"/>
<path d="M10.8669 158.122C13.5457 158.783 16.3094 159.426 18.8544 160.651C21.3769 161.852 23.7432 163.507 25.4942 165.598C27.3101 167.745 28.3705 170.358 29.2004 172.932C30.0315 175.523 30.4694 178.255 30.2764 180.966C30.1004 183.613 29.7298 186.344 28.5112 188.752C27.8987 189.946 27.0694 191.008 26.1519 191.95C25.2291 192.89 24.2328 193.718 23.2423 194.526C21.1616 196.235 18.9554 197.984 16.3333 198.931C13.7611 199.862 10.971 200.644 8.1884 200.35C7.66977 200.274 7.41828 200.977 7.98221 201.076C10.7145 201.495 13.5553 200.994 16.2098 200.205C18.8804 199.419 21.4227 198.171 23.7402 196.52C26.0127 194.909 27.8623 192.693 29.3284 190.261C30.8023 187.842 32.0319 185.158 32.4483 182.255C32.8739 179.276 32.2212 176.276 31.4897 173.42C30.7571 170.547 29.5412 167.744 27.7086 165.295L27.363 164.808L26.9888 164.343L26.2515 163.392C26.019 163.061 25.7293 162.772 25.4629 162.461L24.6446 161.534C24.0682 160.946 23.4362 160.394 22.8056 159.837C22.1321 159.354 21.4484 158.846 20.7132 158.443C19.2319 157.658 17.6271 157.12 16.0116 156.835C15.1998 156.698 14.4001 156.558 13.5879 156.528L12.3844 156.44C11.987 156.425 11.5825 156.436 11.1891 156.428C10.0073 156.408 9.77795 157.842 10.8669 158.122Z" fill="#4885EE"/>
<path d="M-8.07598 153.44C-5.05008 152.014 -1.97138 150.561 1.34664 149.864C4.55836 149.177 7.83356 149.324 11.0363 149.463C11.8521 149.522 12.6729 149.52 13.484 149.617C14.3019 149.711 15.1187 149.787 15.9309 149.902C16.7399 150.05 17.55 150.216 18.3436 150.4C19.1383 150.601 19.9184 150.879 20.681 151.157C24.0425 152.48 26.9085 154.904 29.4835 157.386L30.4615 158.316C30.7993 158.617 31.0814 158.956 31.3975 159.274C32.0092 159.923 32.6655 160.556 33.2012 161.253C34.3565 162.613 35.3517 164.078 36.09 165.646C37.5492 168.782 38.4137 172.062 38.7956 175.366C39.1715 178.629 39.0712 181.935 38.4248 185.204C37.7855 188.446 36.6735 191.675 34.9103 194.639C34.4462 195.365 33.9622 196.08 33.4039 196.73C32.8271 197.363 32.2318 197.979 31.6261 198.571L29.7159 200.199C29.0685 200.711 28.4107 201.196 27.7872 201.726C25.2368 203.754 22.4088 205.319 19.4628 206.447C16.5047 207.578 13.3989 208.276 10.2314 208.54C7.05183 208.807 3.76914 208.623 0.51822 207.872C0.0534453 207.788 -0.250464 207.98 -0.316818 208.271C-0.387095 208.554 -0.211615 208.927 0.279555 209.041C3.91677 209.999 7.58934 209.904 11.0928 209.627C14.6245 209.352 18.1045 208.606 21.39 207.238C24.6689 205.873 27.9188 204.124 30.6911 201.568C33.4713 199.025 35.4457 195.53 36.9749 192.156C37.3631 191.306 37.7269 190.462 38.1325 189.612C38.5031 188.764 38.831 187.904 39.1791 187.033C39.5045 186.161 39.7427 185.272 39.9907 184.368C40.2211 183.465 40.3335 182.553 40.4327 181.627C40.711 177.934 40.3798 174.227 39.4307 170.599C38.4791 166.959 36.5905 163.542 34.3116 160.34C33.7805 159.519 33.1182 158.759 32.5032 157.972C31.9033 157.172 31.1703 156.462 30.4687 155.721C29.7767 154.964 28.9742 154.321 28.1759 153.662C27.3833 152.982 26.5255 152.438 25.657 151.891C22.1457 149.758 18.2791 148.522 14.4307 147.839C13.9485 147.755 13.4637 147.66 12.9754 147.62C12.4871 147.581 12.0013 147.553 11.514 147.531C11.0253 147.514 10.5342 147.485 10.0476 147.503L8.58767 147.58C8.1022 147.616 7.61566 147.634 7.13126 147.687L5.68699 147.876L4.24807 148.067L2.81485 148.322C-1.00611 148.971 -4.80177 150.317 -8.33956 152.434C-10.1623 153.544 -9.59447 154.164 -8.07598 153.44Z" fill="#4885EE"/>
<path d="M3.79701 172.158C5.05224 171.604 6.66738 171.312 8.22615 171.273C8.42625 171.275 8.62529 171.26 8.82041 171.238C9.01445 171.199 9.21812 171.231 9.41467 171.203C9.81453 171.145 10.2065 171.159 10.61 171.13C10.8147 171.093 11.0034 171.138 11.2035 171.14C11.3993 171.159 11.608 171.129 11.7928 171.167C12.1637 171.238 12.5704 171.261 12.9064 171.42C13.0373 171.466 13.1614 171.517 13.2855 171.567C13.4068 171.628 13.5021 171.722 13.6083 171.796L13.919 172.028C14.0185 172.106 14.0852 172.221 14.1712 172.307C14.2557 172.398 14.3363 172.482 14.4237 172.563C14.5111 172.643 14.5564 172.752 14.6317 172.835C14.7686 173.009 14.9359 173.134 15.0743 173.302C15.6957 173.851 16.5146 174.476 17.0094 175.476C17.4987 176.475 17.5411 177.707 17.6656 178.848C17.7904 179.966 18.003 181.142 17.7554 182.194C17.5149 183.22 17.3301 184.209 16.8151 184.933C16.2768 185.679 15.2734 186.021 14.4451 186.587C13.5937 187.175 12.5014 187.527 11.4174 187.87C11.2797 187.913 11.1524 187.982 11.0186 188.032C10.8809 188.075 10.7458 188.13 10.6145 188.192C10.4779 188.252 10.3438 188.324 10.2082 188.402C10.0677 188.456 9.93247 188.511 9.78908 188.575L9.36425 188.77C9.22371 188.823 9.07675 188.858 8.93228 188.905L8.48712 189.026C8.33873 189.066 8.19391 189.05 8.04731 189.062C6.86735 189.1 5.8069 188.798 4.82206 188.557C4.62553 188.499 4.37796 189.038 4.59019 189.123C5.65386 189.476 6.85807 189.519 8.09081 189.542C9.32748 189.57 10.6804 189.636 11.9674 189.285C12.1294 189.237 12.2924 189.206 12.4425 189.138L12.8813 188.913C13.0275 188.838 13.1738 188.763 13.3108 188.68L13.7035 188.391L14.0959 188.125C14.2104 188.019 14.3288 187.92 14.4511 187.827C14.5735 187.734 14.6944 187.647 14.8232 187.573C14.9348 187.477 15.0451 187.387 15.1685 187.311C16.1416 186.676 16.8921 185.93 17.481 185.123C18.0603 184.33 18.8272 183.394 19.118 182.16C19.4044 180.941 19.4997 179.579 19.326 178.237C19.1638 176.938 18.9512 175.591 18.382 174.462C17.8098 173.344 17.1143 172.388 16.2929 171.665C15.4714 170.943 14.3578 170.604 13.2171 170.196C13.1129 170.157 13.0102 170.112 12.9089 170.062L12.58 169.963C12.3635 169.893 12.1459 169.806 11.9284 169.719C11.4664 169.624 11.0266 169.404 10.543 169.325C9.59236 169.042 8.57684 168.958 7.55455 168.964C5.78283 169.049 4.08099 170.071 3.08257 171.208C2.8161 171.581 2.83964 171.879 3.01941 172.064C3.2031 172.256 3.51628 172.328 3.79701 172.158Z" fill="#4885EE"/>
<path d="M-1.387 156.94C1.20266 155.579 4.08123 155.066 6.88844 154.819C7.24086 154.788 7.59507 154.729 7.94998 154.71L9.02043 154.631L10.0952 154.537L11.1728 154.517C11.8929 154.505 12.6238 154.495 13.3436 154.591C14.0663 154.676 14.7893 154.739 15.4909 154.967C16.1915 155.177 16.8842 155.374 17.5426 155.699C18.2011 156.024 18.8517 156.335 19.4745 156.707L21.3072 157.872C21.8914 158.303 22.48 158.717 23.0878 159.103C25.4933 160.74 27.9958 162.53 29.6323 164.983C31.2648 167.429 32.1415 170.193 32.8231 172.893C33.5047 175.592 33.9886 178.388 33.7674 181.182C33.5658 183.839 33.0321 186.516 31.9641 189.004C30.8893 191.495 29.1125 193.611 27.3108 195.519C26.8374 195.98 26.3773 196.456 25.8604 196.866C25.3357 197.262 24.807 197.651 24.2759 198.028L22.6172 199.039C22.0615 199.358 21.4861 199.644 20.9343 199.97C18.7056 201.182 16.4017 202.397 13.8845 202.995C11.3701 203.583 8.75869 203.762 6.13411 203.669C3.52166 203.574 0.821825 203.313 -1.82663 202.432C-2.77259 202.11 -3.07223 202.886 -2.07742 203.261C0.748673 204.292 3.66751 204.978 6.5614 205.114C9.4378 205.251 12.3663 205.408 15.2149 204.75C18.0596 204.085 20.5865 202.53 23.0727 201.085C25.5643 199.64 28.0876 197.971 30.0534 195.621C32.0246 193.272 33.3013 190.412 34.2377 187.581C35.1741 184.75 36.021 181.803 35.9262 178.775C35.8314 175.833 34.8723 173.014 33.8783 170.282C32.8896 167.551 31.7803 164.714 29.8289 162.302C29.3196 161.72 28.8116 161.133 28.2491 160.6C27.6649 160.084 27.0671 159.575 26.465 159.083L24.541 157.745C23.8936 157.315 23.2169 156.951 22.5653 156.537C20.0752 155.065 17.4678 153.624 14.5939 152.985C13.8787 152.851 13.1528 152.713 12.4255 152.667C11.7007 152.632 10.9688 152.625 10.2461 152.625C9.52557 152.66 8.80183 152.729 8.08237 152.782C7.36433 152.829 6.65557 152.97 5.94253 153.042C5.22557 153.106 4.51431 153.235 3.79663 153.346L2.7194 153.514C2.36092 153.589 2.00493 153.676 1.64894 153.763C0.222857 154.078 -1.17042 154.612 -2.42994 155.353C-3.65558 156.16 -2.54879 157.616 -1.387 156.94Z" fill="#4885EE"/>
</g>
<path d="M44.1821 164.852C49.8684 181.917 39.6635 202.539 22.6666 208.316C5.66984 214.093 -15.1236 204.012 -21.1813 187.069C-36.272 144.812 29.9938 122.266 44.1821 164.852Z" stroke="#1A66EA" stroke-miterlimit="10"/>
</g>
<circle cx="269.5" cy="95.5" r="10.5" stroke="white" stroke-width="2"/>
</g>
<g clip-path="url(#clip3_1032_7159)">
<path d="M1227.66 137.141L1209.86 137.063L1199.71 151.681C1198.64 153.219 1197.09 154.051 1195.48 154.233C1192.8 154.538 1189.97 153.053 1189.02 150.08L1183.59 133.134L1166.56 127.994C1164.16 127.271 1162.71 125.336 1162.35 123.215C1161.99 121.096 1162.74 118.787 1164.77 117.328L1179.22 106.929L1178.84 89.1397C1178.77 85.8346 1181.22 83.4256 1184.06 83.0288C1185.52 82.8275 1187.07 83.1474 1188.43 84.1459L1202.78 94.6653L1219.58 88.8065C1221.79 88.0393 1223.96 88.6094 1225.49 89.9206C1227.22 91.4111 1228.13 93.865 1227.29 96.3909L1221.72 113.289L1232.48 127.459C1233.78 129.166 1233.99 131.202 1233.42 132.96C1232.66 135.301 1230.51 137.156 1227.66 137.141Z" fill="#36AB67"/>
<mask id="mask2_1032_7159" style="mask-type:luminance" maskUnits="userSpaceOnUse" x="1161" y="83" width="74" height="71">
<path d="M1228.4 137.484L1210.36 137.015L1200.36 151.167C1199.3 152.656 1197.74 153.44 1196.11 153.584C1193.4 153.824 1190.51 152.302 1189.48 149.357L1183.64 132.574L1166.27 127.144C1163.83 126.38 1162.31 124.445 1161.9 122.352C1161.5 120.26 1162.22 118.006 1164.25 116.617L1178.68 106.708L1177.94 89.2064C1177.81 85.9547 1180.25 83.6397 1183.12 83.3121C1184.59 83.1461 1186.17 83.4949 1187.57 84.5068L1202.33 95.1671L1219.25 89.7756C1221.47 89.0697 1223.68 89.6781 1225.26 91.0012C1227.05 92.505 1228.01 94.938 1227.22 97.4035L1221.9 113.898L1233.1 128.069C1234.45 129.776 1234.71 131.783 1234.16 133.499C1233.44 135.785 1231.29 137.562 1228.4 137.484Z" fill="white"/>
</mask>
<g mask="url(#mask2_1032_7159)">
<path opacity="0.5" d="M1232.85 62.5429L1234.39 71.4184L1229.96 72.0136L1228.42 63.1381L1227.53 63.2575L1229.07 72.133L1224.64 72.7281L1223.1 63.8526L1222.22 63.972L1223.76 72.8475L1219.33 73.4427L1217.79 64.5672L1216.9 64.6866L1218.44 73.5621L1214.19 74.1319L1212.64 65.2564L1211.76 65.3758L1213.3 74.2513L1209.05 74.8211L1207.5 65.9456L1206.62 66.065L1208.16 74.9405L1203.9 75.5103L1202.36 66.6348L1201.48 66.7542L1203.02 75.6297L1198.76 76.1995L1197.22 67.324L1196.34 67.4434L1197.88 76.3189L1193.62 76.8887L1192.08 68.0132L1191.2 68.1326L1192.74 77.0081L1188.48 77.5779L1186.94 68.7024L1186.06 68.8218L1187.6 77.6973L1183.34 78.2671L1181.8 69.3916L1180.92 69.511L1182.46 78.3865L1178.2 78.9563L1176.66 70.0808L1175.78 70.2002L1177.32 79.0757L1173.06 79.6455L1171.52 70.77L1170.63 70.8894L1172.18 79.7649L1167.92 80.3347L1166.38 71.4592L1165.49 71.5786L1167.04 80.4541L1162.78 81.0239L1161.24 72.1484L1160.35 72.2678L1161.89 81.1433L1157.64 81.7131L1156.1 72.8376L1155.21 72.957L1156.75 81.8325L1152.5 82.4023L1150.96 73.5268L1150.07 73.6462L1151.61 82.5217L1147.36 83.0915L1145.81 74.216L1144.9 74.336L1146.44 83.2115L1144.14 83.5181L1144.29 84.3858L1146.59 84.0783L1147.31 88.256L1145.01 88.5635L1145.16 89.4312L1147.46 89.1237L1148.19 93.3014L1145.89 93.6089L1146.04 94.4766L1148.34 94.1691L1149.06 98.3468L1146.76 98.6543L1146.91 99.522L1149.21 99.2144L1149.94 103.392L1147.63 103.7L1147.79 104.567L1150.09 104.26L1150.81 108.438L1148.51 108.745L1148.66 109.613L1150.96 109.305L1151.69 113.483L1149.38 113.79L1149.54 114.658L1151.84 114.351L1152.56 118.528L1150.26 118.836L1150.41 119.704L1152.71 119.396L1153.44 123.574L1151.13 123.881L1151.29 124.749L1153.59 124.441L1154.31 128.619L1152.01 128.927L1152.16 129.794L1154.46 129.487L1155.19 133.664L1152.88 133.972L1153.04 134.84L1155.34 134.532L1156.06 138.71L1153.76 139.017L1153.91 139.885L1156.21 139.578L1156.94 143.755L1154.63 144.063L1154.79 144.93L1157.09 144.623L1157.81 148.801L1155.51 149.108L1155.66 149.976L1157.96 149.668L1158.69 153.846L1156.38 154.154L1156.54 155.021L1158.84 154.714L1160.38 163.589L1161.26 163.47L1159.72 154.594L1163.98 154.025L1165.52 162.9L1166.4 162.781L1164.86 153.905L1169.12 153.335L1170.66 162.211L1171.55 162.091L1170 153.216L1174.26 152.646L1175.8 161.522L1176.69 161.402L1175.14 152.527L1179.4 151.957L1180.94 160.832L1181.83 160.713L1180.29 151.838L1184.54 151.268L1186.08 160.143L1186.97 160.024L1185.43 151.148L1189.68 150.579L1191.22 159.454L1192.11 159.335L1190.57 150.459L1194.82 149.889L1196.36 158.765L1197.25 158.645L1195.71 149.77L1199.96 149.2L1201.51 158.076L1202.39 157.956L1200.85 149.081L1205.1 148.511L1206.65 157.386L1207.53 157.267L1205.99 148.391L1210.25 147.822L1211.79 156.697L1212.67 156.578L1211.13 147.702L1215.39 147.132L1216.93 156.008L1217.81 155.889L1216.27 147.013L1220.53 146.443L1222.07 155.319L1222.95 155.199L1221.41 146.324L1225.67 145.754L1227.21 154.63L1228.09 154.51L1226.55 145.635L1230.81 145.065L1232.35 153.94L1233.23 153.821L1231.69 144.945L1236.12 144.35L1237.67 153.226L1238.55 153.106L1237.01 144.231L1241.44 143.636L1242.98 152.511L1243.87 152.392L1242.32 143.516L1246.76 142.921L1248.3 151.797L1249.18 151.677L1233.74 62.4245L1232.85 62.5429ZM1234.54 72.2861L1235.26 76.4638L1230.83 77.059L1230.11 72.8813L1234.54 72.2861ZM1203.99 111.645L1199.73 112.214L1199.01 108.037L1203.26 107.467L1203.99 111.645ZM1204.15 107.348L1208.41 106.779L1209.13 110.956L1204.88 111.526L1204.15 107.348ZM1198.85 112.334L1194.59 112.904L1193.86 108.726L1198.12 108.156L1198.85 112.334ZM1193.7 113.023L1189.45 113.593L1188.72 109.415L1192.98 108.845L1193.7 113.023ZM1188.56 113.712L1184.31 114.282L1183.58 110.104L1187.84 109.534L1188.56 113.712ZM1188.71 114.58L1189.44 118.758L1185.18 119.327L1184.46 115.15L1188.71 114.58ZM1189.6 114.46L1193.86 113.891L1194.58 118.068L1190.32 118.638L1189.6 114.46ZM1194.74 113.771L1199 113.201L1199.72 117.379L1195.46 117.949L1194.74 113.771ZM1199.89 113.083L1204.14 112.513L1204.87 116.691L1200.61 117.261L1199.89 113.083ZM1205.03 112.394L1209.28 111.824L1210.01 116.002L1205.75 116.571L1205.03 112.394ZM1210.17 111.705L1214.42 111.135L1215.15 115.312L1210.89 115.882L1210.17 111.705ZM1210.02 110.837L1209.29 106.659L1213.55 106.089L1214.27 110.267L1210.02 110.837ZM1209.14 105.786L1208.42 101.608L1212.68 101.039L1213.4 105.216L1209.14 105.786ZM1208.26 105.906L1204 106.475L1203.28 102.298L1207.53 101.728L1208.26 105.906ZM1203.11 106.594L1198.85 107.164L1198.13 102.986L1202.39 102.416L1203.11 106.594ZM1197.97 107.283L1193.71 107.853L1192.99 103.675L1197.25 103.105L1197.97 107.283ZM1192.83 107.978L1188.57 108.547L1187.85 104.37L1192.11 103.8L1192.83 107.978ZM1187.69 108.667L1183.43 109.237L1182.71 105.059L1186.97 104.489L1187.69 108.667ZM1182.54 109.355L1178.29 109.925L1177.56 105.747L1181.82 105.177L1182.54 109.355ZM1182.69 110.223L1183.42 114.4L1179.16 114.97L1178.44 110.793L1182.69 110.223ZM1183.57 115.269L1184.3 119.447L1180.04 120.017L1179.32 115.839L1183.57 115.269ZM1184.45 120.32L1185.17 124.498L1180.92 125.067L1180.19 120.89L1184.45 120.32ZM1185.33 120.2L1189.59 119.631L1190.31 123.808L1186.06 124.378L1185.33 120.2ZM1190.47 119.511L1194.73 118.941L1195.45 123.119L1191.2 123.689L1190.47 119.511ZM1195.62 118.818L1199.88 118.248L1200.6 122.425L1196.34 122.995L1195.62 118.818ZM1200.76 118.128L1205.02 117.559L1205.74 121.736L1201.48 122.306L1200.76 118.128ZM1205.9 117.439L1210.16 116.869L1210.88 121.047L1206.63 121.617L1205.9 117.439ZM1211.04 116.75L1215.3 116.18L1216.02 120.358L1211.77 120.928L1211.04 116.75ZM1216.18 116.061L1220.44 115.491L1221.16 119.669L1216.91 120.238L1216.18 116.061ZM1216.03 115.193L1215.31 111.015L1219.56 110.446L1220.29 114.623L1216.03 115.193ZM1215.16 110.142L1214.43 105.965L1218.69 105.395L1219.41 109.572L1215.16 110.142ZM1214.28 105.097L1213.56 100.919L1217.82 100.349L1218.54 104.527L1214.28 105.097ZM1213.41 100.052L1212.68 95.8738L1216.94 95.304L1217.66 99.4817L1213.41 100.052ZM1212.52 100.171L1208.27 100.741L1207.54 96.563L1211.8 95.9932L1212.52 100.171ZM1207.38 100.86L1203.13 101.43L1202.4 97.2522L1206.66 96.6824L1207.38 100.86ZM1202.24 101.548L1197.98 102.118L1197.26 97.9405L1201.51 97.3707L1202.24 101.548ZM1197.1 102.238L1192.84 102.807L1192.12 98.6297L1196.37 98.0599L1197.1 102.238ZM1191.96 102.927L1187.7 103.497L1186.97 99.3189L1191.23 98.7491L1191.96 102.927ZM1186.81 103.616L1182.56 104.186L1181.83 100.008L1186.09 99.4383L1186.81 103.616ZM1181.67 104.304L1177.41 104.874L1176.69 100.696L1180.94 100.127L1181.67 104.304ZM1176.53 104.999L1172.27 105.569L1171.55 101.391L1175.8 100.821L1176.53 104.999ZM1176.68 105.867L1177.4 110.044L1173.14 110.614L1172.42 106.436L1176.68 105.867ZM1177.55 110.912L1178.28 115.09L1174.02 115.659L1173.3 111.482L1177.55 110.912ZM1178.43 115.957L1179.15 120.135L1174.89 120.705L1174.17 116.527L1178.43 115.957ZM1179.3 121.008L1180.03 125.186L1175.77 125.756L1175.05 121.578L1179.3 121.008ZM1180.18 126.053L1180.9 130.231L1176.64 130.801L1175.92 126.623L1180.18 126.053ZM1181.07 125.935L1185.32 125.365L1186.05 129.543L1181.79 130.113L1181.07 125.935ZM1186.21 125.246L1190.46 124.676L1191.19 128.854L1186.93 129.424L1186.21 125.246ZM1191.35 124.557L1195.6 123.987L1196.33 128.165L1192.07 128.734L1191.35 124.557ZM1196.49 123.868L1200.75 123.299L1201.47 127.476L1197.22 128.046L1196.49 123.868ZM1201.64 123.179L1205.89 122.609L1206.62 126.787L1202.36 127.357L1201.64 123.179ZM1206.78 122.49L1211.03 121.92L1211.76 126.098L1207.5 126.668L1206.78 122.49ZM1211.92 121.795L1216.17 121.226L1216.9 125.403L1212.64 125.973L1211.92 121.795ZM1217.06 121.107L1221.32 120.537L1222.04 124.715L1217.79 125.285L1217.06 121.107ZM1222.2 120.418L1226.46 119.848L1227.18 124.026L1222.93 124.596L1222.2 120.418ZM1222.05 119.55L1221.33 115.373L1225.59 114.803L1226.31 118.98L1222.05 119.55ZM1221.18 114.505L1220.45 110.327L1224.71 109.757L1225.43 113.935L1221.18 114.505ZM1220.3 109.454L1219.58 105.276L1223.84 104.707L1224.56 108.884L1220.3 109.454ZM1219.43 104.409L1218.71 100.231L1222.96 99.6612L1223.69 103.839L1219.43 104.409ZM1218.55 99.3623L1217.83 95.1846L1222.08 94.6148L1222.81 98.7925L1218.55 99.3623ZM1217.67 94.3169L1216.95 90.1392L1221.21 89.5694L1221.93 93.7471L1217.67 94.3169ZM1216.79 94.4363L1212.53 95.0061L1211.81 90.8284L1216.07 90.2586L1216.79 94.4363ZM1211.65 95.1255L1207.39 95.6953L1206.67 91.5176L1210.93 90.9478L1211.65 95.1255ZM1206.5 95.8138L1202.25 96.3836L1201.52 92.2059L1205.78 91.6361L1206.5 95.8138ZM1201.36 96.503L1197.11 97.0728L1196.38 92.8951L1200.64 92.3253L1201.36 96.503ZM1196.22 97.1922L1191.96 97.762L1191.24 93.5843L1195.5 93.0145L1196.22 97.1922ZM1191.08 97.8814L1186.82 98.4512L1186.1 94.2735L1190.36 93.7037L1191.08 97.8814ZM1185.94 98.5706L1181.68 99.1404L1180.96 94.9627L1185.22 94.3929L1185.94 98.5706ZM1180.79 99.2588L1176.54 99.8296L1175.82 95.6519L1180.08 95.0821L1180.79 99.2588ZM1175.65 99.948L1171.4 100.518L1170.67 96.3401L1174.93 95.7703L1175.65 99.948ZM1170.51 100.637L1166.26 101.207L1165.53 97.0293L1169.79 96.4595L1170.51 100.637ZM1170.66 101.51L1171.39 105.688L1167.13 106.258L1166.41 102.08L1170.66 101.51ZM1171.54 106.556L1172.26 110.733L1168 111.303L1167.28 107.126L1171.54 106.556ZM1172.41 111.601L1173.14 115.779L1168.88 116.349L1168.16 112.171L1172.41 111.601ZM1173.29 116.652L1174.01 120.83L1169.75 121.399L1169.03 117.222L1173.29 116.652ZM1174.16 121.697L1174.88 125.875L1170.63 126.445L1169.9 122.267L1174.16 121.697ZM1175.04 126.743L1175.76 130.92L1171.5 131.49L1170.78 127.312L1175.04 126.743ZM1175.91 131.788L1176.63 135.966L1172.38 136.536L1171.65 132.358L1175.91 131.788ZM1176.8 131.67L1181.06 131.1L1181.78 135.278L1177.52 135.847L1176.8 131.67ZM1181.94 130.98L1186.2 130.411L1186.92 134.588L1182.67 135.158L1181.94 130.98ZM1187.08 130.291L1191.34 129.721L1192.06 133.899L1187.81 134.469L1187.08 130.291ZM1192.22 129.602L1196.48 129.032L1197.2 133.21L1192.95 133.78L1192.22 129.602ZM1197.37 128.914L1201.63 128.344L1202.35 132.522L1198.09 133.091L1197.37 128.914ZM1202.51 128.225L1206.77 127.655L1207.49 131.832L1203.23 132.402L1202.51 128.225ZM1207.65 127.535L1211.91 126.966L1212.63 131.143L1208.37 131.713L1207.65 127.535ZM1212.79 126.846L1217.05 126.276L1217.77 130.454L1213.52 131.024L1212.79 126.846ZM1217.94 126.158L1222.19 125.588L1222.92 129.766L1218.66 130.336L1217.94 126.158ZM1223.08 125.463L1227.34 124.894L1228.06 129.071L1223.8 129.641L1223.08 125.463ZM1228.22 124.774L1232.65 124.179L1233.38 128.357L1228.94 128.952L1228.22 124.774ZM1228.07 123.906L1227.35 119.729L1231.78 119.134L1232.5 123.311L1228.07 123.906ZM1227.19 118.861L1226.47 114.683L1230.9 114.088L1231.63 118.266L1227.19 118.861ZM1226.32 113.81L1225.6 109.633L1230.03 109.037L1230.75 113.215L1226.32 113.81ZM1225.44 108.765L1224.72 104.587L1229.15 103.992L1229.88 108.17L1225.44 108.765ZM1224.57 103.719L1223.85 99.5417L1228.28 98.9466L1229 103.124L1224.57 103.719ZM1223.69 98.6741L1222.97 94.4964L1227.4 93.9012L1228.13 98.0789L1223.69 98.6741ZM1222.82 93.6287L1222.1 89.451L1226.53 88.8558L1227.25 93.0335L1222.82 93.6287ZM1221.94 88.5769L1221.22 84.3992L1225.65 83.8041L1226.37 87.9818L1221.94 88.5769ZM1221.06 88.6963L1216.8 89.2661L1216.08 85.0884L1220.33 84.5186L1221.06 88.6963ZM1215.92 89.3855L1211.66 89.9553L1210.94 85.7776L1215.19 85.2078L1215.92 89.3855ZM1210.77 90.0747L1206.52 90.6445L1205.79 86.4668L1210.05 85.897L1210.77 90.0747ZM1205.63 90.7684L1201.37 91.3382L1200.65 87.1605L1204.9 86.5907L1205.63 90.7684ZM1200.49 91.4576L1196.23 92.0274L1195.51 87.8497L1199.76 87.2799L1200.49 91.4576ZM1195.35 92.1468L1191.09 92.7166L1190.37 88.5389L1194.62 87.9691L1195.35 92.1468ZM1190.21 92.836L1185.95 93.4058L1185.23 89.2281L1189.48 88.6583L1190.21 92.836ZM1185.06 93.5242L1180.8 94.094L1180.08 89.9163L1184.34 89.3465L1185.06 93.5242ZM1179.92 94.2134L1175.66 94.7832L1174.94 90.6055L1179.19 90.0357L1179.92 94.2134ZM1174.78 94.9026L1170.52 95.4724L1169.8 91.2947L1174.05 90.725L1174.78 94.9026ZM1169.64 95.5919L1165.38 96.1616L1164.66 91.984L1168.91 91.4142L1169.64 95.5919ZM1164.5 96.2811L1160.24 96.8509L1159.52 92.6732L1163.77 92.1034L1164.5 96.2811ZM1164.65 97.1542L1165.37 101.332L1161.11 101.902L1160.39 97.7239L1164.65 97.1542ZM1165.52 102.2L1166.25 106.377L1161.99 106.947L1161.26 102.769L1165.52 102.2ZM1166.4 107.245L1167.12 111.423L1162.86 111.992L1162.14 107.815L1166.4 107.245ZM1167.27 112.29L1167.99 116.468L1163.74 117.038L1163.01 112.86L1167.27 112.29ZM1168.15 117.341L1168.87 121.519L1164.61 122.089L1163.89 117.911L1168.15 117.341ZM1169.02 122.386L1169.74 126.564L1165.49 127.134L1164.76 122.956L1169.02 122.386ZM1169.9 127.432L1170.62 131.61L1166.36 132.179L1165.64 128.002L1169.9 127.432ZM1170.77 132.477L1171.49 136.655L1167.24 137.225L1166.51 133.047L1170.77 132.477ZM1171.64 137.528L1172.37 141.706L1168.11 142.276L1167.39 138.098L1171.64 137.528ZM1172.53 137.41L1176.79 136.84L1177.51 141.018L1173.26 141.587L1172.53 137.41ZM1177.68 136.715L1181.93 136.145L1182.66 140.323L1178.4 140.893L1177.68 136.715ZM1182.82 136.026L1187.07 135.456L1187.8 139.634L1183.54 140.203L1182.82 136.026ZM1187.96 135.337L1192.21 134.767L1192.94 138.945L1188.68 139.514L1187.96 135.337ZM1193.1 134.648L1197.36 134.079L1198.08 138.256L1193.83 138.826L1193.1 134.648ZM1198.24 133.959L1202.5 133.389L1203.22 137.567L1198.97 138.137L1198.24 133.959ZM1203.38 133.27L1207.64 132.7L1208.37 136.878L1204.11 137.448L1203.38 133.27ZM1208.53 132.581L1212.78 132.011L1213.51 136.189L1209.25 136.758L1208.53 132.581ZM1213.67 131.892L1217.92 131.322L1218.65 135.499L1214.39 136.069L1213.67 131.892ZM1218.81 131.203L1223.07 130.633L1223.79 134.811L1219.54 135.381L1218.81 131.203ZM1223.95 130.514L1228.21 129.944L1228.93 134.122L1224.68 134.692L1223.95 130.514ZM1229.09 129.825L1233.53 129.23L1234.25 133.407L1229.82 134.003L1229.09 129.825ZM1234.42 129.111L1238.85 128.516L1239.57 132.694L1235.14 133.289L1234.42 129.111ZM1234.26 128.238L1233.54 124.061L1237.97 123.465L1238.7 127.643L1234.26 128.238ZM1233.39 123.193L1232.67 119.015L1237.1 118.42L1237.82 122.598L1233.39 123.193ZM1232.51 118.147L1231.79 113.97L1236.22 113.375L1236.95 117.552L1232.51 118.147ZM1231.64 113.102L1230.92 108.924L1235.35 108.329L1236.07 112.507L1231.64 113.102ZM1230.77 108.051L1230.04 103.874L1234.47 103.278L1235.2 107.456L1230.77 108.051ZM1229.89 103.005L1229.16 98.8272L1233.59 98.2321L1234.32 102.41L1229.89 103.005ZM1229.01 97.9595L1228.29 93.7818L1232.72 93.1867L1233.44 97.3644L1229.01 97.9595ZM1228.14 92.9141L1227.41 88.7364L1231.84 88.1413L1232.57 92.319L1228.14 92.9141ZM1227.26 87.8633L1226.54 83.6856L1230.97 83.0905L1231.69 87.2682L1227.26 87.8633ZM1226.39 82.8179L1225.66 78.6402L1230.09 78.0451L1230.82 82.2228L1226.39 82.8179ZM1225.5 82.9373L1221.07 83.5325L1220.35 79.3548L1224.78 78.7596L1225.5 82.9373ZM1220.18 83.6509L1215.92 84.2207L1215.2 80.043L1219.46 79.4732L1220.18 83.6509ZM1215.04 84.3401L1210.78 84.9099L1210.06 80.7322L1214.32 80.1624L1215.04 84.3401ZM1209.89 85.0284L1205.64 85.5982L1204.91 81.4205L1209.17 80.8507L1209.89 85.0284ZM1204.75 85.7176L1200.5 86.2874L1199.77 82.1097L1204.03 81.5399L1204.75 85.7176ZM1199.61 86.4068L1195.36 86.9766L1194.63 82.7989L1198.89 82.2291L1199.61 86.4068ZM1194.47 87.1014L1190.21 87.6712L1189.49 83.4935L1193.75 82.9237L1194.47 87.1014ZM1189.33 87.7906L1185.07 88.3604L1184.35 84.1827L1188.61 83.6129L1189.33 87.7906ZM1184.18 88.4789L1179.93 89.0486L1179.2 84.8709L1183.46 84.3012L1184.18 88.4789ZM1179.04 89.1681L1174.79 89.7379L1174.06 85.5602L1178.32 84.9904L1179.04 89.1681ZM1173.9 89.8573L1169.65 90.4271L1168.92 86.2494L1173.18 85.6796L1173.9 89.8573ZM1168.76 90.5465L1164.51 91.1163L1163.78 86.9386L1168.04 86.3688L1168.76 90.5465ZM1163.62 91.2347L1159.36 91.8045L1158.64 87.6268L1162.89 87.057L1163.62 91.2347ZM1158.47 91.9239L1154.22 92.4937L1153.49 88.316L1157.75 87.7462L1158.47 91.9239ZM1158.63 92.797L1159.35 96.9747L1155.09 97.5445L1154.37 93.3668L1158.63 92.797ZM1159.5 97.8424L1160.22 102.02L1155.97 102.59L1155.24 98.4122L1159.5 97.8424ZM1160.38 102.888L1161.1 107.065L1156.84 107.635L1156.12 103.458L1160.38 102.888ZM1161.25 107.933L1161.97 112.111L1157.72 112.681L1156.99 108.503L1161.25 107.933ZM1162.13 112.98L1162.85 117.157L1158.6 117.727L1157.87 113.549L1162.13 112.98ZM1163 118.03L1163.73 122.208L1159.47 122.778L1158.75 118.6L1163 118.03ZM1163.88 123.076L1164.6 127.253L1160.35 127.823L1159.62 123.645L1163.88 123.076ZM1164.75 128.121L1165.48 132.299L1161.22 132.869L1160.5 128.691L1164.75 128.121ZM1165.63 133.166L1166.35 137.344L1162.1 137.914L1161.37 133.736L1165.63 133.166ZM1166.5 138.217L1167.23 142.395L1162.97 142.965L1162.25 138.787L1166.5 138.217ZM1167.38 143.263L1168.1 147.44L1163.85 148.01L1163.12 143.832L1167.38 143.263ZM1168.26 143.143L1172.52 142.573L1173.24 146.751L1168.99 147.321L1168.26 143.143ZM1173.41 142.455L1177.67 141.885L1178.39 146.063L1174.13 146.633L1173.41 142.455ZM1178.55 141.766L1182.81 141.196L1183.53 145.374L1179.27 145.943L1178.55 141.766ZM1183.69 141.077L1187.95 140.507L1188.67 144.684L1184.41 145.254L1183.69 141.077ZM1188.83 140.387L1193.09 139.818L1193.81 143.995L1189.55 144.565L1188.83 140.387ZM1193.98 139.694L1198.24 139.124L1198.96 143.302L1194.7 143.871L1193.98 139.694ZM1199.12 139.005L1203.38 138.435L1204.1 142.612L1199.84 143.182L1199.12 139.005ZM1204.26 138.315L1208.52 137.746L1209.24 141.923L1204.98 142.493L1204.26 138.315ZM1209.4 137.626L1213.66 137.056L1214.38 141.234L1210.12 141.804L1209.4 137.626ZM1214.55 136.938L1218.8 136.368L1219.53 140.546L1215.27 141.116L1214.55 136.938ZM1219.69 136.249L1223.94 135.679L1224.67 139.857L1220.41 140.426L1219.69 136.249ZM1224.83 135.559L1229.09 134.99L1229.81 139.167L1225.55 139.737L1224.83 135.559ZM1229.97 134.87L1234.4 134.275L1235.12 138.453L1230.69 139.048L1229.97 134.87ZM1235.29 134.157L1239.72 133.562L1240.45 137.739L1236.01 138.334L1235.29 134.157ZM1240.61 133.443L1245.04 132.848L1245.77 137.026L1241.33 137.621L1240.61 133.443ZM1240.46 132.575L1239.74 128.398L1244.17 127.803L1244.89 131.98L1240.46 132.575ZM1239.59 127.525L1238.86 123.347L1243.29 122.752L1244.02 126.929L1239.59 127.525ZM1238.71 122.479L1237.99 118.302L1242.42 117.706L1243.14 121.884L1238.71 122.479ZM1237.83 117.433L1237.11 113.255L1241.54 112.66L1242.26 116.838L1237.83 117.433ZM1236.96 112.387L1236.23 108.21L1240.66 107.615L1241.39 111.792L1236.96 112.387ZM1236.08 107.337L1235.36 103.159L1239.79 102.564L1240.51 106.742L1236.08 107.337ZM1235.21 102.291L1234.48 98.1136L1238.91 97.5185L1239.64 101.696L1235.21 102.291ZM1234.33 97.2459L1233.61 93.0682L1238.04 92.4731L1238.76 96.6508L1234.33 97.2459ZM1233.46 92.2005L1232.73 88.0228L1237.16 87.4277L1237.89 91.6054L1233.46 92.2005ZM1232.58 87.1551L1231.86 82.9774L1236.29 82.3823L1237.01 86.56L1232.58 87.1551ZM1231.71 82.1043L1230.98 77.9266L1235.42 77.3315L1236.14 81.5092L1231.71 82.1043ZM1229.22 72.9997L1229.94 77.1774L1225.51 77.7725L1224.79 73.5948L1229.22 72.9997ZM1223.9 73.7133L1224.62 77.891L1220.19 78.4861L1219.47 74.3084L1223.9 73.7133ZM1218.58 74.4278L1219.31 78.6055L1215.05 79.1753L1214.33 74.9976L1218.58 74.4278ZM1213.44 75.1171L1214.17 79.2948L1209.91 79.8645L1209.19 75.6868L1213.44 75.1171ZM1208.3 75.8053L1209.02 79.983L1204.76 80.5528L1204.04 76.3751L1208.3 75.8053ZM1203.15 76.4945L1203.88 80.6722L1199.62 81.242L1198.9 77.0643L1203.15 76.4945ZM1198.01 77.1837L1198.74 81.3614L1194.48 81.9312L1193.76 77.7535L1198.01 77.1837ZM1192.87 77.8783L1193.6 82.056L1189.34 82.6258L1188.62 78.4481L1192.87 77.8783ZM1187.73 78.5666L1188.45 82.7443L1184.19 83.3141L1183.47 79.1364L1187.73 78.5666ZM1182.59 79.2558L1183.31 83.4335L1179.05 84.0033L1178.33 79.8256L1182.59 79.2558ZM1177.44 79.945L1178.17 84.1227L1173.91 84.6925L1173.19 80.5148L1177.44 79.945ZM1172.3 80.6342L1173.03 84.8119L1168.77 85.3817L1168.05 81.204L1172.3 80.6342ZM1167.16 81.3224L1167.88 85.5001L1163.62 86.0699L1162.9 81.8922L1167.16 81.3224ZM1162.02 82.0116L1162.74 86.1893L1158.48 86.7591L1157.76 82.5814L1162.02 82.0116ZM1156.88 82.7008L1157.6 86.8785L1153.34 87.4483L1152.62 83.2706L1156.88 82.7008ZM1147.48 83.9598L1151.74 83.39L1152.46 87.5677L1148.2 88.1375L1147.48 83.9598ZM1148.35 89.0106L1152.61 88.4408L1153.33 92.6185L1149.08 93.1883L1148.35 89.0106ZM1149.23 94.056L1153.48 93.4862L1154.21 97.6639L1149.95 98.2337L1149.23 94.056ZM1150.1 99.1014L1154.36 98.5316L1155.08 102.709L1150.83 103.279L1150.1 99.1014ZM1150.98 104.147L1155.23 103.577L1155.96 107.755L1151.7 108.324L1150.98 104.147ZM1151.85 109.192L1156.11 108.622L1156.83 112.8L1152.58 113.37L1151.85 109.192ZM1152.73 114.244L1156.99 113.674L1157.71 117.852L1153.46 118.422L1152.73 114.244ZM1153.61 119.289L1157.86 118.72L1158.59 122.897L1154.33 123.467L1153.61 119.289ZM1154.48 124.335L1158.74 123.765L1159.46 127.943L1155.21 128.512L1154.48 124.335ZM1155.36 129.38L1159.61 128.81L1160.34 132.988L1156.08 133.558L1155.36 129.38ZM1156.23 134.431L1160.49 133.861L1161.21 138.039L1156.95 138.609L1156.23 134.431ZM1157.11 139.476L1161.36 138.906L1162.09 143.084L1157.83 143.654L1157.11 139.476ZM1157.98 144.522L1162.24 143.952L1162.96 148.13L1158.7 148.699L1157.98 144.522ZM1159.58 153.745L1158.86 149.567L1163.11 148.997L1163.84 153.175L1159.58 153.745ZM1164.72 153.056L1164 148.878L1168.25 148.308L1168.98 152.486L1164.72 153.056ZM1169.87 152.367L1169.14 148.19L1173.4 147.62L1174.12 151.797L1169.87 152.367ZM1175.01 151.678L1174.28 147.5L1178.54 146.931L1179.26 151.108L1175.01 151.678ZM1180.15 150.989L1179.42 146.811L1183.68 146.241L1184.4 150.419L1180.15 150.989ZM1185.29 150.3L1184.57 146.122L1188.82 145.552L1189.55 149.73L1185.29 150.3ZM1190.44 149.611L1189.71 145.434L1193.97 144.864L1194.69 149.042L1190.44 149.611ZM1195.58 148.917L1194.85 144.739L1199.11 144.169L1199.83 148.347L1195.58 148.917ZM1200.72 148.228L1199.99 144.05L1204.25 143.48L1204.97 147.658L1200.72 148.228ZM1205.86 147.538L1205.13 143.361L1209.39 142.791L1210.12 146.969L1205.86 147.538ZM1211 146.85L1210.28 142.672L1214.54 142.103L1215.26 146.28L1211 146.85ZM1216.15 146.161L1215.42 141.983L1219.68 141.413L1220.4 145.591L1216.15 146.161ZM1221.29 145.472L1220.56 141.294L1224.82 140.724L1225.54 144.902L1221.29 145.472ZM1226.43 144.783L1225.7 140.605L1229.96 140.035L1230.68 144.213L1226.43 144.783ZM1231.57 144.093L1230.84 139.916L1235.28 139.321L1236 143.498L1231.57 144.093ZM1236.89 143.38L1236.17 139.202L1240.6 138.607L1241.32 142.785L1236.89 143.38ZM1242.21 142.666L1241.49 138.488L1245.92 137.893L1246.64 142.071L1242.21 142.666Z" fill="#20673E"/>
</g>
<g clip-path="url(#clip4_1032_7159)">
<path d="M1365.79 157.753C1324.76 136.868 1297.38 91.5735 1297.98 45.53C1298.12 34.9703 1301.01 22.5088 1310.83 18.6393C1318.87 15.4745 1328.54 20.1866 1332.8 27.7074C1337.05 35.2283 1336.68 44.6643 1333.92 52.8518C1324.52 80.6704 1285.77 93.3938 1261.71 76.5607C1237.64 59.7275 1236.28 18.9764 1259.18 0.579604C1263.09 -2.55892 1268.53 -5.12882 1272.96 -2.78774C1278.01 -0.12704 1278.36 7.02745 1276.85 12.5356C1270.62 35.2918 1242.44 48.6519 1220.4 40.1852C1198.37 31.7316 1186.26 4.28662 1193.66 -18.1374C1198.45 -32.6532 1217.42 -44.9471 1228.43 -34.3292C1237.85 -25.2334 1231.7 -9.35032 1224.16 1.36133C1203.44 30.8359 1172.89 56.3516 1136.96 59.0461C1101.03 61.7405 1062.19 33.5371 1063.7 -2.46585" stroke="white" stroke-width="2" stroke-miterlimit="10"/>
</g>
<circle cx="1288.5" cy="165.5" r="10.5" stroke="white" stroke-width="2"/>
<path d="M1413.57 188.585C1393.08 187.08 1376.47 178.061 1367.14 167.188C1348.67 145.664 1352.08 112.283 1374.92 91.198C1375.61 90.5612 1376.3 89.9475 1377.02 89.3338C1367.39 82.9193 1359.85 74.0154 1356.03 64.2199C1352.12 54.216 1352.25 43.5984 1356.4 34.3008C1361.15 23.6601 1370.66 15.1383 1384.67 8.9553C1407.81 -1.25701 1436.3 -2.40329 1460.87 5.86382L1449.09 41.3753C1433.27 36.0492 1414.3 36.7671 1399.59 43.2511C1393.04 46.1457 1390.68 48.8551 1390.32 49.654C1390.31 51.2634 1394.08 57.1106 1401.61 60.3179C1413.67 65.4472 1429.85 65.0883 1444.12 64.7641L1446.57 102.082C1425.44 104.432 1409.35 110.21 1400.05 118.801C1393.12 125.204 1389.44 135.903 1395.28 142.723C1401.91 150.457 1418.58 153.444 1433.22 149.531C1449.26 145.235 1462.83 134.803 1476.46 123.56L1500 152.53C1483.75 165.915 1465.95 179.496 1442.76 185.702C1432.47 188.447 1422.64 189.245 1413.57 188.585Z" fill="#1A66EA"/>
<mask id="mask3_1032_7159" style="mask-type:luminance" maskUnits="userSpaceOnUse" x="1353" y="0" width="147" height="189">
<path d="M1413.57 188.585C1393.08 187.08 1376.47 178.061 1367.14 167.188C1348.67 145.664 1352.08 112.283 1374.92 91.198C1375.61 90.5612 1376.3 89.9475 1377.02 89.3338C1367.39 82.9193 1359.85 74.0154 1356.03 64.2199C1352.12 54.216 1352.25 43.5984 1356.4 34.3008C1361.15 23.6601 1370.66 15.1383 1384.67 8.9553C1407.81 -1.25701 1436.3 -2.40329 1460.87 5.86382L1449.09 41.3753C1433.27 36.0492 1414.3 36.7671 1399.59 43.2511C1393.04 46.1457 1390.68 48.8551 1390.32 49.654C1390.31 51.2634 1394.08 57.1106 1401.61 60.3179C1413.67 65.4472 1429.85 65.0883 1444.12 64.7641L1446.57 102.082C1425.44 104.432 1409.35 110.21 1400.05 118.801C1393.12 125.204 1389.44 135.903 1395.28 142.723C1401.91 150.457 1418.58 153.444 1433.22 149.531C1449.26 145.235 1462.83 134.803 1476.46 123.56L1500 152.53C1483.75 165.915 1465.95 179.496 1442.76 185.702C1432.47 188.447 1422.64 189.245 1413.57 188.585Z" fill="white"/>
</mask>
<g mask="url(#mask3_1032_7159)">
<path d="M1466.92 139.261C1464.74 141.09 1461.08 140.974 1458.83 142.422C1456.56 143.811 1454.63 145.664 1452.38 146.914C1450.06 148.257 1447.55 149.126 1445.21 150.133C1442.88 151.094 1440.93 152.854 1438.56 153.549C1437.38 153.931 1436.13 154 1434.91 154.116C1433.69 154.128 1432.45 154.278 1431.38 154.371C1430.84 154.44 1430.3 154.544 1429.77 154.66C1429.23 154.741 1428.69 154.822 1428.15 154.927C1427.08 155.158 1425.98 155.204 1424.89 155.285C1422.7 155.262 1420.53 155.494 1418.39 155.239C1416.23 155.065 1414.31 153.769 1412.37 153.421C1410.23 152.97 1408.01 152.958 1406.03 152.252C1404.39 151.534 1403.16 150.318 1400.95 150.7C1400.75 150.735 1400.36 151.43 1400.55 151.43C1401.55 151.418 1402.24 151.881 1402.83 152.588C1403.41 153.306 1404.09 154.058 1404.83 154.614C1406.55 155.598 1408.65 155.633 1410.61 156.084C1412.62 156.663 1414.71 157.497 1416.93 157.96C1419.17 158.273 1421.46 158.145 1423.76 158.076C1426.07 158.099 1428.39 157.983 1430.73 157.752C1431.89 157.566 1433.04 157.566 1434.29 157.358L1436.15 157.115L1438.02 156.721C1439.26 156.478 1440.48 156.073 1441.73 155.772C1442.96 155.378 1444.23 155.008 1445.44 154.521C1447.92 153.572 1449.92 151.661 1452.09 150.121C1454.52 148.361 1456.55 146.069 1458.86 144.101C1461.17 142.167 1465.22 142.097 1467.15 139.469C1467.28 139.284 1467.09 139.133 1466.92 139.261Z" fill="#4885EE"/>
<path d="M1467.48 139.596C1465.17 140.708 1463.74 142.734 1461.8 144.228C1460.68 145.143 1459.39 145.803 1458.16 146.532C1456.88 147.18 1455.66 147.898 1454.51 148.686C1452.27 150.318 1450.54 152.761 1448.08 154.023C1445.58 155.216 1442.58 155.181 1440.17 156.084C1438.94 156.617 1437.75 157.161 1436.57 157.798C1435.97 158.099 1435.37 158.354 1434.76 158.62C1434.15 158.886 1433.53 159.13 1432.93 159.268C1432.32 159.419 1431.69 159.535 1431.07 159.627C1430.44 159.697 1429.79 159.708 1429.16 159.743C1427.9 159.847 1426.62 159.755 1425.39 159.975C1422.93 160.218 1420.44 161.434 1417.88 161.306C1416.61 161.329 1415.38 160.947 1414.16 160.669L1412.36 160.137L1410.58 159.697C1407.88 159.199 1405.37 158.273 1402.92 157.358C1400.46 156.466 1398.02 155.575 1395.8 154.232C1395.65 154.139 1395.32 154.556 1395.47 154.66C1396.37 155.366 1397.35 156.003 1398.21 156.814L1399.66 157.844L1400.41 158.342C1400.67 158.493 1400.95 158.608 1401.22 158.736C1401.77 158.979 1402.34 159.211 1402.9 159.419L1404.68 159.882L1405.57 160.125L1406.48 160.311C1407.08 160.438 1407.67 160.6 1408.25 160.797C1410.64 161.41 1413.05 162.186 1415.62 162.453C1416.87 162.684 1418.17 162.754 1419.46 162.95C1420.76 163.02 1422.07 163.17 1423.38 163.089C1424.02 163.055 1424.68 162.974 1425.31 162.858C1425.95 162.73 1426.58 162.522 1427.21 162.337C1428.47 162.001 1429.67 161.503 1430.93 161.283C1432.19 161.005 1433.43 160.843 1434.74 160.612C1436.05 160.345 1437.38 160.114 1438.65 159.639C1441.21 158.771 1443.68 157.59 1446.17 156.385C1448.64 155.135 1450.77 153.271 1452.96 151.499C1455.37 149.531 1458.01 147.91 1460.57 146.011C1463.06 144.216 1465.21 141.808 1468.09 140.384C1468.4 140.256 1467.82 139.446 1467.48 139.596Z" fill="#4885EE"/>
<path d="M1482.6 139.851C1480.52 141.796 1478.84 144.158 1476.64 145.965C1474.42 147.748 1472.45 149.832 1470.15 151.488C1467.84 153.132 1465.56 154.788 1463.2 156.316C1460.85 157.891 1458.03 158.666 1455.65 160.067C1454.45 160.739 1453.19 161.341 1451.94 161.908C1450.66 162.429 1449.43 163.031 1448.18 163.587C1446.95 164.166 1445.75 164.838 1444.52 165.417C1443.32 166.054 1442.07 166.621 1440.8 167.084C1439.54 167.593 1438.28 168.08 1437.04 168.659C1435.79 169.203 1434.52 169.654 1433.21 170.037C1430.57 170.65 1427.84 170.72 1425.17 171.044C1424.51 171.125 1423.84 171.229 1423.17 171.356L1421.16 171.634C1419.81 171.866 1418.45 171.97 1417.09 172.016C1415.72 172.109 1414.35 172.086 1412.96 172.19C1411.58 172.236 1410.19 172.19 1408.8 172.086C1406.04 171.727 1403.43 170.673 1400.77 169.874C1400.11 169.678 1399.45 169.458 1398.79 169.226L1396.89 168.369C1395.6 167.825 1394.43 167.096 1393.17 166.482C1392.93 166.366 1392.27 167.489 1392.52 167.628C1393.78 168.3 1395.01 169.029 1396.35 169.585L1398.3 170.465L1400.31 171.194C1402.99 172.179 1405.76 172.862 1408.55 173.441C1409.95 173.649 1411.38 173.8 1412.79 173.846C1414.22 173.846 1415.62 173.95 1417.03 173.95C1418.45 173.996 1419.86 173.857 1421.25 173.603L1423.33 173.279C1424.02 173.151 1424.71 173.047 1425.4 172.978C1428.17 172.746 1430.99 172.63 1433.73 172.04C1435.07 171.669 1436.51 171.623 1437.95 171.461C1439.36 171.275 1440.83 171.148 1442.15 170.615C1443.5 170.118 1444.78 169.446 1446.01 168.705C1447.26 168.01 1448.47 167.235 1449.75 166.632C1451.05 166.054 1452.2 165.185 1453.39 164.398C1454.55 163.564 1455.69 162.719 1456.91 162.001C1459.32 160.531 1461.94 159.326 1464.24 157.647C1466.56 156.003 1468.93 154.394 1471.11 152.541C1473.27 150.677 1475.5 148.882 1477.56 146.891C1479.61 144.888 1480.9 142.155 1482.88 140.117C1483.08 139.944 1482.78 139.677 1482.6 139.851Z" fill="#4885EE"/>
<path d="M1378.12 175.351C1378.64 176.138 1379.3 176.81 1380.05 177.366C1380.8 177.887 1381.65 178.315 1382.51 178.709C1384.21 179.543 1386.05 179.994 1387.6 180.839C1388.5 181.349 1389.43 181.754 1390.35 182.183C1391.27 182.599 1392.19 183.039 1393.12 183.421C1394.99 184.116 1396.84 184.915 1398.74 185.471C1402.84 186.872 1407.06 187.462 1411.22 188.041C1415.35 188.585 1419.46 189.848 1423.72 190.044C1428.01 190.137 1432.21 189.072 1436.4 188.365C1437.45 188.238 1438.5 187.972 1439.53 187.706C1440.56 187.428 1441.64 187.173 1442.6 186.837C1444.57 186.177 1446.52 185.506 1448.46 184.788C1450.42 184.139 1452.4 183.618 1454.44 183.109C1456.4 182.53 1458.44 181.951 1460.2 180.932C1463.77 178.975 1467.15 176.764 1470.3 174.332C1472.66 172.491 1474.33 169.874 1476.4 167.86C1478.49 165.845 1480.06 163.344 1481.96 161.26C1482.93 160.23 1484.05 159.373 1485.17 158.516C1486.31 157.671 1487.42 156.802 1488.35 155.772C1488.42 155.691 1487.89 155.193 1487.84 155.262C1485.43 158.018 1482.65 160.473 1479.88 162.974C1477.12 165.463 1474.84 168.693 1471.81 171.055C1468.76 173.336 1465.37 175.154 1462.01 177.065C1458.64 178.975 1454.91 180.237 1451.23 181.592C1449.4 182.321 1447.49 182.912 1445.62 183.549C1444.66 183.838 1443.71 184.105 1442.75 184.371L1441.32 184.765L1439.82 185.1C1435.83 186.061 1431.73 186.027 1427.75 186.362C1423.76 186.606 1419.74 187.219 1415.68 186.907C1411.63 186.548 1407.64 185.749 1403.64 184.776C1399.38 183.792 1394.93 183.109 1390.69 181.279C1389.69 180.874 1388.67 180.48 1387.67 179.983C1386.67 179.508 1385.64 179.045 1384.67 178.501C1382.75 177.32 1380.86 176.069 1379.45 174.251C1379.08 173.8 1377.79 174.842 1378.12 175.351Z" fill="#4885EE"/>
<path d="M1481.37 137.941C1479.11 140.21 1476.3 141.901 1473.92 143.962C1471.49 145.988 1468.49 147.296 1465.92 149.045C1464.67 149.959 1463.33 150.747 1462.05 151.58C1460.71 152.344 1459.4 153.143 1458.03 153.815C1455.41 155.216 1453.3 157.462 1450.57 158.632C1447.81 159.708 1444.7 159.824 1442.01 160.6C1440.67 161.052 1439.29 161.318 1437.95 161.677C1436.59 161.943 1435.22 162.29 1433.92 162.545C1433.28 162.673 1432.66 162.893 1432.04 163.147C1431.42 163.402 1430.8 163.645 1430.17 163.923C1428.93 164.514 1427.63 164.977 1426.3 165.208C1423.61 165.567 1420.88 165 1418.24 165.081C1415.57 165.255 1412.87 165.509 1410.17 165.324C1409.5 165.231 1408.84 165.162 1408.16 165.092L1407.14 165L1406.14 164.826L1404.14 164.456C1403.5 164.282 1402.86 164.074 1402.22 163.842C1400.94 163.437 1399.89 162.51 1398.81 161.746C1398.3 161.306 1397.81 160.855 1397.29 160.461C1396.77 160.067 1396.26 159.697 1395.74 159.326C1395.21 158.979 1394.64 158.701 1394.01 158.446C1393.43 158.168 1392.84 157.891 1392.21 157.636C1390.93 157.161 1389.79 156.466 1388.71 155.668C1388.48 155.494 1388.65 155.309 1388.85 155.517C1389.82 156.42 1390.59 157.509 1391.58 158.412C1392.05 158.886 1392.5 159.384 1392.99 159.859L1394.54 161.179C1395.05 161.63 1395.61 162.024 1396.18 162.406C1396.74 162.788 1397.3 163.205 1397.88 163.576C1399.09 164.236 1400.25 165.046 1401.53 165.614C1402.17 165.926 1402.8 166.239 1403.44 166.517L1405.44 167.235L1406.46 167.582L1407.49 167.848L1409.57 168.381C1412.39 168.913 1415.27 168.879 1418.13 168.856C1419.55 168.925 1420.98 168.937 1422.43 169.029C1423.86 169.052 1425.31 169.064 1426.75 168.89C1428.17 168.67 1429.61 168.531 1431.03 168.242C1431.74 168.115 1432.45 168.022 1433.16 167.871L1435.29 167.42C1436.74 167.13 1438.23 166.91 1439.78 166.748C1441.28 166.505 1442.86 166.343 1444.32 165.857C1447.28 165.011 1450.2 163.935 1453.15 162.788C1456.06 161.573 1458.65 159.732 1461.44 158.192C1464.23 156.663 1466.75 154.683 1469.31 152.796C1471.91 150.932 1474.69 149.23 1477 146.995C1479.28 144.726 1481.68 142.549 1483.56 139.909C1484.52 138.635 1482.51 136.818 1481.37 137.941Z" fill="#4885EE"/>
<path d="M1469.97 157.103C1466.75 158.354 1463.94 160.392 1461.06 162.267C1458.15 164.074 1455.34 166.123 1452.35 167.628C1449.28 169.18 1445.93 170.048 1442.72 171.16C1441.13 171.773 1439.5 172.26 1437.89 172.792C1437.07 173.024 1436.25 173.221 1435.42 173.429L1434.18 173.719L1432.91 173.915C1429.62 174.506 1426.31 175.293 1422.94 175.224C1421.26 175.096 1419.6 174.795 1417.98 174.286L1415.56 173.603C1414.77 173.36 1413.98 173.14 1413.17 172.989C1409.82 172.271 1406.23 172.445 1402.91 171.299C1399.65 170.21 1396.08 169.4 1393.36 167.13C1392.84 166.725 1391.83 167.871 1392.37 168.346C1393.03 168.925 1393.72 169.469 1394.44 169.979C1395.19 170.43 1395.96 170.859 1396.73 171.264C1397.5 171.692 1398.3 172.028 1399.12 172.364C1399.94 172.688 1400.72 173.082 1401.53 173.394C1404.78 174.714 1408.13 175.71 1411.55 176.671C1414.9 177.516 1418.36 177.864 1421.83 178.176C1423.56 178.419 1425.31 178.57 1427.11 178.79C1427.99 178.871 1428.89 178.906 1429.78 178.929C1430.68 178.964 1431.58 178.964 1432.48 178.848C1433.38 178.755 1434.29 178.593 1435.19 178.385C1436.07 178.142 1436.95 177.84 1437.82 177.551C1438.7 177.273 1439.55 176.937 1440.39 176.602C1441.22 176.277 1442.09 175.988 1442.94 175.722C1446.36 174.622 1449.77 173.417 1453 171.843C1456.31 170.199 1460.3 169.527 1463.61 167.605C1466.92 165.683 1469.43 162.684 1472.03 160.079C1473 159.118 1471.29 156.605 1469.97 157.103Z" fill="#4885EE"/>
<path d="M1497.14 159.801C1494.4 161.283 1492.23 163.599 1489.66 165.637C1488.42 166.621 1487.01 167.443 1485.64 168.3C1484.23 169.133 1482.86 170.002 1481.59 171.021C1479.03 173.093 1476.79 175.652 1474.03 177.412C1471.03 179.392 1467.28 180.191 1464.05 181.789C1460.77 183.34 1457.92 185.98 1454.35 187.208L1451.7 188.111L1448.98 188.91C1447.2 189.465 1445.33 189.871 1443.51 190.345C1441.67 190.774 1439.73 191.167 1437.84 191.515C1435.94 191.781 1434.04 192.14 1432.12 192.267L1429.27 192.534C1428.31 192.626 1427.36 192.65 1426.4 192.707C1424.49 192.846 1422.57 192.835 1420.67 192.8C1418.76 192.788 1416.85 192.21 1414.99 191.735C1413.11 191.156 1411.28 190.589 1409.41 190.288C1407.54 189.94 1405.65 189.674 1403.78 189.188L1400.97 188.528L1398.18 187.705C1396.3 187.208 1394.45 186.467 1392.6 185.807C1390.75 185.089 1388.91 184.267 1387.08 183.456L1384.36 182.078L1382.99 181.384L1381.63 180.573L1378.95 178.987C1378.08 178.419 1377.22 177.817 1376.35 177.227C1375.37 176.544 1373.85 178.431 1374.86 179.218C1378.55 182.217 1382.92 183.919 1386.86 186.003C1388.88 186.964 1390.86 188.018 1392.9 188.829C1393.91 189.245 1394.93 189.709 1395.96 190.068C1396.98 190.426 1398.02 190.774 1399.05 191.098C1400.09 191.457 1401.12 191.723 1402.15 192.047C1403.19 192.349 1404.22 192.696 1405.26 192.974C1407.33 193.483 1409.43 194.074 1411.54 194.317C1415.79 194.977 1420.03 194.178 1424.2 194.236C1428.34 194.143 1432.7 195.486 1436.98 194.792C1439.11 194.525 1441.22 194.039 1443.35 193.611C1445.41 193.124 1447.41 192.626 1449.4 192.036C1453.4 190.866 1457 188.817 1460.71 187.254C1464.4 185.668 1468.31 184.475 1471.77 182.541C1475.27 180.643 1478.4 178.327 1481.6 176.196C1484.78 174.031 1487.17 170.917 1490.05 168.612C1492.98 166.308 1495.72 163.888 1498.4 161.445C1499.78 160.195 1498.51 159.048 1497.14 159.801Z" fill="#4885EE"/>
<path d="M1464.71 126.721C1461.91 128.956 1458.75 130.982 1456 132.997C1453.19 135.069 1451.17 137.906 1448.42 139.851C1446.41 141.287 1443.78 141.542 1441.82 142.688C1439.86 143.788 1438.13 145.339 1436.14 146.162C1434.17 147.053 1431.95 147.099 1430.06 147.644C1429.18 147.829 1428.37 148.257 1427.47 148.512C1427.04 148.662 1426.6 148.825 1426.15 148.952C1425.7 149.045 1425.24 149.137 1424.78 149.195C1423.86 149.346 1422.94 149.438 1422.04 149.658C1421.12 149.786 1420.18 149.948 1419.26 149.901C1418.34 149.832 1417.44 149.589 1416.6 149.207L1415.33 148.732C1414.93 148.558 1414.52 148.431 1414.1 148.373C1413.25 148.269 1412.51 147.921 1411.72 147.725C1411.35 147.563 1411 147.424 1410.63 147.296C1410.45 147.238 1410.26 147.18 1410.07 147.123L1409.55 146.926C1409.19 146.81 1408.81 146.775 1408.4 146.787C1408.01 146.775 1407.63 146.775 1407.2 146.798C1406.34 146.891 1405.59 146.81 1404.88 146.578C1403.6 145.965 1402.56 145.108 1401.43 144.425C1401.19 144.286 1400.32 145.177 1400.56 145.351C1401.68 146.254 1403.17 146.706 1404.43 147.47C1405.12 147.806 1405.7 148.338 1406.42 148.744C1407.07 149.23 1407.84 149.635 1408.62 149.971C1409 150.168 1409.47 150.202 1409.91 150.26C1410.36 150.295 1410.79 150.353 1411.26 150.341C1412.22 150.295 1413.09 150.353 1414.01 150.515C1415.78 150.99 1417.71 151.129 1419.64 151.349C1421.58 151.43 1423.63 152.148 1425.67 151.928C1426.69 151.893 1427.68 151.696 1428.69 151.58C1429.7 151.407 1430.65 151.21 1431.68 150.943C1432.7 150.631 1433.77 150.469 1434.83 150.156C1435.36 150.017 1435.9 149.89 1436.43 149.728C1436.96 149.542 1437.49 149.357 1438.01 149.149C1439.05 148.755 1440.07 148.222 1441.13 147.783C1442.17 147.25 1443.23 146.775 1444.25 146.173C1446.33 145.027 1448.07 143.244 1450.1 141.866C1453.08 139.84 1456.59 138.462 1459.76 136.285C1462.5 134.421 1464.67 131.41 1466.54 128.388C1467.66 126.582 1466.13 125.61 1464.71 126.721Z" fill="#4885EE"/>
<path d="M1484.96 153.352C1483.01 155.841 1480.39 157.624 1477.99 159.662C1475.57 161.677 1473.77 164.56 1471.03 166.297C1468.32 168.057 1464.79 168.543 1462.02 170.118C1459.17 171.692 1456.77 174.205 1453.69 175.536C1452.92 175.872 1452.15 176.173 1451.35 176.44C1450.55 176.683 1449.74 176.914 1448.93 177.146C1447.33 177.621 1445.66 177.945 1444.09 178.466C1442.48 178.929 1440.91 179.473 1439.3 179.971C1437.66 180.411 1436.03 180.932 1434.34 181.106C1433.53 181.21 1432.73 181.326 1431.93 181.453L1429.52 181.719C1427.92 181.928 1426.3 181.997 1424.68 182.02C1423.07 182.067 1421.45 181.743 1419.86 181.534C1418.26 181.245 1416.7 180.92 1415.11 180.747C1411.94 180.307 1408.93 179.091 1405.88 178.315C1405.11 178.118 1404.34 177.991 1403.55 177.852C1402.76 177.69 1401.98 177.539 1401.19 177.401C1399.59 177.169 1398.03 176.706 1396.5 176.208C1394.98 175.652 1393.5 174.946 1392 174.286L1389.81 173.163C1389.06 172.804 1388.32 172.445 1387.6 172.04C1386.13 171.264 1384.57 170.592 1383.08 169.747C1382.32 169.342 1381.54 168.96 1380.79 168.52C1380.06 168.057 1379.32 167.582 1378.6 167.096C1377.54 166.389 1376.38 167.663 1377.45 168.473C1378.21 169.041 1378.94 169.631 1379.68 170.222L1381.95 171.866C1383.43 173.024 1385.03 173.939 1386.59 174.923C1387.37 175.397 1388.16 175.837 1388.93 176.347C1389.7 176.833 1390.44 177.424 1391.22 177.875C1392.77 178.825 1394.32 179.867 1396.03 180.504C1396.87 180.839 1397.73 181.14 1398.61 181.36C1399.5 181.557 1400.4 181.719 1401.28 181.87L1402.6 182.113L1403.93 182.31C1404.8 182.449 1405.66 182.634 1406.51 182.877C1409.9 183.722 1413.3 185.054 1416.83 185.436C1417.71 185.54 1418.6 185.61 1419.48 185.645L1422.14 185.61C1423.91 185.61 1425.67 185.401 1427.44 185.39C1429.21 185.32 1430.99 185.378 1432.8 185.39C1434.59 185.32 1436.43 185.332 1438.19 184.892C1439.05 184.695 1439.89 184.452 1440.72 184.162C1441.55 183.873 1442.32 183.514 1443.11 183.167C1444.7 182.495 1446.21 181.719 1447.8 181.14C1449.4 180.585 1451 180.075 1452.65 179.635C1454.26 179.126 1455.9 178.616 1457.4 177.875C1460.41 176.37 1463.02 174.182 1465.85 172.549C1468.59 171.032 1471.72 170.106 1474.37 168.416C1475.69 167.57 1476.81 166.482 1477.91 165.382C1478.98 164.247 1480.04 163.113 1481.17 162.082C1483.42 160.033 1486.28 158.574 1487.93 155.957C1488.72 154.672 1485.87 152.206 1484.96 153.352Z" fill="#4885EE"/>
</g>
<mask id="mask4_1032_7159" style="mask-type:luminance" maskUnits="userSpaceOnUse" x="1353" y="0" width="147" height="189">
<path d="M1413.57 188.585C1393.08 187.08 1376.47 178.061 1367.14 167.188C1348.67 145.664 1352.08 112.283 1374.92 91.198C1375.61 90.5612 1376.3 89.9475 1377.02 89.3338C1367.39 82.9193 1359.85 74.0154 1356.03 64.2199C1352.12 54.216 1352.25 43.5984 1356.4 34.3008C1361.15 23.6601 1370.66 15.1383 1384.67 8.9553C1407.81 -1.25701 1436.3 -2.40329 1460.87 5.86382L1449.09 41.3753C1433.27 36.0492 1414.3 36.7671 1399.59 43.2511C1393.04 46.1457 1390.68 48.8551 1390.32 49.654C1390.31 51.2634 1394.08 57.1106 1401.61 60.3179C1413.67 65.4472 1429.85 65.0883 1444.12 64.7641L1446.57 102.082C1425.44 104.432 1409.35 110.21 1400.05 118.801C1393.12 125.204 1389.44 135.903 1395.28 142.723C1401.91 150.457 1418.58 153.444 1433.22 149.531C1449.26 145.235 1462.83 134.803 1476.46 123.56L1500 152.53C1483.75 165.915 1465.95 179.496 1442.76 185.702C1432.47 188.447 1422.64 189.245 1413.57 188.585Z" fill="white"/>
</mask>
<g mask="url(#mask4_1032_7159)">
<path d="M1445.8 7.63534C1444.09 7.1722 1442.53 6.09539 1440.9 5.12279C1439.27 4.18492 1437.6 3.11969 1435.81 2.78391C1432.25 2.03131 1428.59 2.03131 1424.98 1.81131C1424.04 1.75342 1423.1 1.67237 1422.16 1.59132L1419.33 1.4408C1418.39 1.39448 1417.43 1.32501 1416.49 1.32501C1415.55 1.33659 1414.59 1.34817 1413.64 1.3829C1409.82 1.53343 1406.17 2.94601 1402.43 3.58284C1400.56 3.91862 1398.65 4.16177 1396.7 4.38176C1394.79 4.69438 1392.84 4.99542 1390.98 5.58593C1387.24 6.80168 1383.75 8.56163 1380.12 10.2868C1376.48 12.0584 1372.95 14.4435 1369.37 17.2108C1367.58 18.6003 1365.67 20.0013 1363.8 21.5875C1361.92 23.1738 1360.09 25.0264 1358.58 27.1916C1357.73 28.3842 1356.98 29.6925 1356.28 31.0241C1355.94 31.7072 1355.61 32.3904 1355.3 33.0851C1354.99 33.7798 1354.68 34.6019 1354.38 35.3545C1353.24 38.4344 1352.49 41.549 1351.93 44.6984C1351.46 47.3846 1351.1 50.1635 1351.17 52.9887C1351.28 55.8138 1351.87 58.7085 1353.29 61.2905C1353.54 61.7305 1354.24 61.3137 1354.05 60.8737C1352.86 58.3843 1352.68 55.6517 1352.93 53.0813C1353.22 50.4993 1353.87 48.0446 1354.45 45.6594C1355.04 43.17 1355.58 40.6806 1356.39 38.1912C1356.76 36.9523 1357.28 35.7018 1357.77 34.5092C1358.28 33.3977 1358.82 32.2861 1359.46 31.2788C1362.12 26.96 1365.74 23.8106 1369.13 21.0433C1372.54 18.2645 1375.81 15.7172 1379.28 13.8415C1381.02 12.9152 1382.77 12.0699 1384.53 11.3868C1386.29 10.6689 1388.02 9.96264 1389.82 9.40686C1390.7 9.10582 1391.6 8.83951 1392.5 8.57321C1393.4 8.34163 1394.31 8.1448 1395.22 7.94796C1396.13 7.75113 1397.04 7.54271 1397.95 7.38061L1400.68 6.89431C1404.27 6.21117 1407.91 5.92171 1411.5 5.6554C1413.29 5.51646 1415.08 5.29647 1416.86 4.96069C1418.64 4.69438 1420.43 4.42807 1422.23 4.30071C1426.21 4.13861 1430.27 3.52494 1434.29 3.94177C1436.31 4.09229 1438.23 5.04174 1440.1 5.94487C1441.97 6.7901 1443.77 7.80902 1445.78 7.92481C1446.04 7.94796 1446.06 7.70481 1445.8 7.63534Z" fill="#4885EE"/>
<path d="M1445.88 8.29531C1444.48 7.57743 1442.98 7.18376 1441.46 6.8943C1439.95 6.66273 1438.41 6.53536 1436.88 6.2459C1435.07 5.96801 1433.28 5.5396 1431.46 5.14593C1429.64 4.84489 1427.82 4.47437 1425.97 4.48595C1424.11 4.50911 1422.27 4.74068 1420.45 5.16909C1418.62 5.5396 1416.82 5.89854 1415.01 6.06064C1414.1 6.13011 1413.18 6.10695 1412.25 6.07222C1411.33 6.06064 1410.39 6.0259 1409.44 5.99117C1407.56 5.87538 1405.67 5.94485 1403.84 6.32695C1401.97 6.6743 1400.19 7.43849 1398.41 8.09847C1396.63 8.82792 1394.9 9.63842 1393.12 10.2752C1391.36 11.0163 1389.49 11.5026 1387.69 12.1741C1385.88 12.8457 1384.06 13.4825 1382.34 14.4667C1378.89 16.4235 1376.05 19.5034 1372.85 22.2475C1369.65 24.98 1365.97 27.7589 1363.33 31.7998C1362.59 32.9345 1361.89 34.104 1361.26 35.3313L1360.78 36.246L1360.32 37.2533C1360.03 37.9249 1359.73 38.5965 1359.49 39.2912C1358.46 42.0237 1357.76 44.8373 1357.47 47.7204C1356.89 53.4749 1357.99 59.4726 1360.7 65.1114C1360.9 65.4935 1361.37 65.2504 1361.19 64.8683C1360.06 62.4136 1359.49 59.8316 1359.23 57.3075C1358.99 54.7833 1359.08 52.3402 1359.23 49.9319C1359.37 47.5235 1359.68 45.1499 1360.21 42.7879C1360.46 41.6069 1360.82 40.4375 1361.22 39.2796C1361.66 38.1449 1362.15 36.9523 1362.72 35.9797C1364.94 31.8809 1367.94 28.5115 1371.02 25.6632C1374.11 22.8033 1377.54 20.7307 1380.81 18.7855C1384.06 16.8519 1386.94 14.5014 1390.33 13.0309C1392.04 12.3478 1393.77 11.7341 1395.55 11.3173L1398.2 10.6226C1399.08 10.391 1399.97 10.2174 1400.84 9.96262C1401.73 9.73105 1402.59 9.47632 1403.48 9.25633L1406.13 8.66582C1407.89 8.23741 1409.68 7.99426 1411.47 7.7048C1413.25 7.40376 1415.03 7.1606 1416.8 6.79009C1418.58 6.46589 1420.38 6.19958 1422.19 5.96801C1426.19 5.63223 1430.2 5.89854 1434.16 6.54694C1437.96 7.0564 1442.03 7.46165 1445.49 9.24475C1445.89 9.43001 1446.28 8.5153 1445.88 8.29531Z" fill="#4885EE"/>
<path d="M1453.72 22.3864C1453.08 22.0622 1452.41 21.7844 1451.74 21.518C1451.07 21.2633 1450.36 21.0781 1449.69 20.8696C1449 20.6612 1448.31 20.4528 1447.63 20.2328C1446.94 20.0244 1446.25 19.8276 1445.58 19.5613C1444.9 19.3065 1444.22 19.075 1443.53 18.855C1442.84 18.6697 1442.13 18.5076 1441.43 18.3455L1439.33 17.8476C1438.61 17.7087 1437.91 17.5582 1437.21 17.3845L1435.1 16.8635L1432.96 16.4814C1432.24 16.3656 1431.53 16.2266 1430.81 16.1224L1428.64 15.8793C1427.92 15.8098 1427.2 15.6593 1426.47 15.5435L1424.29 15.173C1422.83 14.8835 1421.34 14.7098 1419.87 14.7562C1418.39 14.7562 1416.92 14.7909 1415.43 14.8488C1413.94 14.8604 1412.46 14.9993 1410.98 15.2309C1409.5 15.4161 1408.08 15.8445 1406.64 16.2498C1405.2 16.6203 1403.8 17.1413 1402.37 17.5466C1400.94 17.9171 1399.6 18.5771 1398.26 19.2023C1396.9 19.7928 1395.62 20.557 1394.27 21.136L1390.2 22.8727C1388.83 23.4285 1387.49 24.1001 1386.24 24.8874C1383.73 26.52 1381.54 28.6041 1379.4 30.6999C1377.24 32.7956 1375.64 35.4124 1374.15 37.9481C1373.39 39.2217 1372.62 40.4838 1371.92 41.7922C1371.25 43.1237 1370.64 44.5131 1370.36 45.9952C1369.8 48.9014 1369.35 51.8887 1369.82 54.8296C1369.87 55.1191 1371.17 54.9338 1371.12 54.6675C1370.74 51.9118 1371 49.0635 1371.7 46.3541C1372.03 44.9878 1372.55 43.6795 1373.13 42.3942C1373.75 41.1322 1374.46 39.9048 1375.26 38.7354C1376.86 36.4197 1378.5 34.0229 1380.68 32.1588C1382.82 30.2946 1384.77 28.0368 1387.26 26.5432C1388.51 25.8137 1389.82 25.1885 1391.15 24.6674C1392.48 24.1348 1393.8 23.5443 1395.12 23.0233C1396.44 22.4791 1397.84 22.1433 1399.29 21.9696C1400.73 21.7612 1402.12 21.5296 1403.49 21.1707C1404.84 20.777 1406.16 20.2097 1407.51 19.7697C1408.86 19.295 1410.21 18.8087 1411.63 18.6234C1413.03 18.4034 1414.41 18.0097 1415.82 17.7319C1417.23 17.4192 1418.64 17.1182 1420.08 17.095C1420.79 17.0719 1421.52 17.0719 1422.23 17.0835C1422.94 17.1066 1423.67 17.1877 1424.38 17.2456L1426.52 17.4192C1427.23 17.4887 1427.93 17.5813 1428.64 17.6276L1430.76 17.8129L1432.86 18.1371L1434.96 18.4613C1435.65 18.6002 1436.35 18.7276 1437.04 18.8434L1439.12 19.2139L1441.18 19.7349L1443.22 20.256L1445.25 20.8581C1445.93 21.0549 1446.63 21.1707 1447.33 21.2981C1448.02 21.437 1448.73 21.5528 1449.44 21.6686C1450.16 21.7959 1450.87 21.8886 1451.56 22.0738C1452.25 22.2707 1452.93 22.4907 1453.58 22.7801C1453.8 22.8612 1453.95 22.5022 1453.72 22.3864Z" fill="#4885EE"/>
<path d="M1385.94 54.3318C1386.39 53.996 1386.2 53.9034 1385.8 53.6834C1385.41 53.475 1384.92 53.0697 1384.85 52.6181C1384.82 52.074 1384.83 51.4834 1384.91 50.8814C1385.02 50.2909 1385.19 49.7119 1385.41 49.1793C1385.63 48.7162 1386.03 47.8825 1386.45 47.1878C1386.88 46.4583 1387.43 45.7057 1388.13 44.9994C1389.53 43.5521 1391.99 43.0427 1394.16 42.0701C1395.26 41.5722 1396.3 40.889 1397.42 40.2059C1398.56 39.5575 1399.72 38.8744 1400.97 38.446C1402.26 38.0754 1403.43 37.4734 1404.71 37.0565L1406.58 36.3618C1407.21 36.1534 1407.87 35.9913 1408.51 35.8176C1411.12 35.1461 1414.02 36.0145 1416.57 35.5282C1419.17 35.1576 1421.79 34.8334 1424.44 34.6134C1425.43 34.5208 1426.43 34.1619 1427.44 33.9187C1428.45 33.664 1429.48 33.2935 1430.5 33.2935C1431.52 33.2819 1432.57 33.0503 1433.61 32.923C1434.66 32.8072 1435.73 32.6567 1436.76 32.7146C1437.8 32.8072 1438.79 33.1661 1439.77 33.5366C1440.74 33.965 1441.68 34.4166 1442.69 34.6019C1442.76 34.6134 1442.96 33.9187 1442.89 33.8956C1440.2 33.3861 1437.57 32.6219 1434.83 32.2977C1432.09 31.8809 1429.27 32.8419 1426.59 32.7956C1425.25 32.8419 1423.92 32.7493 1422.59 32.703C1421.25 32.7261 1419.89 32.6104 1418.56 32.7956C1417.89 32.8651 1417.23 32.8998 1416.55 32.9114L1414.53 32.9924C1413.16 33.004 1411.81 33.1082 1410.47 33.3282C1409.1 33.4903 1407.8 33.884 1406.45 34.1619C1405.13 34.5092 1403.83 34.8913 1402.51 35.2734C1399.95 36.1071 1397.12 36.6397 1394.69 37.8439C1392.27 39.0365 1390.46 40.9006 1388.7 42.3479C1386.97 43.8068 1385.33 45.1731 1384.44 46.8173C1384.31 47.0257 1384.21 47.2573 1384.13 47.4773C1384.03 47.6972 1383.94 47.9288 1383.92 48.1141C1383.82 48.4962 1383.79 48.913 1383.76 49.3183C1383.71 50.1403 1383.82 50.974 1383.87 51.7266C1383.93 52.4329 1384.18 53.1044 1384.38 53.6139C1384.57 54.1349 1384.67 54.517 1384.39 55.0149C1384.33 55.1307 1385.79 54.4476 1385.94 54.3318Z" fill="#4885EE"/>
<path d="M1455.09 20.557C1453.56 19.8508 1452.09 18.9824 1450.56 18.2413C1449.8 17.8592 1449.04 17.454 1448.26 17.0951C1447.48 16.7709 1446.68 16.4582 1445.88 16.1803C1442.67 15.0688 1439.54 13.3552 1436.14 12.5447C1434.45 12.1857 1432.74 11.85 1431.02 11.5142C1429.3 11.271 1427.58 10.9121 1425.83 10.7153C1424.11 10.53 1422.38 10.5763 1420.65 10.831C1419.79 10.9352 1418.93 11.0395 1418.07 11.1089C1417.2 11.19 1416.35 11.2826 1415.49 11.2826C1414.63 11.2942 1413.75 11.2131 1412.88 11.1552L1410.24 10.9816C1408.45 10.8195 1406.67 10.8426 1404.91 11.0742C1403.15 11.2942 1401.42 11.6879 1399.65 12.0121C1397.9 12.3941 1396.16 12.8804 1394.45 13.4015C1392.78 14.0267 1391.22 14.9183 1389.74 15.9372C1388.26 17.0024 1386.82 17.9982 1385.28 18.9013C1382.21 20.6613 1378.69 22.0507 1375.84 24.6327C1373 27.2147 1370.7 30.5031 1368.6 33.9072C1367.55 35.6324 1366.69 37.4734 1365.96 39.407C1365.19 41.3985 1364.68 43.4132 1364.21 45.4278C1363.74 47.4309 1363.21 49.4456 1362.87 51.5761C1362.52 53.6834 1362.41 55.9181 1362.88 58.118C1363.34 60.3063 1364.35 62.4136 1365.69 64.2778C1367.04 66.1535 1368.59 67.8208 1370.24 69.3492C1370.58 69.6966 1370.43 69.8818 1370.1 69.5113C1367.01 66.1188 1365.51 61.7073 1365.03 57.6548C1364.75 55.6054 1364.72 53.5792 1364.91 51.6108C1365.1 49.6425 1365.45 47.7088 1366.05 45.8563C1366.65 44.0153 1367.32 42.1974 1368.21 40.4838C1369.09 38.7933 1370.04 37.2071 1371.13 35.7134C1373.29 32.7493 1375.5 29.8547 1378.22 27.5621C1380.94 25.2811 1384.1 23.7991 1387.05 22.1665C1388.52 21.3328 1390.06 20.6728 1391.58 19.955C1393.1 19.2834 1394.7 18.7392 1396.27 18.1603C1397.9 17.6856 1399.58 17.3729 1401.28 17.1877C1402.99 17.0603 1404.66 16.8403 1406.33 16.6782C1407.98 16.4814 1409.63 16.273 1411.29 16.2382L1413.77 16.134L1416.25 16.1688C1419.53 16.1919 1422.8 15.914 1426.05 16.3193C1427.67 16.5161 1429.28 16.7477 1430.87 16.8751C1432.47 17.1182 1434.08 17.3035 1435.66 17.6508C1438.82 18.3687 1441.82 19.6076 1444.87 20.4528L1447.17 21.1012L1449.43 21.8886C1450.96 22.3633 1452.44 22.9307 1454 23.3591C1455.53 23.7412 1456.63 21.2749 1455.09 20.557Z" fill="#4885EE"/>
<path d="M1433.06 21.0549C1432.32 20.7076 1431.57 20.4181 1430.78 20.1749C1430 19.9665 1429.2 19.8276 1428.39 19.7118C1426.77 19.4339 1425.11 19.4571 1423.47 19.4107C1421.83 19.3644 1420.19 19.5728 1418.56 19.6886C1416.95 19.9086 1415.34 20.1286 1413.77 20.3486C1412.16 20.6149 1410.51 20.6497 1408.88 20.8928L1406.42 21.2054C1405.6 21.356 1404.81 21.5412 1404.01 21.7496C1400.81 22.5833 1397.77 23.8801 1394.68 25.0148C1393.19 25.6516 1391.74 26.4158 1390.32 27.2147C1388.92 28.0368 1387.54 28.8936 1386.11 29.6578C1383.27 31.163 1379.87 32.1588 1377.31 34.4513C1374.59 36.8944 1373.15 40.4375 1371.79 43.7026C1371.1 45.3584 1370.79 47.1646 1370.59 48.9246C1370.41 50.7077 1370.35 52.456 1370.22 54.2507C1370.2 54.957 1371.72 55.0149 1371.79 54.3549C1372.23 51.1824 1372.48 48.0214 1373.79 45.1731C1375.04 42.3827 1377.01 39.8585 1379.35 37.867C1381.65 35.945 1384.01 34.0345 1386.77 32.7145C1389.52 31.383 1392.63 30.8272 1395.5 29.8662C1396.93 29.3104 1398.36 28.7199 1399.73 27.9789C1401.13 27.3189 1402.54 26.6474 1404.04 26.2421C1407.05 25.4895 1410.1 24.9337 1413.16 24.5285C1416.34 24.0074 1419.7 25.1769 1422.85 25.2695C1426.01 25.5011 1429.21 24.5632 1432.42 24.6095C1433.6 24.6095 1434.26 21.6338 1433.06 21.0549Z" fill="#4885EE"/>
<path d="M1442.03 43.9689C1441.34 43.2395 1440.53 42.7069 1439.64 42.3827C1438.75 42.0237 1437.83 41.688 1436.89 41.3753C1435.98 41.0511 1435.11 40.4954 1434.17 40.0901C1433.24 39.6617 1432.3 39.2101 1431.3 39.1407C1430.29 39.0365 1429.27 39.0481 1428.25 39.1754C1427.24 39.2796 1426.26 39.3144 1425.29 39.2796C1424.22 39.2217 1423.15 38.8165 1422.06 38.5386C1420.96 38.2144 1419.84 37.8786 1418.73 37.9018C1418.18 37.9018 1417.63 37.9712 1417.09 38.087C1416.55 38.226 1416.02 38.4228 1415.5 38.5965C1414.97 38.7817 1414.44 38.9438 1413.93 39.0944C1413.41 39.268 1412.88 39.3954 1412.34 39.4417C1411.24 39.5112 1410.17 39.6733 1409.09 39.8354C1407.98 39.9628 1406.94 40.2291 1405.87 40.4722C1403.76 40.9701 1401.71 41.6648 1399.67 42.4522C1397.64 43.2163 1395.9 44.2468 1394.35 45.1847C1392.82 46.0994 1390.58 46.0184 1389.52 47.1067C1389.02 47.6394 1388.61 48.1604 1388.25 48.6583C1387.94 49.1446 1387.63 49.7467 1387.54 50.0245C1387.29 50.754 1387.17 51.7266 1387.37 52.4329C1387.47 52.7803 1387.59 53.0813 1387.78 53.2087C1387.84 53.3013 1387.98 53.3013 1388.03 53.336C1388.06 53.336 1388.18 53.2897 1388.1 53.336C1387.87 53.4402 1387.75 53.475 1387.55 53.5676C1387.14 53.7876 1387.16 53.7644 1387.59 53.556C1387.93 53.4055 1388.44 53.1855 1388.87 53.0697C1389.13 52.9771 1389.37 52.9076 1389.61 52.8613L1390.18 52.7339C1389.98 52.7571 1389.7 52.6181 1389.74 52.375C1389.76 52.1434 1389.83 51.8771 1389.95 51.634C1390.09 51.4024 1390.24 51.194 1390.35 51.055C1390.79 50.3603 1391.81 49.8509 1392.85 49.0056C1393.88 48.172 1394.74 46.4352 1396.55 45.5205C1397.44 45.0689 1398.59 44.9647 1399.77 44.8952C1400.96 44.8373 1402.19 44.8373 1403.2 44.4552C1404.27 44.1542 1405.3 43.83 1406.37 43.5521C1407.47 43.3437 1408.5 43.0311 1409.6 42.8806C1410.7 42.73 1411.72 42.3364 1412.8 42.1048L1414.4 41.7111C1414.94 41.6069 1415.49 41.5606 1416.04 41.5374C1416.59 41.5259 1417.15 41.5143 1417.71 41.5722L1419.39 41.8153C1420.49 41.9427 1421.6 42.2437 1422.67 42.3132C1423.75 42.3595 1424.82 42.5216 1425.89 42.5448C1426.95 42.6374 1428.01 42.7879 1429.06 42.9732C1430.09 43.2511 1431.16 43.17 1432.23 43.1932C1433.29 43.2511 1434.39 43.1816 1435.38 43.5869C1436.38 43.9458 1437.39 44.2353 1438.35 44.6521L1439.8 45.2079L1441.2 45.8678C1442.15 46.3194 1442.72 44.6984 1442.03 43.9689Z" fill="#4885EE"/>
<path d="M1458.29 0.468195C1453.49 -1.81279 1448.17 -3.97798 1442.88 -5.28636C1437.43 -6.60632 1431.84 -6.1316 1426.29 -6.27054C1422.22 -6.31686 1418.04 -7.35893 1413.89 -6.87263C1412.86 -6.75684 1411.84 -6.59474 1410.81 -6.42106C1409.79 -6.22423 1408.78 -5.9695 1407.78 -5.72635C1405.75 -5.27478 1403.76 -4.68428 1401.74 -4.20955C1397.7 -3.28327 1393.53 -2.64644 1389.56 -1.2107C1387.63 -0.492827 1385.77 0.468195 1383.92 1.3829C1382.09 2.4134 1380.3 3.39758 1378.42 4.34702C1374.67 6.3038 1371.14 9.0595 1367.36 11.9657C1363.61 14.8488 1359.13 17.7203 1355.66 22.2938C1353.94 24.5401 1352.27 26.9832 1350.81 29.6347C1350.08 30.8851 1349.32 32.4946 1348.67 33.9998C1348.06 35.5281 1347.47 37.0797 1347.06 38.6428C1346.17 41.7806 1345.92 45.0342 1346.03 48.2762C1346.14 51.5182 1346.55 54.737 1347.07 58.0369C1347.57 61.3368 1348.34 64.7062 1349.69 68.0987C1351.02 71.4681 1352.82 74.8259 1355.31 77.8131C1355.81 78.4384 1356.31 78.531 1356.55 78.311C1356.78 78.1026 1356.75 77.5931 1356.28 76.9679C1351.55 70.947 1348.77 64.0462 1348.01 57.5275C1347.61 54.2276 1347.71 50.9971 1348.16 47.9057C1348.6 44.8026 1349.32 41.8153 1350.29 38.8744C1350.75 37.3923 1351.25 35.9102 1351.79 34.4282L1352.66 32.1935L1353.53 30.1788C1354.74 27.5273 1356.15 25.0032 1357.9 22.8843C1359.65 20.7655 1361.48 18.8434 1363.35 17.1066C1365.21 15.393 1367.12 13.8646 1369.03 12.4868C1372.87 9.75422 1376.99 8.13322 1380.69 6.3617C1384.39 4.61333 1388.16 3.0618 1391.99 1.765C1393.86 1.12817 1395.76 0.583981 1397.69 0.190309L1400.57 -0.458091L1403.44 -1.03702C1404.4 -1.23386 1405.35 -1.45385 1406.3 -1.61595L1409.19 -2.05594C1411.08 -2.36856 1413.02 -2.51908 1414.94 -2.71592C1418.79 -3.08643 1422.65 -3.74641 1426.55 -3.65378C1432.28 -3.43379 1437.6 -1.72016 1442.91 -0.238098C1447.49 1.1166 1452.61 1.79973 1457.55 2.81865C1459.02 3.09653 1459.79 2.86496 1459.92 2.33235C1460.03 1.82289 1459.5 1.00081 1458.29 0.468195Z" fill="#4885EE"/>
<path d="M1443.29 30.503C1442.02 30.3641 1440.84 29.9588 1439.61 29.6462C1438.41 29.3104 1437.21 28.882 1435.96 28.6852C1434.72 28.4536 1433.43 28.4768 1432.14 28.6042C1431.5 28.6505 1430.86 28.6852 1430.23 28.6852C1429.6 28.6968 1428.97 28.7084 1428.35 28.6042C1427.72 28.5115 1427.1 28.3378 1426.48 28.1179C1425.86 27.9326 1425.23 27.7126 1424.6 27.4926C1423.97 27.2726 1423.32 27.041 1422.68 26.8789C1422.03 26.74 1421.38 26.6474 1420.73 26.6474C1419.41 26.6011 1418.1 26.9716 1416.83 27.3189C1415.54 27.6316 1414.28 28.0947 1412.98 28.2336C1410.4 28.5347 1407.67 28.4305 1405.09 29.021C1403.79 29.3104 1402.57 29.8199 1401.31 30.2599C1400.08 30.7578 1398.89 31.302 1397.61 31.6841C1396.43 32.124 1395.27 32.6451 1394.11 33.1545L1390.75 34.8334C1388.56 35.9334 1386.07 36.6397 1384.21 38.1565C1382.36 39.627 1380.19 40.8774 1378.91 42.8227C1378.27 43.7837 1377.89 44.9184 1377.66 45.9373C1377.47 47.0141 1377.33 48.0677 1377.2 49.1098C1376.93 51.1708 1376.85 53.336 1377.58 55.1191C1378.27 56.9369 1379.84 58.0716 1381.09 58.5927C1381.57 58.7895 1382.78 57.539 1382.45 57.4348C1381.98 57.1917 1381.55 56.798 1381.21 56.2538C1380.89 55.6865 1380.63 55.0265 1380.41 54.2854C1380.23 53.5213 1380.32 52.676 1380.56 51.854C1380.83 51.0319 1381.14 50.2445 1381.37 49.4572C1381.61 48.6814 1381.63 47.813 1381.81 47.0025C1382.01 46.1225 1382.33 45.1384 1383 44.3973C1384.32 42.869 1386.36 41.9311 1388.2 40.7385C1390.02 39.5343 1391.83 38.006 1394.07 36.9986C1394.62 36.7439 1395.22 36.5586 1395.82 36.3734L1397.69 35.9566L1399.53 35.5397C1400.15 35.4124 1400.75 35.2618 1401.33 35.0534C1402.44 34.625 1403.52 34.0924 1404.6 33.5251C1405.67 32.923 1406.8 32.4598 1407.97 32.1472C1410.34 31.5451 1412.88 31.9156 1415.25 31.6377C1417.62 31.3599 1419.99 30.5494 1422.41 30.6536C1423.56 30.6883 1424.71 31.0704 1425.83 31.383C1426.95 31.7072 1428.06 32.1588 1429.16 32.3325C1431.36 32.7609 1433.67 32.2514 1435.9 32.6103C1438.14 32.9809 1440.11 34.3587 1442.4 34.3124C1443.56 34.2892 1444.5 30.642 1443.29 30.503Z" fill="#4885EE"/>
</g>
</g>
<g clip-path="url(#clip5_1032_7159)">
<path d="M181.016 998.432C181.016 1048.46 140.498 1089 90.5078 1089C40.5173 1089 0 1048.46 0 998.432V857.568C0 807.544 40.5173 767 90.5078 767C140.498 767 181.016 807.544 181.016 857.568V998.432Z" fill="#FEC949"/>
<path d="M360.131 998.432C360.131 1048.46 319.613 1089 269.623 1089C219.633 1089 179.115 1048.46 179.115 998.432V857.568C179.115 807.544 219.633 767 269.623 767C319.613 767 360.131 807.544 360.131 857.568V998.432Z" fill="#FEC949"/>
<path d="M541.115 998.432C541.115 1048.46 500.598 1089 450.607 1089C400.617 1089 360.1 1048.46 360.1 998.432V857.568C360.1 807.544 400.617 767 450.607 767C500.598 767 541.115 807.544 541.115 857.568V998.432Z" fill="#FEC949"/>
<path d="M722.131 998.432C722.131 1048.46 681.613 1089 631.623 1089C581.633 1089 541.115 1048.46 541.115 998.432V857.568C541.115 807.544 581.633 767 631.623 767C681.613 767 722.131 807.544 722.131 857.568V998.432Z" fill="#FEC949"/>
<path d="M903.146 998.432C903.146 1048.46 862.629 1089 812.639 1089C762.648 1089 722.131 1048.46 722.131 998.432V857.568C722.131 807.544 762.648 767 812.639 767C862.629 767 903.146 807.544 903.146 857.568V998.432Z" fill="#FEC949"/>
<path d="M1081.27 998.432C1081.27 1048.46 1040.75 1089 990.758 1089C940.767 1089 900.25 1048.46 900.25 998.432V857.568C900.25 807.544 940.767 767 990.758 767C1040.75 767 1081.27 807.544 1081.27 857.568V998.432Z" fill="#FEC949"/>
<path d="M1260.98 998.432C1260.98 1048.46 1220.47 1089 1170.48 1089C1120.49 1089 1079.97 1048.46 1079.97 998.432V857.568C1079.97 807.544 1120.49 767 1170.48 767C1220.47 767 1260.98 807.544 1260.98 857.568V998.432Z" fill="#FEC949"/>
<path d="M1442 998.432C1442 1048.46 1401.48 1089 1351.49 1089C1301.5 1089 1260.98 1048.46 1260.98 998.432V857.568C1260.98 807.544 1301.5 767 1351.49 767C1401.48 767 1442 807.544 1442 857.568V998.432Z" fill="#FEC949"/>
</g>
<defs>
<clipPath id="clip0_1032_7159">
<rect width="390" height="220" fill="white"/>
</clipPath>
<clipPath id="clip1_1032_7159">
<rect width="180.084" height="300.462" fill="white" transform="translate(8.00977 200.15) rotate(-103.854)"/>
</clipPath>
<clipPath id="clip2_1032_7159">
<rect width="71" height="71" fill="white" transform="translate(-24 140)"/>
</clipPath>
<clipPath id="clip3_1032_7159">
<rect width="390" height="220" fill="white" transform="translate(1050)"/>
</clipPath>
<clipPath id="clip4_1032_7159">
<rect width="188.898" height="315.167" fill="white" transform="matrix(0.0700832 -0.997541 -0.997541 -0.0700832 1366.39 159.521)"/>
</clipPath>
<clipPath id="clip5_1032_7159">
<rect width="1440" height="101" fill="white" transform="translate(0 988)"/>
</clipPath>
</defs>
</svg>
