<svg width="52" height="52" viewBox="0 0 52 52" fill="none" xmlns="http://www.w3.org/2000/svg">
<g clip-path="url(#clip0_1494_1582)">
<path d="M0 26C0 11.6406 11.6406 0 26 0C40.3594 0 52 11.6406 52 26C52 40.3594 40.3594 52 26 52C11.6406 52 0 40.3594 0 26Z" fill="#FEC949"/>
<g clip-path="url(#clip1_1494_1582)">
<path d="M52.9941 28.1495C46.0641 24.6224 41.4402 16.9729 41.5414 9.19679C41.5643 7.41341 42.0527 5.30885 43.7122 4.65536C45.0696 4.12086 46.703 4.91667 47.4217 6.18683C48.1404 7.45699 48.0774 9.05059 47.6108 10.4333C46.0232 15.1315 39.4801 17.2803 35.4154 14.4374C31.3508 11.5945 31.1221 4.71228 34.9882 1.60534C35.6487 1.07529 36.5672 0.641267 37.3162 1.03664C38.1682 1.48599 38.228 2.69428 37.9734 3.62453C36.92 7.46771 32.161 9.72404 28.44 8.29414C24.7188 6.86645 22.6741 2.23139 23.9239 -1.55569C24.7327 -4.0072 27.9366 -6.08345 29.796 -4.29025C31.3862 -2.75409 30.3476 -0.0716824 29.0742 1.73736C25.5752 6.71518 20.416 11.0244 14.348 11.4795C8.28004 11.9345 1.71954 7.17137 1.97535 1.091" stroke="white" stroke-width="0.3809" stroke-miterlimit="10"/>
</g>
<path d="M40.7044 47.7666V49.0345C36.7224 52.2155 31.6533 54.1206 26.1335 54.1206C20.6141 54.1206 15.5444 52.2155 11.563 49.0356V47.7666C11.563 40.9165 17.1838 35.3629 24.1174 35.3629H28.15C35.0836 35.363 40.7044 40.9166 40.7044 47.7666Z" fill="white"/>
<path d="M26.1337 32.0163C30.4811 32.0163 34.0053 28.4921 34.0053 24.1447C34.0053 19.7974 30.4811 16.2732 26.1337 16.2732C21.7864 16.2732 18.2622 19.7974 18.2622 24.1447C18.2622 28.4921 21.7864 32.0163 26.1337 32.0163Z" fill="white"/>
<g clip-path="url(#clip2_1494_1582)">
<path d="M6.45155 3.13314L6.6408 3.88676L7.17907 3.32771C8.26051 2.20713 9.82614 2.45834 10.6839 3.38928C11.1976 3.94833 11.4557 4.7512 11.1976 5.65259L10.9838 6.39882L11.7285 6.18455C12.9254 5.84222 13.9528 6.41606 14.4567 7.29035C14.9605 8.16711 14.9433 9.34433 14.0487 10.2112L13.4907 10.7506L14.2428 10.9402C15.6782 11.2998 16.2607 12.6593 15.9903 13.8315C15.806 14.632 15.2235 15.3437 14.2428 15.59L13.4907 15.7796L14.0487 16.319C15.167 17.4026 14.9163 18.9714 13.9872 19.8309C13.4293 20.3457 12.628 20.6042 11.7285 20.3456L10.9838 20.1314L11.1976 20.8776C11.6154 22.3454 10.6667 23.5571 9.46975 23.8675C8.71029 24.0645 7.85005 23.8995 7.17907 23.2025L6.6408 22.6434L6.45155 23.3971C6.14924 24.6063 5.14154 25.2121 4.13137 25.2121C3.12121 25.2121 2.1135 24.6063 1.81119 23.3971L1.62194 22.6434L1.08368 23.2025C0.651102 23.6507 0.139875 23.8798 -0.371351 23.9339C-1.90503 24.094 -3.44854 22.6779 -2.93485 20.8801L-2.72102 20.1339L-3.46574 20.3481C-4.36285 20.6042 -5.16655 20.3481 -5.72448 19.8334C-6.65353 18.9763 -6.90423 17.4051 -5.78592 16.3214L-5.228 15.7821L-5.98009 15.5924C-7.18688 15.2895 -7.7915 14.2798 -7.7915 13.2676C-7.7915 12.2554 -7.18688 11.2456 -5.98009 10.9427L-5.228 10.753L-5.78592 10.2137C-6.82804 9.20394 -6.68057 7.7706 -5.9039 6.88645C-5.34597 6.25351 -4.46608 5.90133 -3.46574 6.18702L-2.72102 6.40128L-2.93485 5.65505C-3.36252 4.15521 -2.36218 2.92134 -1.12836 2.64551C-0.388555 2.4805 0.434813 2.65782 1.08368 3.33017L1.62194 3.88922L1.81119 3.13561C2.1897 1.62345 3.67176 1.05701 4.87609 1.43381C5.59869 1.65793 6.22298 2.22437 6.45155 3.13314Z" fill="#4885EE"/>
<mask id="mask0_1494_1582" style="mask-type:luminance" maskUnits="userSpaceOnUse" x="-8" y="1" width="25" height="25">
<path d="M6.45155 3.13314L6.6408 3.88676L7.17907 3.32771C8.26051 2.20713 9.82614 2.45834 10.6839 3.38928C11.1976 3.94833 11.4557 4.7512 11.1976 5.65259L10.9838 6.39882L11.7285 6.18455C12.9254 5.84222 13.9528 6.41606 14.4567 7.29035C14.9605 8.16711 14.9433 9.34433 14.0487 10.2112L13.4907 10.7506L14.2428 10.9402C15.6782 11.2998 16.2607 12.6593 15.9903 13.8315C15.806 14.632 15.2235 15.3437 14.2428 15.59L13.4907 15.7796L14.0487 16.319C15.167 17.4026 14.9163 18.9714 13.9872 19.8309C13.4293 20.3457 12.628 20.6042 11.7285 20.3456L10.9838 20.1314L11.1976 20.8776C11.6154 22.3454 10.6667 23.5571 9.46975 23.8675C8.71029 24.0645 7.85005 23.8995 7.17907 23.2025L6.6408 22.6434L6.45155 23.3971C6.14924 24.6063 5.14154 25.2121 4.13137 25.2121C3.12121 25.2121 2.1135 24.6063 1.81119 23.3971L1.62194 22.6434L1.08368 23.2025C0.651102 23.6507 0.139875 23.8798 -0.371351 23.9339C-1.90503 24.094 -3.44854 22.6779 -2.93485 20.8801L-2.72102 20.1339L-3.46574 20.3481C-4.36285 20.6042 -5.16655 20.3481 -5.72448 19.8334C-6.65353 18.9763 -6.90423 17.4051 -5.78592 16.3214L-5.228 15.7821L-5.98009 15.5924C-7.18688 15.2895 -7.7915 14.2798 -7.7915 13.2676C-7.7915 12.2554 -7.18688 11.2456 -5.98009 10.9427L-5.228 10.753L-5.78592 10.2137C-6.82804 9.20394 -6.68057 7.7706 -5.9039 6.88645C-5.34597 6.25351 -4.46608 5.90133 -3.46574 6.18702L-2.72102 6.40128L-2.93485 5.65505C-3.36252 4.15521 -2.36218 2.92134 -1.12836 2.64551C-0.388555 2.4805 0.434813 2.65782 1.08368 3.33017L1.62194 3.88922L1.81119 3.13561C2.1897 1.62345 3.67176 1.05701 4.87609 1.43381C5.59869 1.65793 6.22298 2.22437 6.45155 3.13314Z" fill="white"/>
</mask>
<g mask="url(#mask0_1494_1582)">
<g opacity="0.5">
<path d="M17.686 1.33323L16.1376 2.88233L14.5548 1.29875L12.9818 2.87494L11.1482 1.03523L9.2803 2.90696L7.42957 1.05001L5.64519 2.838L3.8559 1.04755L2.02236 2.88726L0.265024 1.12636L-1.52918 2.92666L-3.38238 1.06971L-5.20362 2.89465L-7.01012 1.08695L-8.81416 2.89465L-10.6133 1.08941V1.71989L-8.81416 3.52266L-7.01012 1.71497L-5.20362 3.52512L-3.38238 1.70019L-1.52918 3.55468L0.265024 1.75683L2.02236 3.51527L3.8559 1.67556L5.64519 3.46848L7.42957 1.68049L9.2803 3.53497L11.1482 1.66571L12.9818 3.50296L14.5548 1.92677L16.1376 3.51281L17.686 1.96125V1.33323Z" fill="#1A66EA"/>
<path d="M17.686 3.40307L16.1376 4.95217L14.5548 3.36613L12.9818 4.94478L11.1482 3.10507L9.2803 4.97434L7.42957 3.11985L5.64519 4.90784L3.8559 3.11739L2.02236 4.95463L0.265024 3.1962L-1.52918 4.9965L-3.38238 3.13955L-5.20362 4.96449L-7.01012 3.15433L-8.81416 4.96202L-10.6133 3.15925V3.78973L-8.81416 5.5925L-7.01012 3.7848L-5.20362 5.59496L-3.38238 3.77003L-1.52918 5.62452L0.265024 3.82667L2.02236 5.58511L3.8559 3.7454L5.64519 5.53832L7.42957 3.75033L9.2803 5.60481L11.1482 3.73309L12.9818 5.5728L14.5548 3.99661L16.1376 5.58265L17.686 4.03108V3.40307Z" fill="#1A66EA"/>
<path d="M17.686 5.47249L16.1376 7.02406L14.5548 5.43801L12.9818 7.0142L11.1482 5.17696L9.2803 7.04622L7.42957 5.19173L5.64519 6.97973L3.8559 5.18681L2.02236 7.02652L0.265024 5.26808L-1.52918 7.06592L-3.38238 5.21144L-5.20362 7.03637L-7.01012 5.22621L-8.81416 7.03391L-10.6133 5.23114V5.85915L-8.81416 7.66438L-7.01012 5.85669L-5.20362 7.66438L-3.38238 5.83945L-1.52918 7.6964L0.265024 5.89609L2.02236 7.657L3.8559 5.81728L5.64519 7.60774L7.42957 5.82221L9.2803 7.6767L11.1482 5.80497L12.9818 7.64468L14.5548 6.06849L16.1376 7.65453L17.686 6.10297V5.47249Z" fill="#1A66EA"/>
<path d="M17.686 7.54479L16.1376 9.09636L14.5548 7.51032L12.9818 9.08651L11.1482 7.2468L9.2803 9.11852L7.42957 7.26404L5.64519 9.05203L3.8559 7.25911L2.02236 9.09882L0.265024 7.33792L-1.52918 9.13823L-3.38238 7.28374L-5.20362 9.10867L-7.01012 7.29851L-8.81416 9.10621L-10.6133 7.30098V7.93145L-8.81416 9.73422L-7.01012 7.92899L-5.20362 9.73669L-3.38238 7.91175L-1.52918 9.7687L0.265024 7.9684L2.02236 9.72684L3.8559 7.88959L5.64519 9.68004L7.42957 7.89205L9.2803 9.749L11.1482 7.87727L12.9818 9.71698L14.5548 8.14079L16.1376 9.72437L17.686 8.17527V7.54479Z" fill="#1A66EA"/>
<path d="M17.686 9.61463L16.1376 11.1662L14.5548 9.58015L12.9818 11.1563L11.1482 9.31664L9.2803 11.1884L7.42957 9.33387L5.64519 11.1194L3.8559 9.32895L2.02236 11.1687L0.265024 9.40776L-1.52918 11.2081L-3.38238 9.35111L-5.20362 11.176L-7.01012 9.36835L-8.81416 11.176L-10.6133 9.37082V10.0013L-8.81416 11.8041L-7.01012 9.99637L-5.20362 11.8065L-3.38238 9.98159L-1.52918 11.8385L0.265024 10.0382L2.02236 11.7967L3.8559 9.95696L5.64519 11.7499L7.42957 9.96189L9.2803 11.8164L11.1482 9.94711L12.9818 11.7868L14.5548 10.2082L16.1376 11.7942L17.686 10.2451V9.61463Z" fill="#1A66EA"/>
<path d="M17.686 11.6865L16.1376 13.2356L14.5548 11.652L12.9818 13.2282L11.1482 11.3885L9.2803 13.2602L7.42957 11.4033L5.64519 13.1913L3.8559 11.4008L2.02236 13.2381L0.265024 11.4796L-1.52918 13.2799L-3.38238 11.423L-5.20362 13.2479L-7.01012 11.4402L-8.81416 13.2455L-10.6133 11.4427V12.0732L-8.81416 13.8759L-7.01012 12.0683L-5.20362 13.8784L-3.38238 12.0535L-1.52918 13.908L0.265024 12.1101L2.02236 13.8686L3.8559 12.0288L5.64519 13.8218L7.42957 12.0338L9.2803 13.8883L11.1482 12.019L12.9818 13.8562L14.5548 12.2801L16.1376 13.8661L17.686 12.3145V11.6865Z" fill="#1A66EA"/>
<path d="M17.686 13.7584L16.1376 15.3075L14.5548 13.7214L12.9818 15.2976L11.1482 13.4604L9.2803 15.3297L7.42957 13.4752L5.64519 15.2632L3.8559 13.4702L2.02236 15.31L0.265024 13.5515L-1.52918 15.3494L-3.38238 13.4949L-5.20362 15.3198L-7.01012 13.5096L-8.81416 15.3173L-10.6133 13.5146V14.1426L-8.81416 15.9478L-7.01012 14.1401L-5.20362 15.9503L-3.38238 14.1229L-1.52918 15.9798L0.265024 14.1795L2.02236 15.9404L3.8559 14.1007L5.64519 15.8912L7.42957 14.1056L9.2803 15.9601L11.1482 14.0884L12.9818 15.9281L14.5548 14.3519L16.1376 15.938L17.686 14.3864V13.7584Z" fill="#1A66EA"/>
<path d="M17.686 15.8262L16.1376 17.3778L14.5548 15.7917L12.9818 17.3679L11.1482 15.5282L9.2803 17.3999L7.42957 15.5454L5.64519 17.3334L3.8559 15.5405L2.02236 17.3802L0.265024 15.6218L-1.52918 17.4196L-3.38238 15.5651L-5.20362 17.3901L-7.01012 15.5799L-8.81416 17.3876L-10.6133 15.5848V16.2129L-8.81416 18.0181L-7.01012 16.2104L-5.20362 18.0181L-3.38238 16.1932L-1.52918 18.0501L0.265024 16.2498L2.02236 18.0107L3.8559 16.171L5.64519 17.9614L7.42957 16.1735L9.2803 18.0304L11.1482 16.1587L12.9818 17.9984L14.5548 16.4222L16.1376 18.0058L17.686 16.4567V15.8262Z" fill="#1A66EA"/>
<path d="M17.686 17.9001L16.1376 19.4517L14.5548 17.8656L12.9818 19.4418L11.1482 17.6021L9.2803 19.4738L7.42957 17.6194L5.64519 19.4049L3.8559 17.6144L2.02236 19.4541L0.265024 17.6932L-1.52918 19.4935L-3.38238 17.6366L-5.20362 19.464L-7.01012 17.6538L-8.81416 19.4615L-10.6133 17.6563V18.2868L-8.81416 20.0895L-7.01012 18.2818L-5.20362 20.092L-3.38238 18.2671L-1.52918 20.124L0.265024 18.3237L2.02236 20.0822L3.8559 18.2449L5.64519 20.0354L7.42957 18.2474L9.2803 20.1019L11.1482 18.2326L12.9818 20.0723L14.5548 18.4936L16.1376 20.0797L17.686 18.5306V17.9001Z" fill="#1A66EA"/>
<path d="M17.686 19.9699L16.1376 21.5191L14.5548 19.9355L12.9818 21.5117L11.1482 19.672L9.2803 21.5437L7.42957 19.6867L5.64519 21.4747L3.8559 19.6843L2.02236 21.524L0.265024 19.7631L-1.52918 21.5634L-3.38238 19.7064L-5.20362 21.5314L-7.01012 19.7237L-8.81416 21.5314L-10.6133 19.7261V20.3566L-8.81416 22.1594L-7.01012 20.3517L-5.20362 22.1618L-3.38238 20.3369L-1.52918 22.1914L0.265024 20.3936L2.02236 22.152L3.8559 20.3123L5.64519 22.1052L7.42957 20.3172L9.2803 22.1717L11.1482 20.3024L12.9818 22.1397L14.5548 20.5635L16.1376 22.1495L17.686 20.598V19.9699Z" fill="#1A66EA"/>
<path d="M17.686 22.0398L16.1376 23.5889L14.5548 22.0028L12.9818 23.5815L11.1482 21.7418L9.2803 23.6111L7.42957 21.7566L5.64519 23.5446L3.8559 21.7541L2.02236 23.5914L0.265024 21.8329L-1.52918 23.6332L-3.38238 21.7763L-5.20362 23.6012L-7.01012 21.791L-8.81416 23.5987L-10.6133 21.796V22.4264L-8.81416 24.2292L-7.01012 22.4215L-5.20362 24.2317L-3.38238 22.4067L-1.52918 24.2612L0.265024 22.4634L2.02236 24.2218L3.8559 22.3821L5.64519 24.175L7.42957 22.387L9.2803 24.2415L11.1482 22.3698L12.9818 24.2095L14.5548 22.6333L16.1376 24.2194L17.686 22.6678V22.0398Z" fill="#1A66EA"/>
<path d="M17.686 24.1092L16.1376 25.6608L14.5548 24.0747L12.9818 25.6509L11.1482 23.8137L9.2803 25.6829L7.42957 23.8285L5.64519 25.6164L3.8559 23.8235L2.02236 25.6632L0.265024 23.9048L-1.52918 25.7026L-3.38238 23.8482L-5.20362 25.6731L-7.01012 23.8629L-8.81416 25.6706L-10.6133 23.8679V24.4959L-8.81416 26.3011L-7.01012 24.4934L-5.20362 26.3011L-3.38238 24.4762L-1.52918 26.3331L0.265024 24.5328L2.02236 26.2937L3.8559 24.454L5.64519 26.2445L7.42957 24.4589L9.2803 26.3134L11.1482 24.4417L12.9818 26.2814L14.5548 24.7052L16.1376 26.2913L17.686 24.7397V24.1092Z" fill="#1A66EA"/>
</g>
</g>
</g>
<path d="M56.6437 32.0091L52.329 30.9767L49.0327 33.9466C48.6851 34.259 48.2605 34.3724 47.8596 34.325C47.1921 34.2463 46.5904 33.7251 46.5281 32.9489L46.1763 28.5271L42.3345 26.3095C41.7951 25.9977 41.5517 25.445 41.5852 24.91C41.6199 24.3754 41.9334 23.8577 42.5094 23.6193L46.6072 21.9178L47.5284 17.5786C47.6997 16.7725 48.4321 16.3274 49.1439 16.3928C49.5084 16.4268 49.8666 16.5928 50.1409 16.9128L53.0251 20.2832L57.4366 19.8181C58.0161 19.7576 58.51 20.0194 58.8063 20.4247C59.1427 20.8853 59.222 21.5323 58.8755 22.0978L56.5605 25.8818L58.3659 29.9339C58.5834 30.4221 58.5198 30.9284 58.2808 31.3226C57.9629 31.8475 57.3353 32.1754 56.6437 32.0091Z" fill="#36AB67"/>
<mask id="mask1_1494_1582" style="mask-type:luminance" maskUnits="userSpaceOnUse" x="41" y="16" width="19" height="19">
<path d="M56.738 32.0821L52.4002 30.9876L49.1406 33.8982C48.7969 34.2044 48.373 34.3109 47.9708 34.2577C47.3008 34.1691 46.6905 33.6404 46.6168 32.8657L46.2005 28.4523L42.3194 26.1835C41.7745 25.8644 41.5226 25.3098 41.5484 24.7769C41.5755 24.2446 41.8821 23.7332 42.4557 23.5043L46.5367 21.8702L47.397 17.5585C47.5569 16.7575 48.2842 16.3249 48.9984 16.4009C49.364 16.4403 49.7253 16.6112 50.0047 16.9344L52.9431 20.338L57.3561 19.9412C57.9358 19.8896 58.4345 20.1582 58.7372 20.5667C59.0809 21.031 59.1696 21.6771 58.8307 22.2356L56.566 25.9727L58.4334 30.0395C58.6583 30.5295 58.6019 31.0332 58.3682 31.4226C58.0573 31.941 57.4332 32.2584 56.738 32.0821Z" fill="white"/>
</mask>
<g mask="url(#mask1_1494_1582)">
<path opacity="0.5" d="M62.2206 14.0789L62.0716 16.3262L60.9641 16.228L61.1131 13.9806L60.8921 13.9612L60.7431 16.2086L59.6356 16.1104L59.7845 13.863L59.5635 13.8436L59.4146 16.0909L58.307 15.9927L58.456 13.7454L58.235 13.7259L58.086 15.9733L57.0223 15.8785L57.1712 13.6311L56.9503 13.6117L56.8013 15.8591L55.7375 15.7643L55.8865 13.5169L55.6655 13.4975L55.5165 15.7448L54.4528 15.65L54.6018 13.4027L54.3808 13.3832L54.2318 15.6306L53.168 15.5358L53.317 13.2884L53.096 13.269L52.9471 15.5164L51.8833 15.4216L52.0323 13.1742L51.8113 13.1548L51.6623 15.4022L50.5986 15.3074L50.7475 13.06L50.5265 13.0406L50.3776 15.2879L49.3138 15.1931L49.4628 12.9458L49.2418 12.9263L49.0928 15.1737L48.0291 15.0789L48.178 12.8315L47.957 12.8121L47.8081 15.0595L46.7443 14.9647L46.8933 12.7173L46.6723 12.6979L46.5233 14.9452L45.4596 14.8504L45.6085 12.6031L45.3876 12.5837L45.2386 14.831L44.1748 14.7362L44.3238 12.4889L44.1028 12.4694L43.9538 14.7168L42.8901 14.622L43.0391 12.3746L42.8181 12.3552L42.6691 14.6026L41.6053 14.5078L41.7543 12.2604L41.5333 12.241L41.3844 14.4883L40.3206 14.3935L40.4696 12.1462L40.2416 12.1253L40.0927 14.3727L39.516 14.3207L39.5016 14.5404L40.077 14.5919L40.0064 15.6496L39.431 15.5982L39.4166 15.8179L39.992 15.8694L39.9214 16.9271L39.346 16.8756L39.3316 17.0954L39.907 17.1468L39.8364 18.2046L39.261 18.1531L39.2466 18.3728L39.822 18.4243L39.7514 19.482L39.176 19.4306L39.1616 19.6503L39.737 19.7018L39.6664 20.7595L39.091 20.708L39.0766 20.9278L39.652 20.9792L39.5814 22.037L39.0059 21.9855L38.9916 22.2053L39.567 22.2567L39.4964 23.3144L38.9209 23.263L38.9065 23.4827L39.482 23.5342L39.4114 24.5919L38.8359 24.5404L38.8215 24.7602L39.397 24.8116L39.3264 25.8694L38.7509 25.8179L38.7365 26.0377L39.312 26.0891L39.2414 27.1468L38.6659 27.0954L38.6515 27.3151L39.227 27.3666L39.1564 28.4243L38.5809 28.3728L38.5665 28.5926L39.142 28.644L39.0714 29.7018L38.4959 29.6503L38.4815 29.8701L39.057 29.9215L38.9863 30.9792L38.4109 30.9278L38.3965 31.1475L38.972 31.199L38.9013 32.2567L38.3259 32.2053L38.3115 32.425L38.8869 32.4765L38.738 34.7238L38.959 34.7432L39.1079 32.4959L40.1717 32.5907L40.0227 34.838L40.2437 34.8575L40.3927 32.6101L41.4564 32.7049L41.3075 34.9523L41.5285 34.9717L41.6774 32.7243L42.7412 32.8191L42.5922 35.0665L42.8132 35.0859L42.9622 32.8386L44.0259 32.9334L43.877 35.1807L44.098 35.2001L44.2469 32.9528L45.3107 33.0476L45.1617 35.2949L45.3827 35.3144L45.5317 33.067L46.5954 33.1618L46.4465 35.4092L46.6674 35.4286L46.8164 33.1812L47.8802 33.276L47.7312 35.5234L47.9522 35.5428L48.1012 33.2955L49.1649 33.3903L49.0159 35.6376L49.2369 35.6571L49.3859 33.4097L50.4497 33.5045L50.3007 35.7519L50.5217 35.7713L50.6706 33.5239L51.7344 33.6187L51.5854 35.8661L51.8064 35.8855L51.9554 33.6382L53.0191 33.733L52.8702 35.9803L53.0912 35.9997L53.2401 33.7524L54.3039 33.8472L54.1549 36.0945L54.3759 36.114L54.5249 33.8666L55.5886 33.9614L55.4397 36.2088L55.6607 36.2282L55.8096 33.9808L56.8734 34.0756L56.7244 36.323L56.9454 36.3424L57.0944 34.0951L58.2019 34.1933L58.0529 36.4406L58.2739 36.4601L58.4229 34.2127L59.5304 34.3109L59.3815 36.5583L59.6025 36.5777L59.7514 34.3303L60.859 34.4286L60.71 36.6759L60.931 36.6954L62.4429 14.0988L62.2206 14.0789ZM62.0572 16.546L61.9866 17.6037L60.8791 17.5055L60.9497 16.4477L62.0572 16.546ZM52.3472 24.4596L51.2834 24.3648L51.354 23.3071L52.4178 23.4019L52.3472 24.4596ZM52.64 23.4218L53.7038 23.5166L53.6332 24.5744L52.5694 24.4796L52.64 23.4218ZM51.0624 24.3454L49.9987 24.2506L50.0693 23.1928L51.133 23.2876L51.0624 24.3454ZM49.7777 24.2311L48.7139 24.1363L48.7845 23.0786L49.8483 23.1734L49.7777 24.2311ZM48.4929 24.1169L47.4292 24.0221L47.4998 22.9644L48.5635 23.0592L48.4929 24.1169ZM48.4785 24.3367L48.4079 25.3944L47.3442 25.2996L47.4148 24.2419L48.4785 24.3367ZM48.6995 24.3561L49.7633 24.4509L49.6927 25.5086L48.6289 25.4138L48.6995 24.3561ZM49.9843 24.4703L51.048 24.5651L50.9774 25.6228L49.9137 25.528L49.9843 24.4703ZM51.2703 24.5851L52.3341 24.6799L52.2634 25.7376L51.1997 25.6428L51.2703 24.5851ZM52.555 24.6993L53.6188 24.7941L53.5482 25.8518L52.4844 25.757L52.555 24.6993ZM53.8398 24.8135L54.9035 24.9083L54.8329 25.966L53.7692 25.8712L53.8398 24.8135ZM53.8542 24.5938L53.9248 23.5361L54.9885 23.6309L54.9179 24.6886L53.8542 24.5938ZM53.9397 23.315L54.0103 22.2573L55.0741 22.3521L55.0035 23.4098L53.9397 23.315ZM53.7187 23.2956L52.655 23.2008L52.7256 22.1431L53.7893 22.2379L53.7187 23.2956ZM52.4327 23.1808L51.3689 23.086L51.4395 22.0283L52.5033 22.1231L52.4327 23.1808ZM51.1479 23.0666L50.0842 22.9718L50.1548 21.9141L51.2185 22.0089L51.1479 23.0666ZM49.8627 22.9537L48.7989 22.8589L48.8695 21.8011L49.9333 21.8959L49.8627 22.9537ZM48.5779 22.8394L47.5142 22.7446L47.5848 21.6869L48.6485 21.7817L48.5779 22.8394ZM47.2919 22.7247L46.2281 22.6299L46.2987 21.5721L47.3625 21.6669L47.2919 22.7247ZM47.2775 22.9444L47.2069 24.0021L46.1431 23.9073L46.2137 22.8496L47.2775 22.9444ZM47.1938 24.2224L47.1232 25.2801L46.0594 25.1853L46.13 24.1276L47.1938 24.2224ZM47.1083 25.5012L47.0377 26.5589L45.9739 26.4641L46.0445 25.4064L47.1083 25.5012ZM47.3293 25.5206L48.393 25.6154L48.3224 26.6731L47.2587 26.5783L47.3293 25.5206ZM48.614 25.6348L49.6778 25.7296L49.6072 26.7873L48.5434 26.6925L48.614 25.6348ZM49.9006 25.7483L50.9643 25.8431L50.8937 26.9008L49.83 26.806L49.9006 25.7483ZM51.1853 25.8625L52.249 25.9573L52.1784 27.0151L51.1147 26.9203L51.1853 25.8625ZM52.47 25.9768L53.5338 26.0716L53.4632 27.1293L52.3994 27.0345L52.47 25.9768ZM53.7548 26.091L54.8185 26.1858L54.7479 27.2435L53.6842 27.1487L53.7548 26.091ZM55.0395 26.2052L56.1033 26.3L56.0327 27.3577L54.9689 27.2629L55.0395 26.2052ZM55.0539 25.9855L55.1245 24.9278L56.1883 25.0226L56.1177 26.0803L55.0539 25.9855ZM55.1394 24.7067L55.21 23.649L56.2738 23.7438L56.2032 24.8015L55.1394 24.7067ZM55.2244 23.4293L55.295 22.3715L56.3588 22.4663L56.2882 23.5241L55.2244 23.4293ZM55.3094 22.1518L55.38 21.0941L56.4438 21.1889L56.3732 22.2466L55.3094 22.1518ZM55.0885 22.1324L54.0247 22.0376L54.0953 20.9798L55.1591 21.0746L55.0885 22.1324ZM53.8037 22.0181L52.74 21.9233L52.8106 20.8656L53.8743 20.9604L53.8037 22.0181ZM52.5177 21.9034L51.4539 21.8086L51.5245 20.7509L52.5883 20.8457L52.5177 21.9034ZM51.2329 21.7892L50.1692 21.6944L50.2398 20.6366L51.3035 20.7314L51.2329 21.7892ZM49.9482 21.6749L48.8844 21.5801L48.955 20.5224L50.0188 20.6172L49.9482 21.6749ZM48.6634 21.5607L47.5997 21.4659L47.6703 20.4082L48.734 20.503L48.6634 21.5607ZM47.3774 21.4459L46.3137 21.3511L46.3843 20.2934L47.448 20.3882L47.3774 21.4459ZM46.0921 21.333L45.0284 21.2382L45.099 20.1805L46.1628 20.2753L46.0921 21.333ZM46.0777 21.5527L46.0071 22.6104L44.9434 22.5156L45.014 21.4579L46.0777 21.5527ZM45.9927 22.8302L45.9221 23.8879L44.8584 23.7931L44.929 22.7354L45.9927 22.8302ZM45.9077 24.1077L45.8371 25.1654L44.7734 25.0706L44.844 24.0129L45.9077 24.1077ZM45.8222 25.3864L45.7516 26.4441L44.6879 26.3493L44.7585 25.2916L45.8222 25.3864ZM45.7372 26.6639L45.6666 27.7216L44.6029 27.6268L44.6735 26.5691L45.7372 26.6639ZM45.9595 26.6838L47.0233 26.7786L46.9527 27.8364L45.8889 27.7416L45.9595 26.6838ZM47.2443 26.7981L48.308 26.8929L48.2374 27.9506L47.1737 27.8558L47.2443 26.7981ZM48.529 26.9123L49.5928 27.0071L49.5222 28.0648L48.4584 27.97L48.529 26.9123ZM49.815 27.0271L50.8788 27.1219L50.8082 28.1796L49.7444 28.0848L49.815 27.0271ZM51.0998 27.1413L52.1635 27.2361L52.0929 28.2938L51.0292 28.199L51.0998 27.1413ZM52.3845 27.2555L53.4483 27.3503L53.3777 28.408L52.3139 28.3132L52.3845 27.2555ZM53.6698 27.3685L54.7335 27.4633L54.6629 28.521L53.5992 28.4262L53.6698 27.3685ZM54.9558 27.4832L56.0196 27.578L55.949 28.6358L54.8852 28.541L54.9558 27.4832ZM56.2406 27.5975L57.3043 27.6923L57.2337 28.75L56.17 28.6552L56.2406 27.5975ZM56.255 27.3777L56.3256 26.32L57.3893 26.4148L57.3187 27.4725L56.255 27.3777ZM56.34 26.1002L56.4106 25.0425L57.4743 25.1373L57.4037 26.195L56.34 26.1002ZM56.4255 24.8215L56.4961 23.7638L57.5598 23.8586L57.4892 24.9163L56.4255 24.8215ZM56.5105 23.544L56.5811 22.4863L57.6448 22.5811L57.5742 23.6388L56.5105 23.544ZM56.5942 22.266L56.6648 21.2083L57.7285 21.3031L57.6579 22.3608L56.5942 22.266ZM56.6792 20.9886L56.7498 19.9308L57.8135 20.0256L57.7429 21.0834L56.6792 20.9886ZM56.4582 20.9691L55.3944 20.8743L55.465 19.8166L56.5288 19.9114L56.4582 20.9691ZM55.1735 20.8549L54.1097 20.7601L54.1803 19.7024L55.2441 19.7972L55.1735 20.8549ZM53.8874 20.7401L52.8237 20.6453L52.8943 19.5876L53.958 19.6824L53.8874 20.7401ZM52.6027 20.6259L51.5389 20.5311L51.6095 19.4734L52.6733 19.5682L52.6027 20.6259ZM51.3179 20.5117L50.2542 20.4169L50.3248 19.3592L51.3885 19.454L51.3179 20.5117ZM50.0332 20.3975L48.9694 20.3027L49.04 19.2449L50.1038 19.3397L50.0332 20.3975ZM48.7484 20.2832L47.6847 20.1884L47.7553 19.1307L48.819 19.2255L48.7484 20.2832ZM47.4624 20.1685L46.3999 20.0742L46.4705 19.0165L47.5343 19.1113L47.4624 20.1685ZM46.1777 20.0542L45.1139 19.9594L45.1845 18.9017L46.2483 18.9965L46.1777 20.0542ZM44.8929 19.94L43.8292 19.8452L43.8998 18.7875L44.9635 18.8823L44.8929 19.94ZM44.878 20.161L44.8074 21.2187L43.7437 21.1239L43.8143 20.0662L44.878 20.161ZM44.793 21.4385L44.7224 22.4962L43.6587 22.4014L43.7293 21.3437L44.793 21.4385ZM44.708 22.716L44.6374 23.7737L43.5736 23.6789L43.6443 22.6212L44.708 22.716ZM44.6225 23.9947L44.5519 25.0524L43.4881 24.9576L43.5587 23.8999L44.6225 23.9947ZM44.5375 25.2722L44.4669 26.3299L43.4031 26.2351L43.4737 25.1774L44.5375 25.2722ZM44.4525 26.5496L44.3819 27.6074L43.3181 27.5126L43.3887 26.4548L44.4525 26.5496ZM44.3675 27.8271L44.2969 28.8848L43.2331 28.79L43.3037 27.7323L44.3675 27.8271ZM44.5898 27.8471L45.6535 27.9419L45.5829 28.9996L44.5192 28.9048L44.5898 27.8471ZM45.8745 27.9613L46.9383 28.0561L46.8677 29.1138L45.8039 29.019L45.8745 27.9613ZM47.1593 28.0755L48.223 28.1703L48.1524 29.2281L47.0887 29.1333L47.1593 28.0755ZM48.444 28.1898L49.5078 28.2846L49.4372 29.3423L48.3734 29.2475L48.444 28.1898ZM49.73 28.3045L50.7938 28.3993L50.7232 29.457L49.6594 29.3622L49.73 28.3045ZM51.0148 28.4187L52.0785 28.5135L52.0079 29.5713L50.9442 29.4765L51.0148 28.4187ZM52.2995 28.533L53.3633 28.6278L53.2927 29.6855L52.2289 29.5907L52.2995 28.533ZM53.5843 28.6472L54.648 28.742L54.5774 29.7997L53.5137 29.7049L53.5843 28.6472ZM54.8703 28.762L55.9341 28.8568L55.8635 29.9145L54.7997 29.8197L54.8703 28.762ZM56.1556 28.8749L57.2193 28.9697L57.1487 30.0274L56.085 29.9326L56.1556 28.8749ZM57.4403 28.9892L58.5478 29.0874L58.4772 30.1451L57.3697 30.0469L57.4403 28.9892ZM57.4547 28.7694L57.5253 27.7117L58.6328 27.8099L58.5622 28.8676L57.4547 28.7694ZM57.5397 27.4919L57.6103 26.4342L58.7178 26.5324L58.6472 27.5902L57.5397 27.4919ZM57.6252 26.2132L57.6958 25.1555L58.8034 25.2537L58.7328 26.3114L57.6252 26.2132ZM57.7102 24.9357L57.7808 23.878L58.8884 23.9762L58.8178 25.0339L57.7102 24.9357ZM57.7952 23.6583L57.8658 22.6005L58.9734 22.6988L58.9028 23.7565L57.7952 23.6583ZM57.8802 22.3808L57.9508 21.3231L59.0584 21.4213L58.9878 22.479L57.8802 22.3808ZM57.9652 21.1033L58.0358 20.0456L59.1434 20.1438L59.0728 21.2015L57.9652 21.1033ZM58.0494 19.824L58.12 18.7663L59.2276 18.8645L59.157 19.9223L58.0494 19.824ZM57.8285 19.8046L56.7647 19.7098L56.8353 18.6521L57.8991 18.7469L57.8285 19.8046ZM56.5437 19.6904L55.48 19.5956L55.5506 18.5379L56.6143 18.6327L56.5437 19.6904ZM55.259 19.5762L54.1952 19.4814L54.2658 18.4236L55.3296 18.5184L55.259 19.5762ZM53.9724 19.4627L52.9087 19.3679L52.9793 18.3101L54.043 18.4049L53.9724 19.4627ZM52.6877 19.3484L51.6239 19.2536L51.6945 18.1959L52.7583 18.2907L52.6877 19.3484ZM51.4029 19.2342L50.3392 19.1394L50.4098 18.0817L51.4735 18.1765L51.4029 19.2342ZM50.1182 19.12L49.0544 19.0252L49.125 17.9675L50.1888 18.0623L50.1182 19.12ZM48.8322 19.0052L47.7684 18.9104L47.839 17.8527L48.9028 17.9475L48.8322 19.0052ZM47.5474 18.891L46.4837 18.7962L46.5543 17.7385L47.618 17.8333L47.5474 18.891ZM46.2627 18.7768L45.1989 18.682L45.2695 17.6242L46.3333 17.719L46.2627 18.7768ZM44.9779 18.6625L43.9142 18.5677L43.9848 17.51L45.0485 17.6048L44.9779 18.6625ZM43.6932 18.5483L42.6294 18.4535L42.7 17.3958L43.7638 17.4906L43.6932 18.5483ZM43.6783 18.7693L43.6077 19.8271L42.5439 19.7323L42.6145 18.6745L43.6783 18.7693ZM43.5933 20.0468L43.5227 21.1045L42.4589 21.0097L42.5295 19.952L43.5933 20.0468ZM43.5083 21.3243L43.4377 22.382L42.3739 22.2872L42.4445 21.2295L43.5083 21.3243ZM43.4233 22.6017L43.3527 23.6595L42.2889 23.5647L42.3595 22.5069L43.4233 22.6017ZM43.3377 23.8805L43.2671 24.9382L42.2034 24.8434L42.274 23.7857L43.3377 23.8805ZM43.2527 25.1579L43.1821 26.2157L42.1184 26.1209L42.189 25.0631L43.2527 25.1579ZM43.1677 26.4354L43.0971 27.4931L42.0334 27.3983L42.104 26.3406L43.1677 26.4354ZM43.0827 27.7129L43.0121 28.7706L41.9484 28.6758L42.019 27.6181L43.0827 27.7129ZM42.9972 28.9916L42.9266 30.0493L41.8629 29.9545L41.9335 28.8968L42.9972 28.9916ZM43.2195 29.0116L44.2833 29.1064L44.2127 30.1641L43.1489 30.0693L43.2195 29.0116ZM44.5048 29.1245L45.5685 29.2193L45.4979 30.2771L44.4342 30.1823L44.5048 29.1245ZM45.7895 29.2388L46.8533 29.3336L46.7827 30.3913L45.7189 30.2965L45.7895 29.2388ZM47.0743 29.353L48.138 29.4478L48.0674 30.5055L47.0037 30.4107L47.0743 29.353ZM48.3603 29.4678L49.424 29.5626L49.3534 30.6203L48.2897 30.5255L48.3603 29.4678ZM49.645 29.582L50.7088 29.6768L50.6382 30.7345L49.5744 30.6397L49.645 29.582ZM50.9298 29.6962L51.9935 29.791L51.9229 30.8487L50.8592 30.7539L50.9298 29.6962ZM52.2145 29.8104L53.2783 29.9052L53.2077 30.963L52.1439 30.8682L52.2145 29.8104ZM53.4993 29.9247L54.563 30.0195L54.4924 31.0772L53.4287 30.9824L53.4993 29.9247ZM54.7853 30.0394L55.8491 30.1342L55.7785 31.192L54.7147 31.0972L54.7853 30.0394ZM56.0701 30.1537L57.1338 30.2485L57.0632 31.3062L55.9995 31.2114L56.0701 30.1537ZM57.3548 30.2679L58.4623 30.3661L58.3917 31.4238L57.2842 31.3256L57.3548 30.2679ZM58.6846 30.3861L59.7922 30.4843L59.7216 31.542L58.614 31.4438L58.6846 30.3861ZM58.6995 30.1651L58.7701 29.1073L59.8777 29.2055L59.8071 30.2633L58.6995 30.1651ZM58.7845 28.8876L58.8551 27.8299L59.9627 27.9281L59.8921 28.9858L58.7845 28.8876ZM58.8695 27.6101L58.9401 26.5524L60.0477 26.6506L59.9771 27.7083L58.8695 27.6101ZM58.9545 26.3327L59.0251 25.2749L60.1327 25.3731L60.0621 26.4309L58.9545 26.3327ZM59.04 25.0539L59.1106 23.9962L60.2182 24.0944L60.1476 25.1521L59.04 25.0539ZM59.1238 23.7759L59.1944 22.7182L60.3019 22.8164L60.2313 23.8741L59.1238 23.7759ZM59.2088 22.4984L59.2794 21.4407L60.3869 21.5389L60.3163 22.5967L59.2088 22.4984ZM59.2938 21.221L59.3644 20.1632L60.4719 20.2615L60.4013 21.3192L59.2938 21.221ZM59.3793 19.9422L59.4499 18.8845L60.5574 18.9827L60.4868 20.0404L59.3793 19.9422ZM59.4643 18.6648L59.5349 17.607L60.6424 17.7053L60.5718 18.763L59.4643 18.6648ZM59.2433 18.6453L58.1357 18.5471L58.2063 17.4894L59.3139 17.5876L59.2433 18.6453ZM57.9135 18.5271L56.8497 18.4324L56.9203 17.3746L57.9841 17.4694L57.9135 18.5271ZM56.6287 18.4129L55.565 18.3181L55.6356 17.2604L56.6993 17.3552L56.6287 18.4129ZM55.3427 18.2982L54.2789 18.2034L54.3495 17.1456L55.4133 17.2404L55.3427 18.2982ZM54.0579 18.1839L52.9942 18.0891L53.0648 17.0314L54.1285 17.1262L54.0579 18.1839ZM52.7732 18.0697L51.7094 17.9749L51.78 16.9172L52.8438 17.012L52.7732 18.0697ZM51.4879 17.9567L50.4242 17.8619L50.4948 16.8042L51.5585 16.899L51.4879 17.9567ZM50.2032 17.8425L49.1394 17.7477L49.21 16.69L50.2738 16.7848L50.2032 17.8425ZM48.9172 17.7278L47.8534 17.633L47.924 16.5752L48.9878 16.67L48.9172 17.7278ZM47.6324 17.6135L46.5687 17.5187L46.6393 16.461L47.703 16.5558L47.6324 17.6135ZM46.3477 17.4993L45.2839 17.4045L45.3545 16.3468L46.4183 16.4416L46.3477 17.4993ZM45.0629 17.3851L43.9992 17.2903L44.0698 16.2325L45.1335 16.3273L45.0629 17.3851ZM43.7769 17.2703L42.7131 17.1755L42.7837 16.1178L43.8475 16.2126L43.7769 17.2703ZM42.4921 17.1561L41.4284 17.0613L41.499 16.0036L42.5627 16.0984L42.4921 17.1561ZM42.4772 17.3771L42.4066 18.4348L41.3429 18.34L41.4135 17.2823L42.4772 17.3771ZM42.3922 18.6546L42.3216 19.7123L41.2579 19.6175L41.3285 18.5598L42.3922 18.6546ZM42.3072 19.932L42.2366 20.9898L41.1729 20.895L41.2435 19.8372L42.3072 19.932ZM42.2222 21.2095L42.1516 22.2672L41.0879 22.1724L41.1585 21.1147L42.2222 21.2095ZM42.1385 22.4875L42.0679 23.5452L41.0042 23.4504L41.0748 22.3927L42.1385 22.4875ZM42.053 23.7662L41.9824 24.824L40.9186 24.7292L40.9893 23.6714L42.053 23.7662ZM41.968 25.0437L41.8974 26.1014L40.8336 26.0066L40.9042 24.9489L41.968 25.0437ZM41.883 26.3212L41.8124 27.3789L40.7486 27.2841L40.8192 26.2264L41.883 26.3212ZM41.798 27.5987L41.7274 28.6564L40.6636 28.5616L40.7342 27.5039L41.798 27.5987ZM41.7125 28.8774L41.6419 29.9351L40.5781 29.8403L40.6487 28.7826L41.7125 28.8774ZM41.6275 30.1549L41.5569 31.2126L40.4931 31.1178L40.5637 30.0601L41.6275 30.1549ZM41.8485 30.1743L42.9122 30.2691L42.8416 31.3268L41.7779 31.232L41.8485 30.1743ZM43.1345 30.2891L44.1983 30.3839L44.1277 31.4416L43.0639 31.3468L43.1345 30.2891ZM44.4193 30.4033L45.483 30.4981L45.4124 31.5558L44.3487 31.461L44.4193 30.4033ZM45.704 30.5175L46.7678 30.6123L46.6972 31.67L45.6334 31.5752L45.704 30.5175ZM46.9887 30.6317L48.0525 30.7265L47.9819 31.7843L46.9181 31.6895L46.9887 30.6317ZM48.2753 30.7452L49.339 30.84L49.2684 31.8978L48.2047 31.803L48.2753 30.7452ZM49.56 30.8595L50.6238 30.9543L50.5532 32.012L49.4894 31.9172L49.56 30.8595ZM50.8448 30.9737L51.9085 31.0685L51.8379 32.1262L50.7742 32.0314L50.8448 30.9737ZM52.1295 31.0879L53.1933 31.1827L53.1227 32.2404L52.0589 32.1456L52.1295 31.0879ZM53.4156 31.2027L54.4793 31.2975L54.4087 32.3552L53.345 32.2604L53.4156 31.2027ZM54.7003 31.3169L55.7641 31.4117L55.6935 32.4694L54.6297 32.3746L54.7003 31.3169ZM55.9851 31.4311L57.0488 31.5259L56.9782 32.5837L55.9144 32.4889L55.9851 31.4311ZM57.2698 31.5454L58.3773 31.6436L58.3067 32.7013L57.1992 32.6031L57.2698 31.5454ZM58.5996 31.6635L59.7072 31.7618L59.6366 32.8195L58.529 32.7213L58.5996 31.6635ZM59.9294 31.7817L61.037 31.8799L60.9664 32.9377L59.8588 32.8394L59.9294 31.7817ZM59.9438 31.562L60.0144 30.5043L61.122 30.6025L61.0514 31.6602L59.9438 31.562ZM60.0293 30.2832L60.0999 29.2255L61.2075 29.3237L61.1369 30.3815L60.0293 30.2832ZM60.1143 29.0058L60.1849 27.948L61.2925 28.0463L61.2219 29.104L60.1143 29.0058ZM60.1981 27.7278L60.2687 26.67L61.3762 26.7683L61.3056 27.826L60.1981 27.7278ZM60.2831 26.4503L60.3537 25.3926L61.4612 25.4908L61.3906 26.5485L60.2831 26.4503ZM60.3686 25.1716L60.4392 24.1138L61.5467 24.212L61.4761 25.2698L60.3686 25.1716ZM60.4536 23.8941L60.5242 22.8364L61.6317 22.9346L61.5611 23.9923L60.4536 23.8941ZM60.5386 22.6166L60.6092 21.5589L61.7167 21.6571L61.6461 22.7148L60.5386 22.6166ZM60.6236 21.3391L60.6942 20.2814L61.8017 20.3796L61.7311 21.4374L60.6236 21.3391ZM60.7086 20.0617L60.7792 19.004L61.8867 19.1022L61.8161 20.1599L60.7086 20.0617ZM60.7941 18.7829L60.8647 17.7252L61.9722 17.8234L61.9016 18.8812L60.7941 18.7829ZM60.7274 16.4278L60.6568 17.4855L59.5493 17.3873L59.6199 16.3296L60.7274 16.4278ZM59.3976 16.3096L59.327 17.3673L58.2194 17.2691L58.29 16.2114L59.3976 16.3096ZM58.0691 16.192L57.9985 17.2497L56.9347 17.1549L57.0053 16.0972L58.0691 16.192ZM56.7843 16.0777L56.7137 17.1355L55.65 17.0407L55.7206 15.9829L56.7843 16.0777ZM55.4983 15.963L55.4277 17.0207L54.3639 16.9259L54.4345 15.8682L55.4983 15.963ZM54.2135 15.8487L54.1429 16.9065L53.0792 16.8117L53.1498 15.7539L54.2135 15.8487ZM52.9288 15.7345L52.8582 16.7922L51.7944 16.6974L51.865 15.6397L52.9288 15.7345ZM51.6435 15.6216L51.5729 16.6793L50.5092 16.5845L50.5798 15.5268L51.6435 15.6216ZM50.3575 15.5068L50.2869 16.5645L49.2231 16.4697L49.2937 15.412L50.3575 15.5068ZM49.0728 15.3926L49.0022 16.4503L47.9384 16.3555L48.009 15.2978L49.0728 15.3926ZM47.788 15.2783L47.7174 16.3361L46.6537 16.2413L46.7243 15.1835L47.788 15.2783ZM46.5033 15.1641L46.4327 16.2218L45.3689 16.127L45.4395 15.0693L46.5033 15.1641ZM45.2172 15.0493L45.1466 16.1071L44.0829 16.0123L44.1535 14.9545L45.2172 15.0493ZM43.9325 14.9351L43.8619 15.9928L42.7981 15.898L42.8687 14.8403L43.9325 14.9351ZM42.6477 14.8209L42.5771 15.8786L41.5134 15.7838L41.584 14.7261L42.6477 14.8209ZM40.2992 14.6119L41.363 14.7067L41.2924 15.7644L40.2286 15.6696L40.2992 14.6119ZM40.2137 15.8906L41.2775 15.9854L41.2069 17.0431L40.1431 16.9483L40.2137 15.8906ZM40.1287 17.1681L41.1925 17.2629L41.1219 18.3206L40.0581 18.2258L40.1287 17.1681ZM40.0437 18.4455L41.1075 18.5403L41.0369 19.5981L39.9731 19.5033L40.0437 18.4455ZM39.9587 19.723L41.0225 19.8178L40.9519 20.8755L39.8881 20.7807L39.9587 19.723ZM39.8737 21.0005L40.9375 21.0953L40.8669 22.153L39.8031 22.0582L39.8737 21.0005ZM39.7895 22.2798L40.8533 22.3746L40.7827 23.4323L39.7189 23.3375L39.7895 22.2798ZM39.7045 23.5572L40.7683 23.652L40.6977 24.7097L39.6339 24.6149L39.7045 23.5572ZM39.6195 24.8347L40.6833 24.9295L40.6127 25.9872L39.5489 25.8924L39.6195 24.8347ZM39.5345 26.1122L40.5983 26.207L40.5277 27.2647L39.4639 27.1699L39.5345 26.1122ZM39.449 27.3909L40.5127 27.4857L40.4421 28.5434L39.3784 28.4486L39.449 27.3909ZM39.364 28.6684L40.4277 28.7632L40.3571 29.8209L39.2934 29.7261L39.364 28.6684ZM39.279 29.9458L40.3427 30.0406L40.2721 31.0984L39.2084 31.0036L39.279 29.9458ZM39.1234 32.281L39.194 31.2233L40.2577 31.3181L40.1871 32.3758L39.1234 32.281ZM40.4081 32.3953L40.4787 31.3375L41.5425 31.4323L41.4719 32.4901L40.4081 32.3953ZM41.6942 32.51L41.7648 31.4523L42.8285 31.5471L42.7579 32.6048L41.6942 32.51ZM42.9789 32.6242L43.0495 31.5665L44.1133 31.6613L44.0427 32.719L42.9789 32.6242ZM44.2637 32.7385L44.3343 31.6807L45.398 31.7755L45.3274 32.8333L44.2637 32.7385ZM45.5484 32.8527L45.619 31.795L46.6828 31.8898L46.6122 32.9475L45.5484 32.8527ZM46.8344 32.9675L46.905 31.9097L47.9688 32.0045L47.8982 33.0623L46.8344 32.9675ZM48.1197 33.0804L48.1903 32.0227L49.254 32.1175L49.1834 33.1752L48.1197 33.0804ZM49.4044 33.1946L49.475 32.1369L50.5388 32.2317L50.4682 33.2894L49.4044 33.1946ZM50.6892 33.3089L50.7598 32.2512L51.8235 32.346L51.7529 33.4037L50.6892 33.3089ZM51.9752 33.4236L52.0458 32.3659L53.1096 32.4607L53.039 33.5184L51.9752 33.4236ZM53.26 33.5379L53.3306 32.4801L54.3943 32.5749L54.3237 33.6327L53.26 33.5379ZM54.5447 33.6521L54.6153 32.5944L55.6791 32.6892L55.6085 33.7469L54.5447 33.6521ZM55.8294 33.7663L55.9001 32.7086L56.9638 32.8034L56.8932 33.8611L55.8294 33.7663ZM57.1142 33.8806L57.1848 32.8228L58.2923 32.921L58.2217 33.9788L57.1142 33.8806ZM58.444 33.9987L58.5146 32.941L59.6222 33.0392L59.5516 34.0969L58.444 33.9987ZM59.7738 34.1169L59.8444 33.0592L60.952 33.1574L60.8814 34.2151L59.7738 34.1169Z" fill="#20673E"/>
</g>
</g>
<defs>
<clipPath id="clip0_1494_1582">
<path d="M0 26C0 11.6406 11.6406 0 26 0C40.3594 0 52 11.6406 52 26C52 40.3594 40.3594 52 26 52C11.6406 52 0 40.3594 0 26Z" fill="white"/>
</clipPath>
<clipPath id="clip1_1494_1582">
<rect width="31.902" height="53.2271" fill="white" transform="matrix(0.0700832 -0.997541 -0.997541 -0.0700832 53.0957 28.4497)"/>
</clipPath>
<clipPath id="clip2_1494_1582">
<rect width="28.2993" height="25.2979" fill="white" transform="translate(-10.6123 1.03188)"/>
</clipPath>
</defs>
</svg>
