<svg width="225" height="225" viewBox="0 0 225 225" fill="none" xmlns="http://www.w3.org/2000/svg">
<g opacity="0.32">
<mask id="path-1-inside-1_608_6126" fill="white">
<path d="M225 112.5C225 174.632 174.632 225 112.5 225C50.368 225 0 174.632 0 112.5C0 50.368 50.368 0 112.5 0C174.632 0 225 50.368 225 112.5ZM14.625 112.5C14.625 166.555 58.4451 210.375 112.5 210.375C166.555 210.375 210.375 166.555 210.375 112.5C210.375 58.4451 166.555 14.625 112.5 14.625C58.4451 14.625 14.625 58.4451 14.625 112.5Z"/>
</mask>
<path d="M225 112.5C225 174.632 174.632 225 112.5 225C50.368 225 0 174.632 0 112.5C0 50.368 50.368 0 112.5 0C174.632 0 225 50.368 225 112.5ZM14.625 112.5C14.625 166.555 58.4451 210.375 112.5 210.375C166.555 210.375 210.375 166.555 210.375 112.5C210.375 58.4451 166.555 14.625 112.5 14.625C58.4451 14.625 14.625 58.4451 14.625 112.5Z" stroke="url(#paint0_linear_608_6126)" stroke-width="27.6923" stroke-linecap="round" mask="url(#path-1-inside-1_608_6126)"/>
</g>
<mask id="path-2-inside-2_608_6126" fill="white">
<path d="M217.687 112.5C221.726 112.5 225.025 115.777 224.763 119.808C223.249 143.07 214.537 165.356 199.743 183.527C183.407 203.594 160.652 217.415 135.314 222.663C109.975 227.91 83.6029 224.262 60.6404 212.334C37.6779 200.406 19.5291 180.927 9.25261 157.179C-1.02391 133.432 -2.79995 106.867 4.22378 81.963C11.2475 57.0587 26.6416 35.3369 47.8119 20.4582C68.9822 5.57944 94.6343 -1.54659 120.446 0.280934C143.819 1.93584 166.028 10.8412 184.022 25.6618C187.139 28.2294 187.27 32.8776 184.506 35.8216C181.741 38.7656 177.129 38.8869 173.987 36.3497C158.465 23.8161 139.429 16.2867 119.413 14.8694C96.9569 13.2795 74.6395 19.4791 56.2213 32.4236C37.8032 45.3681 24.4103 64.266 18.2997 85.9328C12.189 107.6 13.7342 130.71 22.6748 151.371C31.6153 172.031 47.4047 188.978 67.3821 199.356C87.3595 209.733 110.304 212.907 132.348 208.341C154.392 203.776 174.189 191.752 188.402 174.294C201.071 158.732 208.613 139.701 210.102 119.806C210.403 115.779 213.649 112.5 217.687 112.5Z"/>
</mask>
<path d="M217.687 112.5C221.726 112.5 225.025 115.777 224.763 119.808C223.249 143.07 214.537 165.356 199.743 183.527C183.407 203.594 160.652 217.415 135.314 222.663C109.975 227.91 83.6029 224.262 60.6404 212.334C37.6779 200.406 19.5291 180.927 9.25261 157.179C-1.02391 133.432 -2.79995 106.867 4.22378 81.963C11.2475 57.0587 26.6416 35.3369 47.8119 20.4582C68.9822 5.57944 94.6343 -1.54659 120.446 0.280934C143.819 1.93584 166.028 10.8412 184.022 25.6618C187.139 28.2294 187.27 32.8776 184.506 35.8216C181.741 38.7656 177.129 38.8869 173.987 36.3497C158.465 23.8161 139.429 16.2867 119.413 14.8694C96.9569 13.2795 74.6395 19.4791 56.2213 32.4236C37.8032 45.3681 24.4103 64.266 18.2997 85.9328C12.189 107.6 13.7342 130.71 22.6748 151.371C31.6153 172.031 47.4047 188.978 67.3821 199.356C87.3595 209.733 110.304 212.907 132.348 208.341C154.392 203.776 174.189 191.752 188.402 174.294C201.071 158.732 208.613 139.701 210.102 119.806C210.403 115.779 213.649 112.5 217.687 112.5Z" stroke="url(#paint1_linear_608_6126)" stroke-width="27.6923" stroke-linecap="round" mask="url(#path-2-inside-2_608_6126)"/>
<path d="M114.5 93.0021V156.377M114.5 93.0021C112.737 85.7354 109.7 79.5231 105.787 75.175C101.874 70.827 97.2653 68.5452 92.5625 68.6271C89.3302 68.6271 86.2302 69.9112 83.9446 72.1968C81.659 74.4824 80.375 77.5823 80.375 80.8146C80.375 84.047 81.659 87.1469 83.9446 89.4325C86.2302 91.7181 89.3302 93.0021 92.5625 93.0021M114.5 93.0021C116.263 85.7354 119.3 79.5231 123.213 75.175C127.126 70.827 131.735 68.5452 136.438 68.6271C139.67 68.6271 142.77 69.9112 145.055 72.1968C147.341 74.4824 148.625 77.5823 148.625 80.8146C148.625 84.047 147.341 87.1469 145.055 89.4325C142.77 91.7181 139.67 93.0021 136.438 93.0021M148.625 112.502V146.627C148.625 149.213 147.598 151.693 145.769 153.521C143.941 155.35 141.461 156.377 138.875 156.377H90.125C87.5391 156.377 85.0592 155.35 83.2307 153.521C81.4022 151.693 80.375 149.213 80.375 146.627V112.502M70.625 97.8771C70.625 96.5842 71.1386 95.3442 72.0529 94.4299C72.9671 93.5157 74.2071 93.0021 75.5 93.0021H153.5C154.793 93.0021 156.033 93.5157 156.947 94.4299C157.861 95.3442 158.375 96.5842 158.375 97.8771V107.627C158.375 108.92 157.861 110.16 156.947 111.074C156.033 111.988 154.793 112.502 153.5 112.502H75.5C74.2071 112.502 72.9671 111.988 72.0529 111.074C71.1386 110.16 70.625 108.92 70.625 107.627V97.8771Z" stroke="#FFE4A4" stroke-width="8" stroke-linecap="round" stroke-linejoin="round"/>
<defs>
<linearGradient id="paint0_linear_608_6126" x1="191.576" y1="30.163" x2="17.3507" y2="205.41" gradientUnits="userSpaceOnUse">
<stop stop-color="#FFF2D1"/>
<stop offset="1" stop-color="#FEC949"/>
</linearGradient>
<linearGradient id="paint1_linear_608_6126" x1="191.576" y1="30.163" x2="17.3507" y2="205.41" gradientUnits="userSpaceOnUse">
<stop stop-color="#FFF2D1"/>
<stop offset="1" stop-color="#FEC949"/>
</linearGradient>
</defs>
</svg>
