<svg width="1440" height="141" viewBox="0 0 1440 141" fill="none" xmlns="http://www.w3.org/2000/svg">
<path d="M0.0383868 221.999L1440.94 221.999L1440.94 0.0685615C1436.02 1.13316 1431.2 2.57797 1426.53 4.46002C1400.05 15.163 1379.4 39.0024 1372.77 66.5489C1357.06 58.1081 1341.53 64.3056 1325.82 72.7653C1310.12 81.2251 1299.23 97.8784 1297.86 115.52C1276.02 94.5135 1245.72 78.3545 1215.35 80.6928C1184.97 83.0311 1155.93 98.8099 1137.62 122.896C1113.1 105.635 1074.93 116.87 1057.91 141.413C1012.3 109.513 953.586 105.73 905.671 134.113C890.014 118.391 862.867 122.63 846.921 138.086C840.504 120.083 823.175 99.6273 804.828 93.753C786.48 87.8787 765.424 90.9585 749.574 101.833C738.354 87.3845 718.604 76.1682 700.603 79.9893C682.601 83.8105 667.443 98.5057 663.197 116.224C649.422 102.08 627.156 95.0838 607.579 98.3346C588.002 101.566 570.384 114.817 561.989 132.63C523.43 108.543 462.759 110.501 428.85 140.671C409.714 116.224 367.717 111.034 342.338 129.075C308.736 87.0232 242.032 76.016 194.925 102.479C179.901 72.518 136.251 63.7921 109.412 84.1336C88.8554 53.6975 53.7551 33.299 16.8489 30.9227C11.239 30.5615 5.6099 30.6565 8.0567e-06 31.1128L-3.62275e-05 221.999L0.0383868 221.999Z" fill="#F44535"/>
</svg>
