<svg width="900" height="43" viewBox="0 0 900 43" fill="none" xmlns="http://www.w3.org/2000/svg">
<g clip-path="url(#clip0_608_6133)">
<path d="M890.245 114.376C872.553 114.376 858.214 100.029 858.214 82.3291L858.214 34.4697C858.214 16.7698 872.553 2.42285 890.245 2.42285C907.937 2.42295 922.276 16.7698 922.276 34.4697L922.276 82.3291C922.276 100.029 907.937 114.376 890.245 114.376Z" fill="#F387AB" stroke="white" stroke-width="2.55208"/>
<path d="M829.381 114.376C811.689 114.376 797.35 100.029 797.35 82.3291L797.35 34.4697C797.35 16.7698 811.688 2.42285 829.381 2.42285C847.073 2.42295 861.412 16.7698 861.412 34.4697L861.412 82.3291C861.412 100.029 847.073 114.376 829.381 114.376Z" fill="#36AB67" stroke="white" stroke-width="2.55208"/>
<path d="M767.881 114.376C750.189 114.376 735.85 100.029 735.85 82.3291L735.85 34.4697C735.85 16.7698 750.188 2.42285 767.881 2.42285C785.573 2.42295 799.912 16.7698 799.912 34.4697L799.912 82.3291C799.912 100.029 785.573 114.376 767.881 114.376Z" fill="#1A66EA" stroke="white" stroke-width="2.55208"/>
<path d="M706.371 114.376C688.679 114.376 674.34 100.029 674.34 82.3291L674.34 34.4697C674.34 16.7698 688.678 2.42285 706.371 2.42285C724.063 2.42295 738.402 16.7698 738.402 34.4697L738.402 82.3291C738.402 100.029 724.063 114.376 706.371 114.376Z" fill="#FEBC1B" stroke="white" stroke-width="2.55208"/>
<path d="M644.861 114.376C627.168 114.376 612.83 100.029 612.829 82.3291L612.829 34.4697C612.829 16.7698 627.168 2.42285 644.861 2.42285C662.553 2.42294 676.892 16.7698 676.892 34.4697L676.892 82.3291C676.892 100.029 662.553 114.376 644.861 114.376Z" fill="#F387AB" stroke="white" stroke-width="2.55208"/>
<path d="M584.334 114.376C566.642 114.376 552.303 100.029 552.303 82.3291L552.303 34.4697C552.303 16.7698 566.642 2.42285 584.334 2.42285C602.027 2.42295 616.366 16.7698 616.366 34.4697L616.366 82.3291C616.365 100.029 602.027 114.376 584.334 114.376Z" fill="#36AB67" stroke="white" stroke-width="2.55208"/>
<path d="M523.265 114.376C505.573 114.376 491.234 100.029 491.234 82.3291L491.234 34.4697C491.234 16.7698 505.573 2.42285 523.265 2.42285C540.958 2.42295 555.297 16.7698 555.297 34.4697L555.297 82.3291C555.296 100.029 540.958 114.376 523.265 114.376Z" fill="#1A66EA" stroke="white" stroke-width="2.55208"/>
<path d="M461.755 114.376C444.063 114.376 429.724 100.029 429.724 82.3291L429.724 34.4697C429.724 16.7698 444.062 2.42285 461.755 2.42285C479.447 2.42295 493.786 16.7698 493.786 34.4697L493.786 82.3291C493.786 100.029 479.447 114.376 461.755 114.376Z" fill="#FEBC1B" stroke="white" stroke-width="2.55208"/>
<path d="M398.245 114.376C380.552 114.376 366.214 100.029 366.213 82.3291L366.213 34.4697C366.213 16.7698 380.552 2.42285 398.245 2.42285C415.937 2.42295 430.276 16.7698 430.276 34.4697L430.276 82.3291C430.276 100.029 415.937 114.376 398.245 114.376Z" fill="#F387AB" stroke="white" stroke-width="2.55208"/>
<path d="M337.38 114.376C319.688 114.376 305.349 100.029 305.349 82.3291L305.349 34.4697C305.349 16.7698 319.688 2.42285 337.38 2.42285C355.073 2.42295 369.412 16.7698 369.412 34.4697L369.412 82.3291C369.411 100.029 355.073 114.376 337.38 114.376Z" fill="#36AB67" stroke="white" stroke-width="2.55208"/>
<path d="M275.88 114.376C258.188 114.376 243.849 100.029 243.849 82.3291L243.849 34.4697C243.849 16.7698 258.188 2.42285 275.88 2.42285C293.573 2.42295 307.912 16.7698 307.912 34.4697L307.912 82.3291C307.911 100.029 293.573 114.376 275.88 114.376Z" fill="#1A66EA" stroke="white" stroke-width="2.55208"/>
<path d="M214.37 114.376C196.678 114.376 182.339 100.029 182.339 82.3291L182.339 34.4697C182.339 16.7698 196.678 2.42285 214.37 2.42285C232.063 2.42295 246.402 16.7698 246.402 34.4697L246.402 82.3291C246.401 100.029 232.063 114.376 214.37 114.376Z" fill="#FEBC1B" stroke="white" stroke-width="2.55208"/>
<path d="M152.86 114.376C135.168 114.376 120.829 100.029 120.829 82.3291L120.829 34.4697C120.829 16.7698 135.168 2.42285 152.86 2.42285C170.552 2.42294 184.891 16.7698 184.891 34.4697L184.891 82.3291C184.891 100.029 170.552 114.376 152.86 114.376Z" fill="#F387AB" stroke="white" stroke-width="2.55208"/>
<path d="M92.334 114.376C74.6417 114.376 60.303 100.029 60.3027 82.3291L60.3027 34.4697C60.3027 16.7698 74.6416 2.42285 92.334 2.42285C110.026 2.42295 124.365 16.7698 124.365 34.4697L124.365 82.3291C124.365 100.029 110.026 114.376 92.334 114.376Z" fill="#36AB67" stroke="white" stroke-width="2.55208"/>
<path d="M31.2649 114.376C13.5726 114.376 -0.766105 100.029 -0.766355 82.3291L-0.766351 34.4697C-0.766349 16.7698 13.5725 2.42285 31.2649 2.42285C48.9572 2.42295 63.2962 16.7698 63.2961 34.4697L63.2961 82.3291C63.2959 100.029 48.9571 114.376 31.2649 114.376Z" fill="#1A66EA" stroke="white" stroke-width="2.55208"/>
<path d="M-30.2456 114.376C-47.9379 114.376 -62.2766 100.029 -62.2769 82.3291L-62.2768 34.4697C-62.2768 16.7698 -47.938 2.42285 -30.2456 2.42285C-12.5533 2.42295 1.78565 16.7698 1.78565 34.4697L1.78565 82.3291C1.78539 100.029 -12.5534 114.376 -30.2456 114.376Z" fill="#FEBC1B" stroke="white" stroke-width="2.55208"/>
</g>
<defs>
<clipPath id="clip0_608_6133">
<rect width="900" height="42.9999" fill="white" transform="translate(900 43) rotate(-180)"/>
</clipPath>
</defs>
</svg>
