<svg width="1440" height="80" viewBox="0 0 1440 80" fill="none" xmlns="http://www.w3.org/2000/svg">
<g clip-path="url(#clip0_760_7250)">
<path d="M160 -0.161255C160 44.1145 124.187 80 80 80C35.8133 80 0 44.1145 0 -0.161255V-124.839C0 -169.114 35.8133 -205 80 -205C124.187 -205 160 -169.114 160 -124.839V-0.161255Z" fill="#FEC949"/>
<path d="M320 -0.161255C320 44.1145 283.963 80 239.5 80C195.037 80 159 44.1145 159 -0.161255V-124.839C159 -169.114 195.037 -205 239.5 -205C283.963 -205 320 -169.114 320 -124.839V-0.161255Z" fill="#FEC949"/>
<path d="M480 -0.161255C480 44.1145 444.187 80 400 80C355.813 80 320 44.1145 320 -0.161255V-124.839C320 -169.114 355.813 -205 400 -205C444.187 -205 480 -169.114 480 -124.839V-0.161255Z" fill="#FEC949"/>
<path d="M641 -0.161255C641 44.1145 604.963 80 560.5 80C516.037 80 480 44.1145 480 -0.161255V-124.839C480 -169.114 516.037 -205 560.5 -205C604.963 -205 641 -169.114 641 -124.839V-0.161255Z" fill="#FEC949"/>
<path d="M802 -0.161255C802 44.1145 765.963 80 721.5 80C677.037 80 641 44.1145 641 -0.161255V-124.839C641 -169.114 677.037 -205 721.5 -205C765.963 -205 802 -169.114 802 -124.839V-0.161255Z" fill="#FEC949"/>
<path d="M960 -0.161255C960 44.1145 924.187 80 880 80C835.813 80 800 44.1145 800 -0.161255V-124.839C800 -169.114 835.813 -205 880 -205C924.187 -205 960 -169.114 960 -124.839V-0.161255Z" fill="#FEC949"/>
<path d="M1119 -0.161255C1119 44.1145 1083.19 80 1039 80C994.813 80 959 44.1145 959 -0.161255V-124.839C959 -169.114 994.813 -205 1039 -205C1083.19 -205 1119 -169.114 1119 -124.839V-0.161255Z" fill="#FEC949"/>
<path d="M1280 -0.161255C1280 44.1145 1243.96 80 1199.5 80C1155.04 80 1119 44.1145 1119 -0.161255V-124.839C1119 -169.114 1155.04 -205 1199.5 -205C1243.96 -205 1280 -169.114 1280 -124.839V-0.161255Z" fill="#FEC949"/>
<path d="M1440 -0.161255C1440 44.1145 1404.19 80 1360 80C1315.81 80 1280 44.1145 1280 -0.161255V-124.839C1280 -169.114 1315.81 -205 1360 -205C1404.19 -205 1440 -169.114 1440 -124.839V-0.161255Z" fill="#FEC949"/>
</g>
<defs>
<clipPath id="clip0_760_7250">
<rect width="1440" height="80" fill="white"/>
</clipPath>
</defs>
</svg>
