<svg width="390" height="211" viewBox="0 0 390 211" fill="none" xmlns="http://www.w3.org/2000/svg">
<g clip-path="url(#clip0_760_7126)">
<path d="M180.597 93.7986L181.479 97.3138L183.99 94.7061C189.034 89.4793 196.337 90.651 200.338 94.9933C202.734 97.601 203.938 101.346 202.734 105.55L201.737 109.031L205.211 108.032C210.794 106.435 215.586 109.111 217.936 113.19C220.286 117.279 220.206 122.77 216.033 126.814L213.43 129.33L216.938 130.214C223.634 131.891 226.351 138.232 225.09 143.7C224.23 147.434 221.513 150.754 216.938 151.903L213.43 152.787L216.033 155.303C221.249 160.357 220.08 167.675 215.746 171.684C213.144 174.085 209.406 175.291 205.211 174.085L201.737 173.086L202.734 176.566C204.683 183.413 200.258 189.065 194.675 190.512C191.132 191.431 187.12 190.662 183.99 187.411L181.479 184.803L180.597 188.318C179.187 193.958 174.486 196.784 169.774 196.784C165.063 196.784 160.362 193.958 158.952 188.318L158.069 184.803L155.559 187.411C153.541 189.501 151.156 190.57 148.772 190.822C141.618 191.569 134.418 184.964 136.814 176.578L137.812 173.097L134.338 174.096C130.154 175.291 126.405 174.096 123.802 171.696C119.469 167.698 118.3 160.369 123.516 155.314L126.118 152.799L122.61 151.914C116.981 150.501 114.161 145.791 114.161 141.07C114.161 136.348 116.981 131.639 122.61 130.226L126.118 129.341L123.516 126.825C118.655 122.115 119.343 115.43 122.966 111.306C125.568 108.353 129.672 106.711 134.338 108.043L137.812 109.043L136.814 105.562C134.82 98.5659 139.486 92.8107 145.241 91.5241C148.691 90.7544 152.532 91.5815 155.559 94.7176L158.069 97.3253L158.952 93.8101C160.718 86.7567 167.631 84.1146 173.248 85.8722C176.619 86.9176 179.53 89.5597 180.597 93.7986Z" fill="#F44535"/>
<mask id="mask0_760_7126" style="mask-type:luminance" maskUnits="userSpaceOnUse" x="114" y="85" width="112" height="112">
<path d="M180.597 93.7986L181.479 97.3138L183.99 94.7061C189.034 89.4793 196.337 90.651 200.338 94.9933C202.734 97.601 203.938 101.346 202.734 105.55L201.737 109.031L205.211 108.032C210.794 106.435 215.586 109.111 217.936 113.19C220.286 117.279 220.206 122.77 216.033 126.814L213.43 129.33L216.938 130.214C223.634 131.891 226.351 138.232 225.09 143.7C224.23 147.434 221.513 150.754 216.938 151.903L213.43 152.787L216.033 155.303C221.249 160.357 220.08 167.675 215.746 171.684C213.144 174.085 209.406 175.291 205.211 174.085L201.737 173.086L202.734 176.566C204.683 183.413 200.258 189.065 194.675 190.512C191.132 191.431 187.12 190.662 183.99 187.411L181.479 184.803L180.597 188.318C179.187 193.958 174.486 196.784 169.774 196.784C165.063 196.784 160.362 193.958 158.952 188.318L158.069 184.803L155.559 187.411C153.541 189.501 151.156 190.57 148.772 190.822C141.618 191.569 134.418 184.964 136.814 176.578L137.812 173.097L134.338 174.096C130.154 175.291 126.405 174.096 123.802 171.696C119.469 167.698 118.3 160.369 123.516 155.314L126.118 152.799L122.61 151.914C116.981 150.501 114.161 145.791 114.161 141.07C114.161 136.348 116.981 131.639 122.61 130.226L126.118 129.341L123.516 126.825C118.655 122.115 119.343 115.43 122.966 111.306C125.568 108.353 129.672 106.711 134.338 108.043L137.812 109.043L136.814 105.562C134.82 98.5659 139.486 92.8107 145.241 91.5241C148.691 90.7544 152.532 91.5815 155.559 94.7176L158.069 97.3253L158.952 93.8101C160.718 86.7567 167.631 84.1146 173.248 85.8722C176.619 86.9176 179.53 89.5597 180.597 93.7986Z" fill="white"/>
</mask>
<g mask="url(#mask0_760_7126)">
<g opacity="0.5">
<path d="M233 85.39L225.777 92.6157L218.394 85.2292L211.057 92.5812L202.505 84L193.792 92.7305L185.159 84.0689L176.836 92.4089L168.49 84.0574L159.938 92.6386L151.741 84.425L143.372 92.8224L134.728 84.1608L126.233 92.6731L117.807 84.2412L109.392 92.6731L101 84.2527V87.1935L109.392 95.6024L117.807 87.1706L126.233 95.6139L134.728 87.1016L143.372 95.7518L151.741 87.3658L159.938 95.568L168.49 86.9868L176.836 95.3497L185.159 87.0097L193.792 95.6599L202.505 86.9408L211.057 95.5105L218.394 88.1585L225.777 95.5565L233 88.3193V85.39Z" fill="#C11202"/>
<path d="M233 95.0501L225.777 102.276L218.394 94.8778L211.057 102.241L202.505 93.6602L193.792 102.379L185.159 93.7291L176.836 102.069L168.49 93.7176L159.938 102.287L151.741 94.0852L143.372 102.483L134.728 93.821L126.233 102.333L117.807 93.8899L109.392 102.322L101 93.9129V96.8537L109.392 105.263L117.807 96.8307L126.233 105.274L134.728 96.7618L143.372 105.412L151.741 97.026L159.938 105.228L168.49 96.6469L176.836 105.01L185.159 96.6699L193.792 105.32L202.505 96.5895L211.057 105.171L218.394 97.8186L225.777 105.217L233 97.9795V95.0501Z" fill="#C11202"/>
<path d="M233 104.701L225.777 111.938L218.394 104.54L211.057 111.892L202.505 103.322L193.792 112.041L185.159 103.391L176.836 111.731L168.49 103.368L159.938 111.949L151.741 103.747L143.372 112.133L134.728 103.483L126.233 111.995L117.807 103.552L109.392 111.984L101 103.575V106.504L109.392 114.925L117.807 106.493L126.233 114.925L134.728 106.412L143.372 115.074L151.741 106.677L159.938 114.89L168.49 106.309L176.836 114.66L185.159 106.332L193.792 114.982L202.505 106.252L211.057 114.833L218.394 107.481L225.777 114.879L233 107.642V104.701Z" fill="#C11202"/>
<path d="M233 114.361L225.777 121.598L218.394 114.2L211.057 121.552L202.505 112.971L193.792 121.701L185.159 113.051L176.836 121.391L168.49 113.028L159.938 121.609L151.741 113.396L143.372 121.793L134.728 113.143L126.233 121.655L117.807 113.212L109.392 121.644L101 113.223V116.164L109.392 124.573L117.807 116.153L126.233 124.585L134.728 116.072L143.372 124.734L151.741 116.337L159.938 124.539L168.49 115.969L176.836 124.32L185.159 115.98L193.792 124.642L202.505 115.912L211.057 124.493L218.394 117.141L225.777 124.527L233 117.302V114.361Z" fill="#C11202"/>
<path d="M233 124.023L225.777 131.26L218.394 123.862L211.057 131.214L202.505 122.633L193.792 131.363L185.159 122.713L176.836 131.042L168.49 122.69L159.938 131.271L151.741 123.058L143.372 131.455L134.728 122.794L126.233 131.306L117.807 122.874L109.392 131.306L101 122.886V125.826L109.392 134.235L117.807 125.803L126.233 134.247L134.728 125.734L143.372 134.396L151.741 125.999L159.938 134.201L168.49 125.62L176.836 133.982L185.159 125.643L193.792 134.293L202.505 125.574L211.057 134.155L218.394 126.791L225.777 134.189L233 126.964V124.023Z" fill="#C11202"/>
<path d="M233 133.683L225.777 140.909L218.394 133.522L211.057 140.874L202.505 132.293L193.792 141.023L185.159 132.362L176.836 140.702L168.49 132.35L159.938 140.92L151.741 132.718L143.372 141.115L134.728 132.454L126.233 140.966L117.807 132.534L109.392 140.955L101 132.546V135.487L109.392 143.895L117.807 135.464L126.233 143.907L134.728 135.395L143.372 144.045L151.741 135.659L159.938 143.861L168.49 135.28L176.836 143.643L185.159 135.303L193.792 143.953L202.505 135.234L211.057 143.803L218.394 136.451L225.777 143.849L233 136.612V133.683Z" fill="#C11202"/>
<path d="M233 143.345L225.777 150.571L218.394 143.173L211.057 150.525L202.505 141.955L193.792 150.674L185.159 142.024L176.836 150.364L168.49 142.001L159.938 150.582L151.741 142.38L143.372 150.766L134.728 142.116L126.233 150.628L117.807 142.185L109.392 150.617L101 142.208V145.137L109.392 153.557L117.807 145.126L126.233 153.569L134.728 145.045L143.372 153.707L151.741 145.309L159.938 153.523L168.49 144.942L176.836 153.293L185.159 144.965L193.792 153.615L202.505 144.884L211.057 153.466L218.394 146.114L225.777 153.512L233 146.274V143.345Z" fill="#C11202"/>
<path d="M233 152.994L225.777 160.231L218.394 152.833L211.057 160.185L202.505 151.604L193.792 160.334L185.159 151.684L176.836 160.024L168.49 151.661L159.938 160.242L151.741 152.04L143.372 160.426L134.728 151.776L126.233 160.288L117.807 151.845L109.392 160.277L101 151.868V154.797L109.392 163.217L117.807 154.786L126.233 163.217L134.728 154.705L143.372 163.367L151.741 154.969L159.938 163.183L168.49 154.602L176.836 162.953L185.159 154.613L193.792 163.275L202.505 154.544L211.057 163.126L218.394 155.773L225.777 163.16L233 155.934V152.994Z" fill="#C11202"/>
<path d="M233 162.656L225.777 169.893L218.394 162.495L211.057 169.847L202.505 161.266L193.792 169.996L185.159 161.346L176.836 169.675L168.49 161.323L159.938 169.904L151.741 161.691L143.372 170.088L134.728 161.426L126.233 169.95L117.807 161.507L109.392 169.939L101 161.518V164.459L109.392 172.868L117.807 164.436L126.233 172.88L134.728 164.367L143.372 173.029L151.741 164.631L159.938 172.834L168.49 164.264L176.836 172.615L185.159 164.275L193.792 172.925L202.505 164.206L211.057 172.788L218.394 165.424L225.777 172.822L233 165.596V162.656Z" fill="#C11202"/>
<path d="M233 172.316L225.777 179.541L218.394 172.155L211.057 179.507L202.505 170.926L193.792 179.656L185.159 170.995L176.836 179.335L168.49 170.983L159.938 179.564L151.741 171.351L143.372 179.748L134.728 171.087L126.233 179.599L117.807 171.167L109.392 179.599L101 171.179V174.119L109.392 182.528L117.807 174.096L126.233 182.54L134.728 174.027L143.372 182.678L151.741 174.292L159.938 182.494L168.49 173.913L176.836 182.275L185.159 173.936L193.792 182.586L202.505 173.867L211.057 182.436L218.394 175.084L225.777 182.482L233 175.245V172.316Z" fill="#C11202"/>
<path d="M233 181.978L225.777 189.204L218.394 181.806L211.057 189.169L202.505 180.588L193.792 189.307L185.159 180.657L176.836 188.997L168.49 180.645L159.938 189.215L151.741 181.013L143.372 189.41L134.728 180.749L126.233 189.261L117.807 180.818L109.392 189.249L101 180.841V183.781L109.392 192.19L117.807 183.758L126.233 192.202L134.728 183.69L143.372 192.34L151.741 183.954L159.938 192.156L168.49 183.575L176.836 191.938L185.159 183.598L193.792 192.248L202.505 183.517L211.057 192.098L218.394 184.746L225.777 192.144L233 184.907V181.978Z" fill="#C11202"/>
<path d="M233 191.627L225.777 198.864L218.394 191.466L211.057 198.818L202.505 190.248L193.792 198.967L185.159 190.317L176.836 198.657L168.49 190.294L159.938 198.875L151.741 190.673L143.372 199.059L134.728 190.409L126.233 198.921L117.807 190.478L109.392 198.91L101 190.501V193.43L109.392 201.85L117.807 193.419L126.233 201.85L134.728 193.338L143.372 202L151.741 193.602L159.938 201.816L168.49 193.235L176.836 201.586L185.159 193.258L193.792 201.908L202.505 193.177L211.057 201.759L218.394 194.407L225.777 201.805L233 194.567V191.627Z" fill="#C11202"/>
</g>
</g>
<g clip-path="url(#clip1_760_7126)">
<path d="M8.2861 198.391C43.4291 172.09 61.7708 125.085 53.7097 81.9331C51.8626 72.0361 47.1169 60.8016 37.2566 58.7672C29.1915 57.1032 20.8742 63.1045 18.1017 70.862C15.3292 78.6196 17.2163 87.4224 21.1448 94.6632C34.5052 119.263 72.9695 124.905 92.8355 105.174C112.702 85.4427 107.337 46.9434 82.8379 33.3908C78.6536 31.0795 73.1262 29.5513 69.3417 32.4725C65.0361 35.7934 65.8687 42.5715 68.1814 47.5C77.7465 67.8597 106.391 75.8203 125.709 64.2792C145.029 52.7503 151.932 24.9987 141.329 5.14034C134.466 -7.71493 114.644 -16.1734 106.032 -4.40683C98.6684 5.67062 107.032 19.5885 115.858 28.4224C140.12 52.7347 172.97 71.7274 207.159 68.4072C241.347 65.087 273.243 32.2686 265.957 -1.30338" stroke="white" stroke-width="2" stroke-miterlimit="10"/>
</g>
<g clip-path="url(#clip2_760_7126)">
<path d="M44.1826 164.852C49.869 181.918 39.664 202.54 22.6672 208.317C5.67039 214.093 -15.123 204.013 -21.1807 187.07C-36.2714 144.813 29.9943 122.266 44.1826 164.852Z" fill="#1A66EA"/>
<mask id="mask1_760_7126" style="mask-type:luminance" maskUnits="userSpaceOnUse" x="-24" y="142" width="70" height="68">
<path d="M44.1826 164.852C49.869 181.918 39.664 202.54 22.6672 208.317C5.67039 214.093 -15.123 204.013 -21.1807 187.07C-36.2714 144.813 29.9943 122.266 44.1826 164.852Z" fill="white"/>
</mask>
<g mask="url(#mask1_760_7126)">
<path d="M4.92084 166.148C5.35352 166.053 5.78441 165.986 6.24276 166.051C6.46677 166.071 6.69327 166.104 6.91442 166.134L7.24401 166.188L7.57574 166.277C8.01554 166.412 8.43751 166.485 8.85841 166.627C9.27396 166.766 9.67988 166.835 10.0833 166.892C11.6706 167.089 13.2686 167.289 14.6283 167.95C14.9804 168.113 15.2939 168.334 15.6228 168.519C15.9434 168.713 16.2052 168.978 16.5056 169.184C16.6572 169.281 16.7745 169.421 16.9015 169.547C17.0285 169.672 17.1501 169.796 17.28 169.911C17.418 170.016 17.5232 170.158 17.6352 170.297C17.7486 170.43 17.8621 170.563 17.9837 170.687C18.432 171.218 18.9332 171.723 19.3901 172.308C19.8499 172.882 20.279 173.528 20.5361 174.259C21.0651 175.731 20.9559 177.379 20.9658 178.883C20.9797 180.394 20.9183 181.907 20.4674 183.247C20.0179 184.582 19.4875 185.77 18.6892 186.738C17.8677 187.728 16.5817 188.268 15.441 188.973C14.1701 189.756 12.7536 190.655 11.1349 191.004C10.9637 191.043 10.7925 191.083 10.6188 191.111L10.0916 191.152C9.91534 191.168 9.73913 191.183 9.56685 191.206L9.04536 191.226C8.70114 191.248 8.34944 191.319 8.01164 191.36C7.67242 191.406 7.30859 191.565 6.95759 191.677C6.83596 191.724 6.84058 192.113 6.96472 192.078C7.13593 192.038 7.3125 192 7.48764 191.967C7.66135 191.939 7.82936 191.933 8.00521 191.94C8.34443 191.98 8.69078 191.993 9.04569 192.059C9.22118 192.089 9.39918 192.131 9.58252 192.174L10.1283 192.235C10.4957 192.276 10.8763 192.333 11.2372 192.27C12.7882 192.132 14.1715 191.292 15.4634 190.622C16.8164 189.918 18.1787 189.221 19.2224 188.194C20.2608 187.165 20.88 185.881 21.4461 184.474C22.0108 183.073 22.4011 181.488 22.5064 179.833C22.6102 178.182 22.5878 176.447 22.1612 174.786C21.7464 173.145 21.0823 171.557 20.1257 170.205C19.6488 169.524 19.0192 168.984 18.3561 168.527L17.84 168.206C17.6684 168.097 17.5104 167.98 17.3128 167.904C16.9326 167.74 16.5948 167.524 16.2199 167.361C14.5531 166.583 12.6255 166.415 10.7507 166.306C10.5131 166.294 10.2813 166.26 10.0416 166.213C9.80581 166.173 9.56575 166.148 9.32748 166.096C9.08778 166.049 8.84024 165.988 8.59412 165.922L7.84648 165.802C7.59323 165.762 7.33748 165.711 7.08386 165.694C6.83275 165.69 6.58163 165.685 6.32624 165.697C5.81188 165.69 5.32748 165.829 4.86627 166.031C4.73393 166.075 4.79278 166.176 4.92084 166.148Z" fill="#4885EE"/>
<path d="M4.72067 165.888C6.29014 165.766 7.77794 165.286 9.37203 165.308C11.2629 165.335 13.0157 166.027 14.6401 166.6C16.2566 167.158 18.0436 167.551 19.2856 168.78C19.4404 168.93 19.587 169.089 19.7283 169.247C19.8585 169.425 19.9683 169.614 20.085 169.799L20.4227 170.358C20.519 170.555 20.6004 170.765 20.6899 170.966L20.956 171.557C21.0401 171.756 21.1026 171.973 21.18 172.176C21.2574 172.379 21.3415 172.579 21.4339 172.769C21.5195 172.963 21.5819 173.18 21.6743 173.37C22.3962 174.956 23.213 176.659 23.3934 178.511C23.5685 180.362 23.0605 182.172 22.6396 183.829C22.2254 185.481 21.94 187.231 20.9041 188.615C19.8629 189.997 18.2852 190.898 16.7639 191.803C15.031 192.834 13.0385 193.55 10.9881 193.926C8.94461 194.297 6.82868 194.489 4.79516 194.138C4.65711 194.119 4.59682 194.365 4.73879 194.392C6.51692 194.754 8.41383 195.165 10.3407 194.951C12.269 194.731 14.0732 193.948 15.7736 193.187C17.4861 192.425 19.0881 191.433 20.384 190.171C21.6717 188.917 22.7818 187.514 23.4899 185.792C24.1966 184.075 24.1385 182.13 24.1756 180.279C24.2156 178.418 24.19 176.459 23.6061 174.636C23.0223 172.812 22.1003 171.138 20.9553 169.719C19.7918 168.282 18.2466 167.372 16.5973 166.679C14.7824 165.918 12.8377 165.3 10.7524 165.078C8.73426 164.863 6.67254 165.281 4.64863 165.429C4.41357 165.429 4.4881 165.9 4.72067 165.888Z" fill="#4885EE"/>
<path d="M-4.17779 165.092C-2.50056 163.669 -0.69492 162.281 1.41889 161.54C3.50702 160.809 5.67683 160.181 7.90441 160.15C10.1188 160.104 12.315 160.361 14.4202 160.937C16.5347 161.52 18.3599 162.734 20.0688 163.911C21.7962 165.105 23.1559 166.708 24.3412 168.384C25.5332 170.056 26.6115 171.875 27.2502 173.878C27.8733 175.854 28.4508 177.915 28.4832 180.042C28.5102 182.166 28.0129 184.236 27.4322 186.233C26.8714 188.24 26.0641 190.204 24.8228 191.926C23.5896 193.639 22.1639 195.3 20.3761 196.579C18.5854 197.869 16.4466 198.574 14.3596 199.237C12.2536 199.905 10.0167 200.099 7.80843 200.101C7.59762 200.096 7.58512 200.721 7.8052 200.734C10.0841 200.768 12.3627 200.482 14.5497 199.875C16.7312 199.267 18.8422 198.366 20.7342 197.126C22.6368 195.889 24.201 194.225 25.5651 192.473C26.9455 190.703 27.6911 188.562 28.3282 186.484C28.9828 184.405 29.4858 182.228 29.4737 180.005C29.4585 177.814 29.6561 175.493 28.9638 173.304C28.2594 171.118 26.9475 169.208 25.6449 167.392C24.3213 165.548 22.4715 164.19 20.6331 162.961C18.7908 161.725 16.7562 160.672 14.5497 160.132C12.3592 159.597 10.0764 159.299 7.79956 159.471C5.53238 159.628 3.26306 160.093 1.14853 160.965C-0.987756 161.854 -2.67355 163.48 -4.31797 164.951C-4.45174 165.087 -4.32083 165.219 -4.17779 165.092Z" fill="#4885EE"/>
<path d="M0.988206 206.721C1.64167 207.022 2.34329 207.25 3.06488 207.403C3.78719 207.511 4.52912 207.567 5.26892 207.588C6.74529 207.579 8.20347 207.444 9.58175 207.351C12.8213 207.203 15.9667 206.551 18.9861 205.448C22.2678 204.244 25.313 202.36 27.9926 199.978C28.6838 199.41 29.3159 198.763 29.9812 198.143C30.6636 197.543 31.2457 196.826 31.8782 196.157C33.0981 194.771 34.1836 193.224 35.0197 191.559C35.4546 190.728 35.7492 189.842 36.0692 188.969C36.3517 188.086 36.5419 187.184 36.7602 186.283C36.9154 185.383 37.0385 184.474 37.1655 183.572C37.2347 182.672 37.3093 181.773 37.3785 180.872C37.5776 177.261 36.8804 173.678 35.7348 170.249C35.4313 169.392 35.1844 168.515 34.8285 167.661L34.3331 166.363C34.1747 165.927 33.9475 165.512 33.7528 165.084L33.1307 163.81C32.9035 163.395 32.6399 162.987 32.387 162.583C32.1274 162.182 31.8638 161.775 31.5838 161.386C31.2781 161.007 30.9574 160.642 30.63 160.28C28.0183 157.4 24.6258 155.058 21.0582 153.691C18.357 152.665 15.5255 152.488 12.8256 152.313C10.0944 152.169 7.45091 152.682 4.87019 153.218C2.30017 153.756 -0.427153 154.218 -2.86736 155.471C-2.95404 155.516 -2.78283 155.819 -2.69615 155.774C0.455677 154.113 3.91852 153.26 7.38741 152.962L10.0017 152.772C10.8766 152.738 11.7591 152.741 12.6459 152.727C13.533 152.776 14.424 152.833 15.3157 152.929C16.2039 153.081 17.096 153.24 17.9653 153.485C21.4138 154.483 24.6572 156.396 27.4387 158.814C30.2362 161.236 32.1697 164.357 33.5965 167.507C35.0467 170.699 35.8952 174.059 36.1252 177.46C36.3469 180.87 35.743 184.258 34.7541 187.521C34.2636 189.159 33.6632 190.779 32.9077 192.357C32.7375 192.757 32.5153 193.137 32.297 193.523L31.6303 194.663C31.1712 195.413 30.6097 196.096 30.0683 196.79C27.8003 199.476 24.9556 201.511 21.981 203.088C18.8128 204.768 15.488 206.154 11.8757 206.687C11.4516 206.751 11.0221 206.812 10.598 206.876C10.165 206.908 9.73051 206.946 9.29747 206.978C8.86052 207.004 8.42321 207.052 7.98518 207.06L6.66112 207.037C5.77865 207.034 4.89155 206.899 4.0155 206.744C3.1391 206.612 2.2841 206.315 1.46156 206.003C1.04352 205.851 0.570877 206.523 0.988206 206.721Z" fill="#4885EE"/>
<path d="M-3.74302 166.143C-1.99159 164.529 0.23672 163.596 2.42044 162.852C4.64198 162.094 7.02615 162.185 9.25836 162.286C11.5095 162.382 13.7135 162.909 15.6739 163.811C15.9125 163.927 16.165 164.012 16.3998 164.12C16.6316 164.239 16.8717 164.349 17.1117 164.459C17.3518 164.569 17.5975 164.658 17.8362 164.773L18.5289 165.142C18.7593 165.266 18.9993 165.376 19.2215 165.51L19.8593 165.955C20.0705 166.108 20.2845 166.251 20.4792 166.423C20.6658 166.605 20.8456 166.79 21.0225 166.985C21.194 167.18 21.3685 167.364 21.5318 167.567L21.9513 168.228L22.3493 168.882L22.67 169.59L22.9949 170.282L23.2603 171.004C23.352 171.24 23.445 171.47 23.5488 171.704C23.6337 171.943 23.7118 172.187 23.7996 172.416C24.5304 174.29 24.8735 176.305 25.0075 178.287C25.0361 178.78 25.1185 179.264 25.147 179.757C25.1983 180.25 25.2886 180.748 25.2982 181.248C25.3253 181.746 25.3884 182.259 25.3417 182.755C25.311 183.254 25.3056 183.767 25.1611 184.242C25.0327 184.721 24.9296 185.213 24.7077 185.656C24.5019 186.103 24.3414 186.573 24.0731 186.975C23.6083 187.832 23.0736 188.608 22.5614 189.407C21.5344 190.992 20.2884 192.582 18.6308 193.782C16.98 194.978 15.1016 196.038 13.0302 196.556C12.5101 196.657 11.9822 196.743 11.4536 196.79C10.9189 196.795 10.391 196.797 9.86593 196.787C9.33624 196.731 8.81582 196.683 8.30182 196.653C7.78996 196.573 7.27917 196.511 6.76766 196.493C6.26365 196.427 5.75643 196.394 5.23672 196.386C4.72843 196.335 4.21871 196.29 3.69258 196.263C3.18179 196.2 2.66887 196.103 2.14773 196.015C1.64051 195.896 1.15576 195.715 0.658888 195.536C0.44523 195.456 0.485895 195.347 0.695274 195.443C2.52582 196.401 4.52687 197.194 6.67739 197.537C8.82256 197.877 11.0626 197.821 13.2542 197.432C15.4457 197.044 17.5585 196.2 19.4494 195.029C21.3417 193.852 22.8267 192.183 24.0441 190.443C25.2709 188.712 26.3795 186.8 26.8943 184.643C27.4048 182.503 27.5811 180.261 27.4335 178.03C27.2794 175.78 27.1475 173.404 26.2783 171.191C25.4141 169.001 24.1746 166.928 22.5139 165.165C20.8506 163.389 18.6327 162.207 16.3724 161.247C14.0867 160.275 11.563 159.913 9.06402 159.866C6.56108 159.811 3.96431 160 1.57584 160.953C-0.792308 161.894 -3.08484 163.237 -4.76315 165.156C-5.6164 166.115 -4.60305 166.934 -3.74302 166.143Z" fill="#4885EE"/>
<path d="M10.8672 158.124C13.546 158.785 16.3096 159.428 18.8546 160.653C21.3772 161.854 23.7435 163.509 25.4944 165.599C27.3103 167.747 28.3707 170.36 29.2007 172.934C30.0317 175.525 30.4697 178.257 30.2766 180.968C30.1007 183.615 29.73 186.346 28.5115 188.754C27.899 189.948 27.0696 191.01 26.1522 191.951C25.2294 192.891 24.2331 193.72 23.2425 194.528C21.1619 196.236 18.9556 197.985 16.3335 198.932C13.7613 199.864 10.9712 200.646 8.18865 200.352C7.67001 200.275 7.41852 200.979 7.98246 201.078C10.7147 201.496 13.5555 200.996 16.2101 200.206C18.8807 199.421 21.4229 198.173 23.7404 196.522C26.013 194.911 27.8625 192.695 29.3286 190.263C30.8026 187.844 32.0322 185.159 32.4485 182.257C32.8741 179.278 32.2215 176.278 31.49 173.422C30.7574 170.548 29.5415 167.746 27.7088 165.297L27.3632 164.81L26.989 164.345L26.2518 163.394C26.0192 163.063 25.7296 162.774 25.4631 162.463L24.6449 161.536C24.0685 160.948 23.4364 160.396 22.8058 159.839C22.1324 159.356 21.4486 158.848 20.7135 158.445C19.2321 157.66 17.6273 157.122 16.0119 156.837C15.2 156.7 14.4003 156.559 13.5881 156.53L12.3846 156.442C11.9873 156.427 11.5828 156.438 11.1893 156.43C10.0076 156.41 9.77819 157.844 10.8672 158.124Z" fill="#4885EE"/>
<path d="M-8.07544 153.442C-5.04953 152.015 -1.97083 150.562 1.34719 149.865C4.55891 149.179 7.83411 149.325 11.0369 149.465C11.8527 149.523 12.6734 149.521 13.4845 149.618C14.3025 149.712 15.1193 149.788 15.9315 149.903C16.7405 150.051 17.5505 150.217 18.3442 150.401C19.1389 150.602 19.919 150.88 20.6816 151.158C24.0431 152.481 26.9091 154.905 29.484 157.387L30.4621 158.317C30.7998 158.618 31.082 158.957 31.398 159.275C32.0097 159.924 32.666 160.557 33.2018 161.254C34.3571 162.614 35.3522 164.079 36.0905 165.647C37.5497 168.783 38.4142 172.063 38.7962 175.367C39.1721 178.63 39.0717 181.936 38.4253 185.205C37.786 188.447 36.6741 191.676 34.9109 194.64C34.4468 195.366 33.9627 196.081 33.4045 196.731C32.8277 197.364 32.2323 197.98 31.6266 198.572L29.7165 200.2C29.0691 200.712 28.4113 201.197 27.7878 201.727C25.2373 203.755 22.4094 205.32 19.4634 206.448C16.5053 207.579 13.3995 208.277 10.232 208.541C7.05238 208.808 3.76969 208.624 0.518769 207.873C0.0539946 207.789 -0.249915 207.981 -0.316269 208.272C-0.386546 208.555 -0.211066 208.928 0.280104 209.042C3.91732 210 7.58989 209.905 11.0934 209.628C14.6251 209.353 18.105 208.607 21.3906 207.239C24.6694 205.874 27.9193 204.125 30.6916 201.569C33.4718 199.026 35.4462 195.531 36.9755 192.157C37.3636 191.307 37.7275 190.463 38.133 189.613C38.5037 188.765 38.8315 187.905 39.1797 187.034C39.505 186.162 39.7433 185.273 39.9912 184.369C40.2217 183.466 40.3341 182.554 40.4333 181.628C40.7116 177.935 40.3803 174.228 39.4312 170.6C38.4797 166.96 36.591 163.543 34.3122 160.342C33.7811 159.52 33.1187 158.76 32.5038 157.973C31.9039 157.173 31.1709 156.463 30.4693 155.722C29.7773 154.965 28.9747 154.322 28.1765 153.663C27.3839 152.983 26.5261 152.439 25.6575 151.892C22.1462 149.759 18.2797 148.523 14.4313 147.84C13.949 147.756 13.4643 147.661 12.976 147.621C12.4876 147.582 12.0018 147.554 11.5146 147.532C11.0259 147.515 10.5347 147.486 10.0482 147.504L8.58822 147.581C8.10275 147.617 7.61621 147.635 7.13181 147.688L5.68754 147.877L4.24862 148.068L2.8154 148.323C-1.00557 148.972 -4.80122 150.318 -8.33901 152.435C-10.1618 153.545 -9.59392 154.165 -8.07544 153.442Z" fill="#4885EE"/>
<path d="M3.79746 172.159C5.0527 171.605 6.66783 171.313 8.2266 171.274C8.42671 171.276 8.62575 171.261 8.82087 171.239C9.01491 171.2 9.21858 171.231 9.41512 171.204C9.81498 171.146 10.207 171.159 10.6104 171.13C10.8152 171.094 11.0039 171.139 11.204 171.141C11.3998 171.159 11.6085 171.13 11.7932 171.168C12.1642 171.239 12.5708 171.262 12.9068 171.42C13.0377 171.467 13.1619 171.517 13.286 171.568C13.4073 171.629 13.5025 171.723 13.6088 171.797L13.9195 172.029C14.019 172.107 14.0857 172.222 14.1717 172.307C14.2562 172.398 14.3368 172.483 14.4242 172.563C14.5116 172.644 14.5569 172.753 14.6321 172.836C14.7691 173.01 14.9364 173.134 15.0748 173.303C15.6961 173.852 16.5151 174.476 17.0098 175.476C17.4992 176.475 17.5416 177.708 17.666 178.849C17.7909 179.967 18.0034 181.142 17.7558 182.195C17.5154 183.22 17.3306 184.21 16.8155 184.934C16.2772 185.68 15.2738 186.022 14.4456 186.587C13.5941 187.175 12.5019 187.528 11.4179 187.871C11.2802 187.914 11.1529 187.982 11.0191 188.032C10.8814 188.075 10.7462 188.13 10.6149 188.192C10.4783 188.253 10.3442 188.325 10.2087 188.403C10.0681 188.457 9.93293 188.512 9.78954 188.576L9.3647 188.77C9.22416 188.824 9.0772 188.859 8.93274 188.906L8.48758 189.026C8.33919 189.066 8.19437 189.05 8.04777 189.063C6.86781 189.1 5.80736 188.799 4.82252 188.558C4.62598 188.5 4.37842 189.038 4.59065 189.124C5.65431 189.477 6.85852 189.52 8.09127 189.542C9.32794 189.571 10.6809 189.637 11.9679 189.285C12.1298 189.237 12.2928 189.207 12.443 189.139L12.8817 188.914C13.028 188.839 13.1742 188.764 13.3112 188.681L13.7039 188.392L14.0963 188.126C14.2108 188.02 14.3292 187.92 14.4516 187.828C14.5739 187.735 14.6949 187.647 14.8236 187.573C14.9353 187.478 15.0455 187.387 15.1689 187.312C16.142 186.677 16.8925 185.93 17.4815 185.123C18.0608 184.331 18.8277 183.395 19.1184 182.16C19.4049 180.941 19.5002 179.58 19.3265 178.238C19.1642 176.938 18.9517 175.592 18.3824 174.463C17.8103 173.345 17.1148 172.388 16.2933 171.666C15.4719 170.943 14.3583 170.605 13.2176 170.197C13.1134 170.157 13.0107 170.113 12.9094 170.063L12.5805 169.963C12.364 169.894 12.1464 169.807 11.9288 169.72C11.4669 169.625 11.0271 169.404 10.5434 169.326C9.59282 169.043 8.5773 168.959 7.55501 168.965C5.78328 169.049 4.08145 170.072 3.08302 171.208C2.81656 171.582 2.8401 171.879 3.01986 172.065C3.20356 172.257 3.51674 172.329 3.79746 172.159Z" fill="#4885EE"/>
<path d="M-1.38608 156.94C1.20358 155.579 4.08214 155.066 6.88936 154.819C7.24178 154.788 7.59598 154.729 7.9509 154.71L9.02135 154.632L10.0961 154.537L11.1737 154.518C11.8938 154.505 12.6247 154.495 13.3445 154.591C14.0672 154.676 14.7902 154.739 15.4918 154.967C16.1924 155.177 16.8851 155.374 17.5435 155.699C18.202 156.024 18.8526 156.335 19.4754 156.708L21.3081 157.872C21.8923 158.303 22.4809 158.717 23.0887 159.103C25.4942 160.741 27.9967 162.53 29.6332 164.983C31.2657 167.43 32.1424 170.193 32.824 172.893C33.5056 175.593 33.9895 178.388 33.7683 181.183C33.5667 183.84 33.033 186.516 31.965 189.004C30.8902 191.496 29.1134 193.611 27.3117 195.52C26.8383 195.981 26.3782 196.457 25.8613 196.866C25.3366 197.262 24.808 197.651 24.2768 198.029L22.6182 199.04C22.0624 199.359 21.4871 199.644 20.9352 199.97C18.7066 201.182 16.4026 202.397 13.8854 202.995C11.371 203.583 8.75961 203.762 6.13503 203.67C3.52258 203.575 0.82274 203.314 -1.82572 202.433C-2.77167 202.111 -3.07132 202.887 -2.0765 203.262C0.749588 204.293 3.66843 204.978 6.56231 205.114C9.43872 205.251 12.3672 205.408 15.2158 204.75C18.0605 204.085 20.5874 202.531 23.0736 201.085C25.5652 199.641 28.0885 197.971 30.0543 195.621C32.0255 193.273 33.3022 190.413 34.2386 187.581C35.175 184.75 36.0219 181.803 35.9271 178.776C35.8323 175.834 34.8732 173.014 33.8792 170.282C32.8905 167.551 31.7812 164.714 29.8298 162.302C29.3205 161.72 28.8125 161.133 28.25 160.6C27.6658 160.084 27.068 159.576 26.4659 159.083L24.5419 157.746C23.8945 157.315 23.2179 156.951 22.5662 156.537C20.0761 155.065 17.4687 153.624 14.5948 152.986C13.8796 152.851 13.1537 152.714 12.4264 152.667C11.7016 152.633 10.9697 152.625 10.247 152.625C9.52649 152.661 8.80274 152.729 8.08328 152.782C7.36525 152.829 6.65649 152.97 5.94345 153.042C5.22648 153.107 4.51522 153.236 3.79755 153.346L2.72032 153.514C2.36183 153.589 2.00585 153.676 1.64986 153.764C0.223773 154.078 -1.1695 154.612 -2.42902 155.353C-3.65466 156.161 -2.54787 157.616 -1.38608 156.94Z" fill="#4885EE"/>
</g>
<path d="M44.1826 164.852C49.869 181.918 39.664 202.54 22.6672 208.317C5.67039 214.093 -15.123 204.013 -21.1807 187.07C-36.2714 144.813 29.9943 122.266 44.1826 164.852Z" stroke="#1A66EA" stroke-miterlimit="10"/>
</g>
<circle cx="269.5" cy="95.5" r="10.5" stroke="white" stroke-width="2"/>
</g>
<defs>
<clipPath id="clip0_760_7126">
<rect width="390" height="211" fill="white"/>
</clipPath>
<clipPath id="clip1_760_7126">
<rect width="180.084" height="300.462" fill="white" transform="translate(8.00999 200.15) rotate(-103.854)"/>
</clipPath>
<clipPath id="clip2_760_7126">
<rect width="71" height="71" fill="white" transform="translate(-24 140)"/>
</clipPath>
</defs>
</svg>
