<svg width="390" height="211" viewBox="0 0 390 211" fill="none" xmlns="http://www.w3.org/2000/svg">
<g clip-path="url(#clip0_760_7182)">
<path d="M177.658 137.141L159.862 137.063L149.711 151.681C148.64 153.219 147.085 154.051 145.477 154.233C142.797 154.538 139.97 153.053 139.016 150.08L133.59 133.134L116.556 127.994C114.164 127.271 112.707 125.336 112.347 123.215C111.993 121.096 112.743 118.787 114.774 117.328L129.217 106.929L128.839 89.1397C128.769 85.8346 131.221 83.4255 134.061 83.0288C135.515 82.8274 137.067 83.1474 138.431 84.1459L152.783 94.6652L169.584 88.8065C171.791 88.0393 173.96 88.6093 175.488 89.9206C177.224 91.4111 178.126 93.865 177.292 96.3909L171.718 113.289L182.482 127.459C183.778 129.166 183.994 131.202 183.422 132.96C182.661 135.301 180.511 137.156 177.658 137.141Z" fill="#36AB67"/>
<mask id="mask0_760_7182" style="mask-type:luminance" maskUnits="userSpaceOnUse" x="112" y="83" width="72" height="72">
<path d="M177.937 137.262L160.048 137.046L149.953 151.499C148.888 153.02 147.332 153.835 145.716 154.003C143.025 154.285 140.172 152.787 139.19 149.824L133.609 132.936L116.446 127.693C114.036 126.955 112.557 125.02 112.18 122.91C111.808 120.8 112.544 118.511 114.575 117.076L129.016 106.851L128.502 89.1633C128.407 85.8771 130.853 83.5014 133.705 83.1291C135.166 82.9403 136.727 83.2704 138.106 84.2737L152.612 94.8429L169.457 89.1497C171.67 88.4041 173.855 88.9878 175.401 90.3032C177.157 91.7984 178.083 94.2449 177.262 96.7495L171.787 113.505L182.713 127.675C184.029 129.382 184.262 131.407 183.7 133.151C182.953 135.472 180.805 137.3 177.937 137.262Z" fill="white"/>
</mask>
<g mask="url(#mask0_760_7182)">
<path opacity="0.5" d="M183.095 61.7393L184.538 70.67L180.132 71.3187L178.689 62.388L177.81 62.518L179.253 71.4488L174.847 72.0974L173.403 63.1667L172.524 63.2968L173.967 72.2275L169.561 72.8761L168.118 63.9454L167.239 64.0755L168.682 73.0062L164.45 73.6274L163.007 64.6967L162.128 64.8268L163.571 73.7575L159.338 74.3787L157.895 65.448L157.016 65.5781L158.459 74.5088L154.226 75.13L152.783 66.1992L151.904 66.3293L153.347 75.26L149.115 75.8812L147.672 66.9505L146.793 67.0806L148.236 76.0113L144.003 76.6325L142.56 67.7018L141.681 67.8319L143.124 76.7626L138.892 77.3838L137.449 68.453L136.57 68.5831L138.013 77.5139L133.78 78.135L132.337 69.2043L131.458 69.3344L132.901 78.2651L128.669 78.8863L127.226 69.9556L126.346 70.0857L127.79 79.0164L123.557 79.6376L122.114 70.7069L121.235 70.8369L122.678 79.7677L118.445 80.3888L117.002 71.4581L116.123 71.5882L117.566 80.5189L113.334 81.1401L111.891 72.2094L111.012 72.3395L112.455 81.2702L108.222 81.8914L106.779 72.9607L105.9 73.0908L107.343 82.0215L103.111 82.6426L101.668 73.7119L100.789 73.842L102.232 82.7727L97.9991 83.3939L96.5561 74.4632L95.6486 74.5942L97.0916 83.5249L94.7965 83.8594L94.9383 84.7325L97.2279 84.3971L97.9051 88.6008L95.6155 88.9362L95.7573 89.8093L98.0469 89.4739L98.7241 93.6776L96.4345 94.013L96.5763 94.886L98.8659 94.5507L99.5431 98.7544L97.2535 99.0897L97.3953 99.9628L99.6849 99.6275L100.362 103.831L98.0725 104.167L98.2143 105.04L100.504 104.704L101.181 108.908L98.8915 109.243L99.0332 110.116L101.323 109.781L102 113.985L99.7105 114.32L99.8522 115.193L102.142 114.858L102.819 119.062L100.529 119.397L100.671 120.27L102.961 119.935L103.638 124.138L101.348 124.474L101.49 125.347L103.78 125.011L104.457 129.215L102.167 129.55L102.309 130.424L104.599 130.088L105.276 134.292L102.986 134.627L103.128 135.5L105.418 135.165L106.095 139.369L103.805 139.704L103.947 140.577L106.237 140.242L106.914 144.446L104.624 144.781L104.766 145.654L107.056 145.319L107.733 149.522L105.443 149.858L105.585 150.731L107.875 150.395L108.552 154.599L106.262 154.934L106.404 155.808L108.694 155.472L110.137 164.403L111.016 164.273L109.573 155.342L113.805 154.721L115.248 163.652L116.127 163.522L114.684 154.591L118.917 153.97L120.36 162.9L121.239 162.77L119.796 153.84L124.029 153.218L125.472 162.149L126.351 162.019L124.908 153.088L129.14 152.467L130.583 161.398L131.462 161.268L130.019 152.337L134.252 151.716L135.695 160.647L136.574 160.516L135.131 151.586L139.363 150.965L140.806 159.895L141.685 159.765L140.242 150.834L144.475 150.213L145.918 159.144L146.797 159.014L145.354 150.083L149.586 149.462L151.029 158.393L151.909 158.263L150.466 149.332L154.698 148.711L156.141 157.641L157.02 157.511L155.577 148.581L159.81 147.959L161.253 156.89L162.132 156.76L160.689 147.829L164.921 147.208L166.364 156.139L167.243 156.009L165.8 147.078L170.033 146.457L171.476 155.388L172.355 155.258L170.912 146.327L175.144 145.706L176.587 154.636L177.466 154.506L176.023 145.576L180.256 144.954L181.699 153.885L182.578 153.755L181.135 144.824L185.541 144.176L186.984 153.106L187.863 152.976L186.42 144.046L190.827 143.397L192.27 152.328L193.149 152.198L191.706 143.267L196.112 142.618L197.555 151.549L198.434 151.419L183.98 61.6101L183.095 61.7393ZM184.68 71.5431L185.357 75.7468L180.951 76.3955L180.274 72.1918L184.68 71.5431ZM153.951 111.557L149.718 112.178L149.041 107.975L153.273 107.353L153.951 111.557ZM154.158 107.224L158.39 106.603L159.068 110.807L154.835 111.428L154.158 107.224ZM148.839 112.308L144.606 112.929L143.929 108.726L148.162 108.105L148.839 112.308ZM143.727 113.06L139.495 113.681L138.818 109.477L143.05 108.856L143.727 113.06ZM138.616 113.811L134.383 114.432L133.706 110.228L137.939 109.607L138.616 113.811ZM138.758 114.684L139.435 118.888L135.202 119.509L134.525 115.305L138.758 114.684ZM139.637 114.554L143.869 113.933L144.546 118.136L140.314 118.758L139.637 114.554ZM144.748 113.803L148.981 113.181L149.658 117.385L145.425 118.006L144.748 113.803ZM149.865 113.052L154.098 112.431L154.775 116.635L150.543 117.256L149.865 113.052ZM154.977 112.301L159.209 111.68L159.887 115.883L155.654 116.505L154.977 112.301ZM160.088 111.55L164.321 110.928L164.998 115.132L160.766 115.753L160.088 111.55ZM159.947 110.677L159.269 106.473L163.502 105.852L164.179 110.055L159.947 110.677ZM159.129 105.594L158.451 101.391L162.684 100.769L163.361 104.973L159.129 105.594ZM158.249 105.724L154.017 106.346L153.34 102.142L157.572 101.521L158.249 105.724ZM153.132 106.475L148.9 107.096L148.223 102.892L152.455 102.271L153.132 106.475ZM148.021 107.226L143.788 107.847L143.111 103.644L147.344 103.022L148.021 107.226ZM142.908 107.983L138.676 108.604L137.999 104.4L142.231 103.779L142.908 107.983ZM137.797 108.734L133.564 109.355L132.887 105.152L137.12 104.53L137.797 108.734ZM132.68 109.484L128.447 110.106L127.77 105.902L132.002 105.281L132.68 109.484ZM132.821 110.358L133.499 114.561L129.266 115.182L128.589 110.979L132.821 110.358ZM133.646 115.435L134.323 119.639L130.091 120.26L129.413 116.056L133.646 115.435ZM134.464 120.517L135.141 124.721L130.909 125.342L130.232 121.139L134.464 120.517ZM135.343 120.387L139.576 119.766L140.253 123.97L136.02 124.591L135.343 120.387ZM140.455 119.636L144.687 119.015L145.365 123.219L141.132 123.84L140.455 119.636ZM145.573 118.88L149.805 118.259L150.482 122.463L146.25 123.084L145.573 118.88ZM150.684 118.129L154.917 117.508L155.594 121.712L151.362 122.333L150.684 118.129ZM155.796 117.378L160.028 116.757L160.706 120.96L156.473 121.581L155.796 117.378ZM160.907 116.626L165.14 116.005L165.817 120.209L161.585 120.83L160.907 116.626ZM166.019 115.875L170.252 115.254L170.929 119.458L166.696 120.079L166.019 115.875ZM165.877 115.002L165.2 110.798L169.433 110.177L170.11 114.381L165.877 115.002ZM165.059 109.92L164.382 105.716L168.614 105.095L169.292 109.299L165.059 109.92ZM164.24 104.843L163.563 100.639L167.795 100.018L168.473 104.222L164.24 104.843ZM163.421 99.7663L162.744 95.5626L166.976 94.9414L167.654 99.1451L163.421 99.7663ZM162.542 99.8964L158.31 100.518L157.632 96.3138L161.865 95.6927L162.542 99.8964ZM157.431 100.648L153.198 101.269L152.521 97.0651L156.753 96.4439L157.431 100.648ZM152.313 101.398L148.081 102.019L147.404 97.8155L151.636 97.1943L152.313 101.398ZM147.202 102.149L142.969 102.77L142.292 98.5668L146.525 97.9456L147.202 102.149ZM142.09 102.901L137.858 103.522L137.18 99.318L141.413 98.6968L142.09 102.901ZM136.979 103.652L132.746 104.273L132.069 100.069L136.301 99.4481L136.979 103.652ZM131.862 104.402L127.629 105.023L126.952 100.82L131.184 100.198L131.862 104.402ZM126.749 105.159L122.517 105.78L121.839 101.576L126.072 100.955L126.749 105.159ZM126.891 106.032L127.568 110.236L123.336 110.857L122.658 106.653L126.891 106.032ZM127.71 111.109L128.387 115.312L124.155 115.934L123.477 111.73L127.71 111.109ZM128.529 116.186L129.206 120.389L124.974 121.01L124.296 116.807L128.529 116.186ZM129.347 121.268L130.024 125.472L125.792 126.093L125.115 121.889L129.347 121.268ZM130.166 126.345L130.843 130.548L126.611 131.169L125.934 126.966L130.166 126.345ZM131.051 126.215L135.283 125.594L135.96 129.798L131.728 130.419L131.051 126.215ZM136.162 125.464L140.395 124.843L141.072 129.047L136.839 129.668L136.162 125.464ZM141.274 124.713L145.506 124.092L146.184 128.295L141.951 128.917L141.274 124.713ZM146.391 123.963L150.623 123.341L151.301 127.545L147.068 128.166L146.391 123.963ZM151.502 123.211L155.735 122.59L156.412 126.794L152.18 127.415L151.502 123.211ZM156.614 122.46L160.847 121.839L161.524 126.042L157.291 126.664L156.614 122.46ZM161.726 121.703L165.959 121.082L166.636 125.286L162.404 125.907L161.726 121.703ZM166.844 120.953L171.076 120.332L171.753 124.535L167.521 125.157L166.844 120.953ZM171.955 120.202L176.188 119.58L176.865 123.784L172.632 124.405L171.955 120.202ZM171.813 119.329L171.136 115.125L175.369 114.504L176.046 118.707L171.813 119.329ZM170.994 114.252L170.317 110.048L174.55 109.427L175.227 113.631L170.994 114.252ZM170.176 109.169L169.499 104.966L173.731 104.345L174.409 108.548L170.176 109.169ZM169.357 104.093L168.68 99.889L172.912 99.2678L173.59 103.472L169.357 104.093ZM168.533 99.015L167.855 94.8113L172.088 94.1901L172.765 98.3938L168.533 99.015ZM167.714 93.9382L167.036 89.7345L171.269 89.1133L171.946 93.317L167.714 93.9382ZM166.835 94.0683L162.602 94.6895L161.925 90.4858L166.157 89.8646L166.835 94.0683ZM161.723 94.8196L157.491 95.4408L156.813 91.2371L161.046 90.6159L161.723 94.8196ZM156.606 95.57L152.373 96.1911L151.696 91.9874L155.929 91.3662L156.606 95.57ZM151.494 96.3212L147.262 96.9424L146.585 92.7387L150.817 92.1175L151.494 96.3212ZM146.383 97.0725L142.15 97.6937L141.473 93.49L145.706 92.8688L146.383 97.0725ZM141.271 97.8238L137.039 98.4449L136.361 94.2412L140.594 93.6201L141.271 97.8238ZM136.16 98.575L131.927 99.1962L131.25 94.9925L135.482 94.3713L136.16 98.575ZM131.043 99.3254L126.816 99.9475L126.138 95.7438L130.371 95.1226L131.043 99.3254ZM125.931 100.077L121.699 100.698L121.021 96.4941L125.254 95.873L125.931 100.077ZM120.819 100.828L116.587 101.449L115.91 97.2454L120.142 96.6242L120.819 100.828ZM120.96 101.706L121.638 105.91L117.405 106.531L116.728 102.328L120.96 101.706ZM121.779 106.783L122.457 110.987L118.224 111.608L117.547 107.404L121.779 106.783ZM122.598 111.86L123.276 116.064L119.043 116.685L118.366 112.481L122.598 111.86ZM123.416 116.942L124.094 121.146L119.861 121.767L119.184 117.563L123.416 116.942ZM124.235 122.019L124.913 126.223L120.68 126.844L120.003 122.64L124.235 122.019ZM125.054 127.096L125.732 131.3L121.499 131.921L120.822 127.717L125.054 127.096ZM125.873 132.173L126.551 136.376L122.318 136.998L121.641 132.794L125.873 132.173ZM126.758 132.043L130.991 131.422L131.668 135.626L127.435 136.247L126.758 132.043ZM131.87 131.292L136.102 130.671L136.779 134.875L132.547 135.496L131.87 131.292ZM136.981 130.541L141.214 129.92L141.891 134.123L137.658 134.745L136.981 130.541ZM142.093 129.79L146.325 129.168L147.003 133.372L142.77 133.993L142.093 129.79ZM147.21 129.039L151.442 128.418L152.12 132.622L147.887 133.243L147.21 129.039ZM152.321 128.288L156.554 127.667L157.231 131.871L152.999 132.492L152.321 128.288ZM157.433 127.537L161.666 126.916L162.343 131.119L158.11 131.74L157.433 127.537ZM162.545 126.785L166.777 126.164L167.454 130.368L163.222 130.989L162.545 126.785ZM167.662 126.035L171.894 125.414L172.571 129.618L168.339 130.239L167.662 126.035ZM172.774 125.278L177.007 124.657L177.684 128.861L173.451 129.482L172.774 125.278ZM177.886 124.527L182.292 123.878L182.969 128.082L178.563 128.731L177.886 124.527ZM177.744 123.654L177.067 119.45L181.473 118.802L182.15 123.005L177.744 123.654ZM176.925 118.577L176.248 114.374L180.654 113.725L181.331 117.929L176.925 118.577ZM176.107 113.495L175.43 109.291L179.836 108.643L180.513 112.846L176.107 113.495ZM175.288 108.418L174.611 104.215L179.017 103.566L179.694 107.77L175.288 108.418ZM174.469 103.341L173.792 99.1377L178.198 98.4891L178.875 102.693L174.469 103.341ZM173.65 98.2647L172.973 94.0609L177.379 93.4123L178.056 97.616L173.65 98.2647ZM172.831 93.1879L172.154 88.9842L176.56 88.3355L177.237 92.5392L172.831 93.1879ZM172.007 88.1047L171.33 83.901L175.736 83.2524L176.413 87.4561L172.007 88.1047ZM171.128 88.2348L166.896 88.856L166.218 84.6523L170.451 84.0311L171.128 88.2348ZM166.017 88.9861L161.784 89.6073L161.107 85.4035L165.339 84.7824L166.017 88.9861ZM160.905 89.7373L156.672 90.3585L155.995 86.1548L160.228 85.5336L160.905 89.7373ZM155.787 90.4932L151.554 91.1143L150.877 86.9106L155.11 86.2895L155.787 90.4932ZM150.675 91.2444L146.443 91.8656L145.766 87.6619L149.998 87.0407L150.675 91.2444ZM145.564 91.9957L141.331 92.6169L140.654 88.4132L144.887 87.792L145.564 91.9957ZM140.452 92.747L136.22 93.3681L135.542 89.1644L139.775 88.5433L140.452 92.747ZM135.335 93.4973L131.103 94.1185L130.425 89.9148L134.658 89.2936L135.335 93.4973ZM130.224 94.2486L125.991 94.8698L125.314 90.6661L129.546 90.0449L130.224 94.2486ZM125.112 94.9999L120.88 95.6211L120.202 91.4173L124.435 90.7962L125.112 94.9999ZM120 95.7511L115.768 96.3723L115.091 92.1686L119.323 91.5474L120 95.7511ZM114.889 96.5024L110.656 97.1236L109.979 92.9199L114.212 92.2987L114.889 96.5024ZM115.03 97.381L115.707 101.585L111.475 102.206L110.797 98.0021L115.03 97.381ZM115.849 102.458L116.526 106.661L112.294 107.283L111.616 103.079L115.849 102.458ZM116.668 107.535L117.345 111.738L113.112 112.359L112.435 108.156L116.668 107.535ZM117.487 112.611L118.164 116.815L113.931 117.436L113.254 113.233L117.487 112.611ZM118.305 117.694L118.982 121.897L114.75 122.518L114.072 118.315L118.305 117.694ZM119.124 122.77L119.801 126.974L115.569 127.595L114.891 123.392L119.124 122.77ZM119.943 127.847L120.62 132.051L116.388 132.672L115.71 128.468L119.943 127.847ZM120.762 132.924L121.439 137.128L117.207 137.749L116.529 133.545L120.762 132.924ZM121.58 138.006L122.257 142.21L118.025 142.831L117.348 138.627L121.58 138.006ZM122.465 137.877L126.697 137.256L127.374 141.46L123.142 142.081L122.465 137.877ZM127.577 137.12L131.81 136.499L132.487 140.703L128.254 141.324L127.577 137.12ZM132.689 136.369L136.921 135.748L137.598 139.952L133.366 140.573L132.689 136.369ZM137.8 135.618L142.033 134.997L142.71 139.2L138.477 139.821L137.8 135.618ZM142.917 134.867L147.15 134.246L147.827 138.45L143.595 139.071L142.917 134.867ZM148.029 134.116L152.261 133.495L152.939 137.699L148.706 138.32L148.029 134.116ZM153.14 133.365L157.373 132.744L158.05 136.947L153.818 137.569L153.14 133.365ZM158.252 132.614L162.485 131.992L163.162 136.196L158.929 136.817L158.252 132.614ZM163.364 131.862L167.596 131.241L168.273 135.445L164.041 136.066L163.364 131.862ZM168.481 131.112L172.713 130.491L173.39 134.694L169.158 135.316L168.481 131.112ZM173.592 130.361L177.825 129.739L178.502 133.943L174.27 134.564L173.592 130.361ZM178.704 129.609L183.11 128.961L183.787 133.164L179.381 133.813L178.704 129.609ZM183.995 128.832L188.401 128.183L189.078 132.387L184.672 133.035L183.995 128.832ZM183.854 127.953L183.177 123.749L187.583 123.101L188.26 127.304L183.854 127.953ZM183.035 122.876L182.358 118.673L186.764 118.024L187.441 122.228L183.035 122.876ZM182.216 117.799L181.539 113.596L185.945 112.947L186.622 117.151L182.216 117.799ZM181.397 112.723L180.72 108.519L185.126 107.87L185.803 112.074L181.397 112.723ZM180.579 107.64L179.901 103.437L184.308 102.788L184.985 106.992L180.579 107.64ZM179.754 102.563L179.077 98.359L183.483 97.7103L184.16 101.914L179.754 102.563ZM178.935 97.4859L178.258 93.2822L182.664 92.6336L183.341 96.8373L178.935 97.4859ZM178.116 92.4091L177.439 88.2054L181.845 87.5568L182.522 91.7605L178.116 92.4091ZM177.298 87.3269L176.621 83.1232L181.027 82.4745L181.704 86.6782L177.298 87.3269ZM176.479 82.2501L175.802 78.0464L180.208 77.3977L180.885 81.6014L176.479 82.2501ZM175.6 82.3802L171.194 83.0288L170.516 78.8251L174.923 78.1765L175.6 82.3802ZM170.309 83.158L166.077 83.7792L165.399 79.5755L169.632 78.9543L170.309 83.158ZM165.198 83.9093L160.965 84.5305L160.288 80.3268L164.52 79.7056L165.198 83.9093ZM160.08 84.6597L155.848 85.2808L155.171 81.0771L159.403 80.4559L160.08 84.6597ZM154.969 85.4109L150.736 86.0321L150.059 81.8284L154.292 81.2072L154.969 85.4109ZM149.857 86.1622L145.625 86.7834L144.947 82.5797L149.18 81.9585L149.857 86.1622ZM144.745 86.9189L140.512 87.5401L139.835 83.3364L144.068 82.7152L144.745 86.9189ZM139.633 87.6702L135.401 88.2914L134.723 84.0877L138.956 83.4665L139.633 87.6702ZM134.516 88.4205L130.284 89.0417L129.606 84.838L133.839 84.2168L134.516 88.4205ZM129.405 89.1718L125.172 89.793L124.495 85.5893L128.727 84.9681L129.405 89.1718ZM124.293 89.9231L120.061 90.5443L119.383 86.3406L123.616 85.7194L124.293 89.9231ZM119.181 90.6744L114.949 91.2955L114.272 87.0918L118.504 86.4706L119.181 90.6744ZM114.064 91.4247L109.832 92.0459L109.155 87.8422L113.387 87.221L114.064 91.4247ZM108.953 92.176L104.72 92.7972L104.043 88.5935L108.276 87.9723L108.953 92.176ZM109.094 93.0545L109.771 97.2582L105.538 97.8794L104.861 93.6757L109.094 93.0545ZM109.913 98.1313L110.59 102.335L106.357 102.956L105.68 98.7525L109.913 98.1313ZM110.732 103.208L111.409 107.412L107.176 108.033L106.499 103.829L110.732 103.208ZM111.551 108.285L112.228 112.489L107.995 113.11L107.318 108.906L111.551 108.285ZM112.375 113.363L113.052 117.566L108.82 118.187L108.143 113.984L112.375 113.363ZM113.193 118.445L113.871 122.649L109.638 123.27L108.961 119.066L113.193 118.445ZM114.012 123.522L114.69 127.725L110.457 128.347L109.78 124.143L114.012 123.522ZM114.831 128.598L115.509 132.802L111.276 133.423L110.599 129.22L114.831 128.598ZM115.65 133.675L116.328 137.879L112.095 138.5L111.418 134.296L115.65 133.675ZM116.468 138.757L117.146 142.961L112.913 143.582L112.236 139.379L116.468 138.757ZM117.287 143.834L117.965 148.038L113.732 148.659L113.055 144.455L117.287 143.834ZM118.167 143.704L122.399 143.083L123.076 147.287L118.844 147.908L118.167 143.704ZM123.284 142.954L127.516 142.333L128.193 146.536L123.961 147.157L123.284 142.954ZM128.395 142.203L132.628 141.581L133.305 145.785L129.072 146.406L128.395 142.203ZM133.507 141.451L137.739 140.83L138.417 145.034L134.184 145.655L133.507 141.451ZM138.618 140.7L142.851 140.079L143.528 144.282L139.296 144.904L138.618 140.7ZM143.736 139.944L147.969 139.323L148.646 143.527L144.414 144.148L143.736 139.944ZM148.848 139.193L153.08 138.572L153.758 142.775L149.525 143.397L148.848 139.193ZM153.959 138.442L158.192 137.82L158.869 142.024L154.637 142.645L153.959 138.442ZM159.071 137.69L163.304 137.069L163.981 141.273L159.748 141.894L159.071 137.69ZM164.188 136.94L168.421 136.319L169.098 140.523L164.865 141.144L164.188 136.94ZM169.3 136.189L173.532 135.568L174.209 139.771L169.977 140.392L169.3 136.189ZM174.411 135.437L178.644 134.816L179.321 139.02L175.089 139.641L174.411 135.437ZM179.523 134.686L183.929 134.038L184.606 138.241L180.2 138.89L179.523 134.686ZM184.814 133.908L189.22 133.26L189.897 137.463L185.491 138.112L184.814 133.908ZM190.105 133.131L194.511 132.482L195.188 136.686L190.782 137.334L190.105 133.131ZM189.963 132.257L189.286 128.054L193.692 127.405L194.369 131.609L189.963 132.257ZM189.145 127.175L188.467 122.971L192.874 122.323L193.551 126.527L189.145 127.175ZM188.326 122.098L187.648 117.895L192.055 117.246L192.732 121.45L188.326 122.098ZM187.501 117.021L186.824 112.817L191.23 112.168L191.907 116.372L187.501 117.021ZM186.682 111.944L186.005 107.74L190.411 107.092L191.088 111.295L186.682 111.944ZM185.864 106.862L185.187 102.658L189.593 102.009L190.27 106.213L185.864 106.862ZM185.045 101.785L184.368 97.5812L188.774 96.9325L189.451 101.136L185.045 101.785ZM184.226 96.7081L183.549 92.5044L187.955 91.8557L188.632 96.0594L184.226 96.7081ZM183.407 91.6313L182.73 87.4276L187.136 86.7789L187.813 90.9826L183.407 91.6313ZM182.588 86.5545L181.911 82.3508L186.317 81.7021L186.994 85.9058L182.588 86.5545ZM181.77 81.4722L181.093 77.2685L185.499 76.6199L186.176 80.8236L181.77 81.4722ZM179.389 72.3209L180.066 76.5246L175.66 77.1733L174.983 72.9696L179.389 72.3209ZM174.098 73.0988L174.775 77.3025L170.369 77.9511L169.692 73.7474L174.098 73.0988ZM168.813 73.8775L169.49 78.0812L165.258 78.7024L164.58 74.4987L168.813 73.8775ZM163.701 74.6288L164.379 78.8325L160.146 79.4537L159.469 75.25L163.701 74.6288ZM158.584 75.3792L159.261 79.5829L155.029 80.204L154.352 76.0003L158.584 75.3792ZM153.473 76.1304L154.15 80.3341L149.917 80.9553L149.24 76.7516L153.473 76.1304ZM148.361 76.8817L149.038 81.0854L144.806 81.7066L144.128 77.5029L148.361 76.8817ZM143.249 77.6384L143.926 81.8421L139.693 82.4633L139.016 78.2596L143.249 77.6384ZM138.132 78.3888L138.809 82.5925L134.576 83.2137L133.899 79.01L138.132 78.3888ZM133.02 79.1401L133.697 83.3438L129.465 83.9649L128.787 79.7612L133.02 79.1401ZM127.908 79.8913L128.586 84.095L124.353 84.7162L123.676 80.5125L127.908 79.8913ZM122.797 80.6426L123.474 84.8463L119.242 85.4675L118.564 81.2638L122.797 80.6426ZM117.68 81.393L118.357 85.5967L114.124 86.2178L113.447 82.0141L117.68 81.393ZM112.568 82.1442L113.245 86.3479L109.013 86.9691L108.336 82.7654L112.568 82.1442ZM107.457 82.8955L108.134 87.0992L103.901 87.7204L103.224 83.5167L107.457 82.8955ZM98.1124 84.2679L102.345 83.6468L103.022 87.8505L98.7897 88.4717L98.1124 84.2679ZM98.9306 89.3502L103.163 88.729L103.84 92.9327L99.6078 93.5539L98.9306 89.3502ZM99.7496 94.427L103.982 93.8058L104.659 98.0095L100.427 98.6307L99.7496 94.427ZM100.569 99.5038L104.801 98.8826L105.478 103.086L101.246 103.707L100.569 99.5038ZM101.388 104.581L105.62 103.959L106.297 108.163L102.065 108.784L101.388 104.581ZM102.207 109.657L106.439 109.036L107.116 113.24L102.884 113.861L102.207 109.657ZM103.03 114.74L107.263 114.119L107.94 118.323L103.708 118.944L103.03 114.74ZM103.849 119.817L108.082 119.196L108.759 123.4L104.526 124.021L103.849 119.817ZM104.668 124.894L108.901 124.273L109.578 128.477L105.345 129.098L104.668 124.894ZM105.487 129.971L109.72 129.35L110.397 133.553L106.164 134.175L105.487 129.971ZM106.305 135.053L110.538 134.432L111.215 138.636L106.983 139.257L106.305 135.053ZM107.124 140.13L111.357 139.509L112.034 143.712L107.802 144.334L107.124 140.13ZM107.943 145.207L112.176 144.586L112.853 148.789L108.621 149.41L107.943 145.207ZM109.44 154.487L108.762 150.283L112.995 149.662L113.672 153.866L109.44 154.487ZM114.551 153.736L113.874 149.532L118.106 148.911L118.784 153.115L114.551 153.736ZM119.668 152.986L118.991 148.782L123.224 148.161L123.901 152.364L119.668 152.986ZM124.78 152.234L124.103 148.031L128.335 147.409L129.012 151.613L124.78 152.234ZM129.891 151.483L129.214 147.279L133.447 146.658L134.124 150.862L129.891 151.483ZM135.003 150.732L134.326 146.528L138.558 145.907L139.236 150.111L135.003 150.732ZM140.12 149.981L139.443 145.778L143.675 145.156L144.353 149.36L140.12 149.981ZM145.233 149.225L144.555 145.021L148.788 144.4L149.465 148.603L145.233 149.225ZM150.344 148.473L149.667 144.27L153.899 143.648L154.577 147.852L150.344 148.473ZM155.456 147.722L154.778 143.518L159.011 142.897L159.688 147.101L155.456 147.722ZM160.573 146.972L159.896 142.768L164.128 142.147L164.805 146.351L160.573 146.972ZM165.684 146.22L165.007 142.017L169.24 141.396L169.917 145.599L165.684 146.22ZM170.796 145.469L170.119 141.266L174.351 140.644L175.028 144.848L170.796 145.469ZM175.908 144.718L175.23 140.514L179.463 139.893L180.14 144.097L175.908 144.718ZM181.019 143.967L180.342 139.763L184.748 139.114L185.425 143.318L181.019 143.967ZM186.31 143.189L185.633 138.985L190.039 138.336L190.716 142.54L186.31 143.189ZM191.601 142.411L190.924 138.207L195.33 137.559L196.007 141.762L191.601 142.411Z" fill="#20673E"/>
</g>
<g clip-path="url(#clip1_760_7182)">
<path d="M315.792 157.752C274.758 136.867 247.379 91.5728 247.978 45.5293C248.114 34.9696 251.005 22.5081 260.832 18.6387C268.869 15.4738 278.541 20.1859 282.796 27.7068C287.051 35.2276 286.678 44.6637 283.916 52.8511C274.515 80.6697 235.772 93.3931 211.705 76.56C187.637 59.7269 186.283 18.9757 209.175 0.578933C213.086 -2.55959 218.525 -5.12949 222.959 -2.78841C228.004 -0.127712 228.358 7.02678 226.851 12.535C220.614 35.2911 192.435 48.6513 170.402 40.1846C148.368 31.731 136.261 4.28595 143.662 -18.1381C148.45 -32.6539 167.422 -44.9478 178.431 -34.3299C187.847 -25.234 181.697 -9.35099 174.157 1.36066C153.439 30.8352 122.891 56.3509 86.961 59.0454C51.0313 61.7398 12.1854 33.5364 13.7001 -2.46652" stroke="white" stroke-width="2" stroke-miterlimit="10"/>
</g>
<circle cx="238.5" cy="165.5" r="10.5" stroke="white" stroke-width="2"/>
<g clip-path="url(#clip2_760_7182)">
<path d="M363.572 188.585C343.083 187.08 326.469 178.06 317.144 167.188C298.668 145.664 302.082 112.283 324.917 91.1979C325.607 90.5611 326.296 89.9474 327.021 89.3338C317.386 82.9192 309.855 74.0153 306.026 64.2198C302.117 54.2159 302.255 43.5984 306.405 34.3008C311.154 23.66 320.663 15.1382 334.667 8.95524C357.812 -1.25707 386.303 -2.40335 410.873 5.86376L399.088 41.3753C383.267 36.0491 364.296 36.767 349.591 43.251C343.037 46.1457 340.68 48.855 340.324 49.654C340.312 51.2634 344.083 57.1106 351.614 60.3178C363.675 65.4472 379.853 65.0882 394.121 64.764L396.57 102.082C375.438 104.432 359.352 110.21 350.051 118.801C343.118 125.204 339.438 135.903 345.279 142.723C351.913 150.457 368.585 153.444 383.221 149.531C399.261 145.235 412.828 134.803 426.464 123.56L450 152.53C433.754 165.915 415.955 179.496 392.765 185.702C382.474 188.446 372.644 189.245 363.572 188.585Z" fill="#1A66EA"/>
<mask id="mask1_760_7182" style="mask-type:luminance" maskUnits="userSpaceOnUse" x="303" y="0" width="147" height="189">
<path d="M363.572 188.585C343.083 187.08 326.469 178.06 317.144 167.188C298.668 145.664 302.082 112.283 324.917 91.1979C325.607 90.5611 326.296 89.9474 327.021 89.3338C317.386 82.9192 309.855 74.0153 306.026 64.2198C302.117 54.2159 302.255 43.5984 306.405 34.3008C311.154 23.66 320.663 15.1382 334.667 8.95524C357.812 -1.25707 386.303 -2.40335 410.873 5.86376L399.088 41.3753C383.267 36.0491 364.296 36.767 349.591 43.251C343.037 46.1457 340.68 48.855 340.324 49.654C340.312 51.2634 344.083 57.1106 351.614 60.3178C363.675 65.4472 379.853 65.0882 394.121 64.764L396.57 102.082C375.438 104.432 359.352 110.21 350.051 118.801C343.118 125.204 339.438 135.903 345.279 142.723C351.913 150.457 368.585 153.444 383.221 149.531C399.261 145.235 412.828 134.803 426.464 123.56L450 152.53C433.754 165.915 415.955 179.496 392.765 185.702C382.474 188.446 372.644 189.245 363.572 188.585Z" fill="white"/>
</mask>
<g mask="url(#mask1_760_7182)">
<path d="M416.921 139.262C414.737 141.092 411.08 140.976 408.827 142.423C406.562 143.812 404.63 145.665 402.377 146.916C400.054 148.259 397.548 149.127 395.214 150.134C392.88 151.095 390.925 152.855 388.556 153.55C387.384 153.932 386.13 154.002 384.912 154.117C383.693 154.129 382.451 154.28 381.382 154.372C380.841 154.442 380.301 154.546 379.772 154.662C379.232 154.743 378.691 154.824 378.151 154.928C377.082 155.16 375.978 155.206 374.886 155.287C372.701 155.264 370.528 155.495 368.389 155.241C366.228 155.067 364.308 153.77 362.365 153.423C360.226 152.971 358.007 152.96 356.029 152.253C354.385 151.535 353.155 150.32 350.947 150.702C350.752 150.736 350.361 151.431 350.545 151.431C351.545 151.42 352.235 151.883 352.833 152.589C353.408 153.307 354.086 154.06 354.834 154.615C356.547 155.599 358.651 155.634 360.606 156.086C362.618 156.665 364.71 157.498 366.929 157.962C369.171 158.274 371.459 158.147 373.759 158.077C376.07 158.1 378.392 157.985 380.726 157.753C381.888 157.568 383.037 157.568 384.291 157.359L386.153 157.116L388.016 156.723C389.258 156.479 390.476 156.074 391.73 155.773C392.96 155.379 394.225 155.009 395.443 154.523C397.915 153.573 399.916 151.663 402.089 150.123C404.515 148.363 406.55 146.07 408.861 144.102C411.172 142.168 415.22 142.099 417.151 139.471C417.278 139.285 417.094 139.135 416.921 139.262Z" fill="#4885EE"/>
<path d="M417.485 139.597C415.174 140.708 413.736 142.734 411.805 144.228C410.678 145.143 409.39 145.803 408.16 146.532C406.884 147.181 405.665 147.899 404.515 148.686C402.273 150.318 400.537 152.762 398.076 154.024C395.581 155.216 392.581 155.181 390.166 156.085C388.936 156.617 387.752 157.161 386.567 157.798C385.969 158.099 385.372 158.354 384.762 158.62C384.153 158.887 383.532 159.13 382.934 159.269C382.325 159.419 381.692 159.535 381.071 159.628C380.439 159.697 379.795 159.709 379.163 159.743C377.898 159.848 376.622 159.755 375.392 159.975C372.931 160.218 370.436 161.434 367.884 161.307C366.607 161.33 365.377 160.948 364.158 160.67L362.365 160.137L360.583 159.697C357.881 159.199 355.374 158.273 352.925 157.358C350.465 156.467 348.016 155.575 345.797 154.232C345.647 154.139 345.325 154.556 345.475 154.66C346.371 155.367 347.349 156.004 348.211 156.814L349.66 157.845L350.407 158.342C350.672 158.493 350.947 158.609 351.223 158.736C351.775 158.979 352.339 159.211 352.902 159.419L354.684 159.882L355.57 160.126L356.478 160.311C357.076 160.438 357.674 160.6 358.248 160.797C360.64 161.411 363.055 162.187 365.619 162.453C366.872 162.684 368.171 162.754 369.459 162.951C370.758 163.02 372.069 163.171 373.379 163.09C374.023 163.055 374.679 162.974 375.311 162.858C375.955 162.731 376.576 162.522 377.208 162.337C378.473 162.001 379.669 161.503 380.933 161.283C382.187 161.005 383.428 160.843 384.739 160.612C386.05 160.346 387.384 160.114 388.648 159.639C391.212 158.771 393.684 157.59 396.168 156.386C398.64 155.135 400.767 153.271 402.963 151.499C405.366 149.531 408.01 147.91 410.574 146.011C413.058 144.217 415.208 141.808 418.094 140.384C418.404 140.257 417.818 139.446 417.485 139.597Z" fill="#4885EE"/>
<path d="M432.604 139.851C430.523 141.797 428.844 144.159 426.637 145.965C424.418 147.748 422.452 149.832 420.152 151.488C417.841 153.132 415.565 154.788 413.196 156.316C410.85 157.891 408.034 158.667 405.654 160.068C404.446 160.739 403.193 161.341 401.94 161.909C400.664 162.43 399.433 163.032 398.18 163.588C396.95 164.166 395.754 164.838 394.524 165.417C393.316 166.054 392.075 166.621 390.798 167.084C389.545 167.594 388.281 168.08 387.039 168.659C385.786 169.203 384.521 169.655 383.21 170.037C380.566 170.65 377.841 170.72 375.173 171.044C374.506 171.125 373.839 171.229 373.173 171.357L371.16 171.635C369.815 171.866 368.447 171.97 367.09 172.017C365.722 172.109 364.354 172.086 362.963 172.19C361.583 172.237 360.192 172.19 358.8 172.086C356.041 171.727 353.431 170.674 350.775 169.875C350.108 169.678 349.453 169.458 348.786 169.226L346.889 168.369C345.601 167.825 344.428 167.096 343.175 166.482C342.934 166.366 342.267 167.49 342.52 167.628C343.784 168.3 345.015 169.029 346.348 169.585L348.303 170.465L350.315 171.195C352.994 172.179 355.765 172.862 358.547 173.441C359.95 173.649 361.376 173.8 362.79 173.846C364.216 173.846 365.619 173.95 367.033 173.95C368.447 173.997 369.861 173.858 371.252 173.603L373.334 173.279C374.023 173.151 374.713 173.047 375.403 172.978C378.174 172.746 380.991 172.63 383.727 172.04C385.073 171.669 386.51 171.623 387.947 171.461C389.361 171.276 390.833 171.148 392.155 170.616C393.5 170.118 394.777 169.446 396.007 168.705C397.26 168.011 398.467 167.235 399.755 166.633C401.054 166.054 402.204 165.185 403.388 164.398C404.55 163.564 405.688 162.719 406.907 162.001C409.321 160.531 411.943 159.327 414.242 157.648C416.565 156.004 418.933 154.394 421.106 152.542C423.268 150.677 425.499 148.883 427.557 146.891C429.615 144.888 430.902 142.156 432.88 140.118C433.075 139.944 432.777 139.678 432.604 139.851Z" fill="#4885EE"/>
<path d="M328.125 175.351C328.642 176.139 329.297 176.81 330.045 177.366C330.804 177.887 331.654 178.315 332.505 178.709C334.207 179.543 336.046 179.994 337.599 180.84C338.495 181.349 339.427 181.754 340.347 182.183C341.266 182.6 342.186 183.04 343.118 183.422C344.992 184.116 346.843 184.915 348.74 185.471C352.845 186.872 357.064 187.463 361.215 188.041C365.354 188.586 369.459 189.848 373.724 190.045C378.013 190.137 382.21 189.072 386.395 188.366C387.453 188.238 388.499 187.972 389.534 187.706C390.557 187.428 391.638 187.173 392.604 186.837C394.57 186.177 396.524 185.506 398.456 184.788C400.422 184.139 402.4 183.618 404.435 183.109C406.401 182.53 408.436 181.951 410.195 180.932C413.771 178.975 417.151 176.764 420.301 174.332C422.659 172.491 424.326 169.875 426.395 167.86C428.488 165.845 430.063 163.344 431.96 161.26C432.926 160.23 434.053 159.373 435.168 158.516C436.306 157.671 437.422 156.802 438.353 155.772C438.422 155.691 437.893 155.193 437.835 155.262C435.432 158.018 432.65 160.473 429.879 162.974C427.12 165.463 424.843 168.694 421.808 171.056C418.761 173.337 415.369 175.154 412.012 177.065C408.643 178.975 404.906 180.237 401.227 181.592C399.399 182.322 397.49 182.912 395.616 183.549C394.662 183.838 393.707 184.105 392.753 184.371L391.316 184.765L389.821 185.101C385.831 186.062 381.727 186.027 377.749 186.363C373.759 186.606 369.735 187.219 365.676 186.907C361.629 186.548 357.639 185.749 353.638 184.776C349.384 183.792 344.934 183.109 340.692 181.28C339.691 180.874 338.668 180.481 337.668 179.983C336.667 179.508 335.644 179.045 334.667 178.501C332.747 177.32 330.861 176.069 329.447 174.251C329.079 173.8 327.791 174.842 328.125 175.351Z" fill="#4885EE"/>
<path d="M431.374 137.941C429.109 140.211 426.303 141.901 423.923 143.962C421.486 145.988 418.485 147.297 415.921 149.045C414.668 149.96 413.334 150.747 412.046 151.581C410.712 152.345 409.402 153.144 408.033 153.815C405.412 155.216 403.296 157.463 400.571 158.632C397.812 159.709 394.696 159.825 392.006 160.6C390.672 161.052 389.292 161.318 387.947 161.677C386.59 161.944 385.222 162.291 383.923 162.546C383.279 162.673 382.658 162.893 382.037 163.148C381.416 163.402 380.795 163.646 380.175 163.924C378.933 164.514 377.634 164.977 376.3 165.209C373.609 165.568 370.884 165 368.24 165.081C365.572 165.255 362.871 165.51 360.169 165.325C359.502 165.232 358.835 165.162 358.156 165.093L357.145 165L356.144 164.827L354.144 164.456C353.5 164.282 352.856 164.074 352.224 163.842C350.936 163.437 349.89 162.511 348.809 161.747C348.303 161.307 347.809 160.855 347.291 160.462C346.774 160.068 346.256 159.697 345.739 159.327C345.21 158.979 344.635 158.702 344.014 158.447C343.428 158.169 342.842 157.891 342.209 157.636C340.933 157.162 339.795 156.467 338.714 155.668C338.484 155.494 338.645 155.309 338.852 155.517C339.818 156.421 340.588 157.509 341.577 158.412C342.048 158.887 342.497 159.385 342.991 159.859L344.543 161.179C345.049 161.631 345.613 162.025 346.176 162.407C346.739 162.789 347.303 163.206 347.878 163.576C349.085 164.236 350.246 165.047 351.534 165.614C352.166 165.927 352.799 166.239 353.442 166.517L355.443 167.235L356.455 167.582L357.49 167.849L359.571 168.381C362.388 168.914 365.274 168.879 368.125 168.856C369.551 168.925 370.976 168.937 372.425 169.03C373.862 169.053 375.311 169.064 376.748 168.891C378.174 168.671 379.611 168.532 381.025 168.242C381.738 168.115 382.451 168.022 383.164 167.872L385.291 167.42C386.74 167.131 388.234 166.911 389.775 166.749C391.281 166.506 392.857 166.343 394.317 165.857C397.283 165.012 400.204 163.935 403.147 162.789C406.056 161.573 408.654 159.732 411.437 158.192C414.231 156.664 416.749 154.684 419.313 152.797C421.911 150.932 424.694 149.23 427.005 146.996C429.281 144.726 431.684 142.549 433.558 139.91C434.524 138.636 432.512 136.818 431.374 137.941Z" fill="#4885EE"/>
<path d="M419.968 157.104C416.749 158.354 413.943 160.392 411.057 162.268C408.148 164.074 405.343 166.123 402.354 167.629C399.284 169.18 395.926 170.049 392.719 171.16C391.132 171.774 389.499 172.26 387.889 172.793C387.073 173.024 386.245 173.221 385.417 173.429L384.176 173.719L382.911 173.916C379.623 174.506 376.311 175.294 372.943 175.224C371.264 175.097 369.597 174.796 367.976 174.286L365.561 173.603C364.768 173.36 363.974 173.14 363.169 172.989C359.824 172.272 356.225 172.445 352.914 171.299C349.648 170.211 346.084 169.4 343.359 167.131C342.842 166.725 341.83 167.872 342.37 168.346C343.026 168.925 343.715 169.47 344.44 169.979C345.187 170.431 345.957 170.859 346.728 171.264C347.498 171.693 348.303 172.028 349.119 172.364C349.936 172.688 350.717 173.082 351.534 173.395C354.776 174.715 358.133 175.71 361.548 176.671C364.894 177.517 368.355 177.864 371.827 178.177C373.563 178.42 375.311 178.57 377.105 178.79C377.99 178.871 378.887 178.906 379.784 178.929C380.68 178.964 381.577 178.964 382.474 178.848C383.382 178.756 384.291 178.594 385.188 178.385C386.073 178.142 386.947 177.841 387.821 177.551C388.694 177.274 389.545 176.938 390.384 176.602C391.224 176.278 392.086 175.988 392.937 175.722C396.363 174.622 399.767 173.418 402.997 171.843C406.309 170.199 410.298 169.528 413.61 167.605C416.921 165.683 419.428 162.685 422.026 160.079C423.003 159.118 421.29 156.606 419.968 157.104Z" fill="#4885EE"/>
<path d="M447.137 159.803C444.401 161.285 442.228 163.6 439.664 165.638C438.422 166.622 437.008 167.444 435.639 168.301C434.225 169.135 432.857 170.003 431.592 171.022C429.028 173.095 426.786 175.654 424.027 177.414C421.026 179.394 417.278 180.193 414.047 181.79C410.77 183.342 407.919 185.982 404.354 187.209L401.698 188.112L398.985 188.911C397.203 189.467 395.329 189.872 393.512 190.347C391.672 190.775 389.729 191.169 387.844 191.516C385.935 191.783 384.038 192.142 382.118 192.269L379.266 192.535C378.312 192.628 377.358 192.651 376.403 192.709C374.495 192.848 372.575 192.836 370.666 192.802C368.757 192.79 366.849 192.211 364.986 191.736C363.112 191.157 361.284 190.59 359.41 190.289C357.536 189.942 355.65 189.675 353.776 189.189L350.97 188.529L348.177 187.707C346.302 187.209 344.451 186.468 342.6 185.808C340.749 185.09 338.909 184.268 337.081 183.458L334.356 182.08L332.988 181.385L331.631 180.575L328.952 178.988C328.079 178.421 327.216 177.819 326.354 177.228C325.365 176.545 323.847 178.433 324.859 179.22C328.55 182.219 332.919 183.921 336.863 186.005C338.875 186.966 340.864 188.02 342.899 188.83C343.911 189.247 344.934 189.71 345.957 190.069C346.981 190.428 348.016 190.775 349.05 191.1C350.085 191.458 351.12 191.725 352.155 192.049C353.19 192.35 354.224 192.697 355.259 192.975C357.329 193.485 359.433 194.075 361.537 194.318C365.791 194.978 370.034 194.179 374.196 194.237C378.335 194.145 382.704 195.488 386.981 194.793C389.108 194.527 391.224 194.04 393.351 193.612C395.409 193.126 397.41 192.628 399.399 192.037C403.4 190.868 406.999 188.819 410.712 187.255C414.403 185.669 418.312 184.477 421.773 182.543C425.269 180.644 428.396 178.328 431.604 176.198C434.777 174.033 437.169 170.918 440.055 168.614C442.975 166.31 445.723 163.89 448.402 161.447C449.782 160.196 448.505 159.05 447.137 159.803Z" fill="#4885EE"/>
<path d="M414.714 126.722C411.908 128.956 408.746 130.983 405.998 132.997C403.193 135.07 401.169 137.907 398.421 139.852C396.409 141.288 393.776 141.542 391.822 142.689C389.856 143.789 388.131 145.34 386.142 146.162C384.164 147.054 381.945 147.1 380.06 147.644C379.174 147.829 378.369 148.258 377.473 148.513C377.036 148.663 376.599 148.825 376.15 148.953C375.702 149.045 375.242 149.138 374.782 149.196C373.862 149.346 372.943 149.439 372.034 149.659C371.114 149.786 370.183 149.948 369.263 149.902C368.343 149.833 367.435 149.589 366.596 149.207L365.331 148.733C364.929 148.559 364.515 148.432 364.101 148.374C363.25 148.269 362.514 147.922 361.721 147.725C361.353 147.563 360.996 147.424 360.629 147.297C360.445 147.239 360.261 147.181 360.065 147.123L359.548 146.926C359.191 146.811 358.812 146.776 358.398 146.787C358.007 146.776 357.628 146.776 357.202 146.799C356.34 146.892 355.593 146.811 354.88 146.579C353.603 145.965 352.557 145.109 351.43 144.425C351.189 144.286 350.315 145.178 350.557 145.352C351.683 146.255 353.167 146.706 354.431 147.471C355.121 147.806 355.696 148.339 356.42 148.744C357.064 149.231 357.835 149.636 358.616 149.972C358.996 150.168 359.467 150.203 359.904 150.261C360.364 150.296 360.789 150.354 361.261 150.342C362.215 150.296 363.089 150.354 364.009 150.516C365.779 150.99 367.711 151.129 369.643 151.349C371.574 151.43 373.632 152.148 375.667 151.928C376.691 151.894 377.68 151.697 378.691 151.581C379.703 151.407 380.646 151.21 381.681 150.944C382.704 150.632 383.773 150.469 384.831 150.157C385.36 150.018 385.9 149.89 386.429 149.728C386.958 149.543 387.487 149.358 388.004 149.149C389.051 148.756 390.074 148.223 391.132 147.783C392.167 147.251 393.224 146.776 394.248 146.174C396.329 145.027 398.065 143.244 400.1 141.867C403.078 139.84 406.585 138.462 409.758 136.286C412.495 134.421 414.668 131.411 416.542 128.389C417.657 126.583 416.128 125.61 414.714 126.722Z" fill="#4885EE"/>
<path d="M434.961 153.352C433.006 155.842 430.385 157.625 427.993 159.663C425.567 161.677 423.774 164.561 421.026 166.297C418.324 168.057 414.794 168.544 412.023 170.118C409.172 171.693 406.769 174.205 403.687 175.537C402.917 175.873 402.147 176.174 401.353 176.44C400.548 176.683 399.744 176.915 398.927 177.146C397.329 177.621 395.662 177.945 394.087 178.466C392.477 178.93 390.913 179.474 389.304 179.972C387.66 180.412 386.027 180.933 384.337 181.106C383.532 181.211 382.727 181.326 381.934 181.454L379.519 181.72C377.921 181.928 376.3 181.998 374.679 182.021C373.069 182.067 371.448 181.743 369.861 181.535C368.263 181.245 366.699 180.921 365.113 180.747C361.939 180.307 358.927 179.092 355.88 178.316C355.11 178.119 354.339 177.992 353.546 177.853C352.764 177.691 351.982 177.54 351.189 177.401C349.591 177.17 348.027 176.706 346.498 176.209C344.98 175.653 343.497 174.947 342.002 174.287L339.806 173.163C339.059 172.804 338.323 172.446 337.599 172.04C336.127 171.265 334.575 170.593 333.08 169.748C332.321 169.342 331.539 168.96 330.792 168.52C330.056 168.057 329.32 167.583 328.596 167.096C327.538 166.39 326.377 167.664 327.446 168.474C328.205 169.041 328.941 169.632 329.677 170.222L331.953 171.867C333.425 173.024 335.035 173.939 336.587 174.923C337.369 175.398 338.162 175.838 338.932 176.348C339.703 176.834 340.439 177.424 341.22 177.876C342.773 178.825 344.325 179.867 346.026 180.504C346.866 180.84 347.728 181.141 348.613 181.361C349.499 181.558 350.396 181.72 351.281 181.87L352.603 182.114L353.925 182.31C354.799 182.449 355.661 182.635 356.512 182.878C359.904 183.723 363.296 185.055 366.826 185.437C367.711 185.541 368.596 185.61 369.482 185.645L372.138 185.61C373.908 185.61 375.667 185.402 377.438 185.39C379.209 185.321 380.991 185.379 382.796 185.39C384.59 185.321 386.429 185.332 388.188 184.893C389.051 184.696 389.89 184.453 390.718 184.163C391.546 183.874 392.316 183.515 393.109 183.167C394.696 182.496 396.214 181.72 397.801 181.141C399.399 180.585 400.997 180.076 402.653 179.636C404.262 179.126 405.895 178.617 407.401 177.876C410.413 176.371 413.023 174.182 415.852 172.55C418.588 171.033 421.716 170.107 424.372 168.416C425.694 167.571 426.809 166.483 427.913 165.383C428.982 164.248 430.04 163.113 431.167 162.083C433.42 160.033 436.283 158.574 437.927 155.958C438.721 154.672 435.869 152.206 434.961 153.352Z" fill="#4885EE"/>
</g>
<mask id="mask2_760_7182" style="mask-type:luminance" maskUnits="userSpaceOnUse" x="303" y="0" width="147" height="189">
<path d="M363.572 188.585C343.083 187.08 326.469 178.06 317.144 167.188C298.668 145.664 302.082 112.283 324.917 91.1979C325.607 90.5611 326.296 89.9474 327.021 89.3338C317.386 82.9192 309.855 74.0153 306.026 64.2198C302.117 54.2159 302.255 43.5984 306.405 34.3008C311.154 23.66 320.663 15.1382 334.667 8.95524C357.812 -1.25707 386.303 -2.40335 410.873 5.86376L399.088 41.3753C383.267 36.0491 364.296 36.767 349.591 43.251C343.037 46.1457 340.68 48.855 340.324 49.654C340.312 51.2634 344.083 57.1106 351.614 60.3178C363.675 65.4472 379.853 65.0882 394.121 64.764L396.57 102.082C375.438 104.432 359.352 110.21 350.051 118.801C343.118 125.204 339.438 135.903 345.279 142.723C351.913 150.457 368.585 153.444 383.221 149.531C399.261 145.235 412.828 134.803 426.464 123.56L450 152.53C433.754 165.915 415.955 179.496 392.765 185.702C382.474 188.446 372.644 189.245 363.572 188.585Z" fill="white"/>
</mask>
<g mask="url(#mask2_760_7182)">
<path d="M395.8 7.63455C394.087 7.1714 392.535 6.0946 390.902 5.12199C389.269 4.18413 387.602 3.1189 385.808 2.78312C382.256 2.03051 378.588 2.03051 374.978 1.81052C374.046 1.75263 373.103 1.67158 372.161 1.59053L369.332 1.44C368.389 1.39369 367.435 1.32422 366.492 1.32422C365.55 1.3358 364.595 1.34738 363.641 1.38211C359.824 1.53263 356.167 2.94522 352.431 3.58204C350.557 3.91782 348.648 4.16097 346.705 4.38096C344.796 4.69359 342.842 4.99463 340.979 5.58514C337.242 6.80089 333.747 8.56083 330.125 10.286C326.48 12.0576 322.951 14.4428 319.375 17.21C317.581 18.5995 315.673 20.0005 313.798 21.5867C311.924 23.173 310.096 25.0256 308.578 27.1908C307.728 28.3834 306.98 29.6918 306.279 31.0233C305.946 31.7064 305.612 32.3896 305.302 33.0843C304.991 33.779 304.681 34.6011 304.382 35.3537C303.244 38.4336 302.496 41.5482 301.933 44.6976C301.461 47.3838 301.105 50.1627 301.174 52.9879C301.277 55.813 301.875 58.7077 303.29 61.2897C303.542 61.7297 304.244 61.3129 304.048 60.8729C302.864 58.3835 302.68 55.6509 302.933 53.0805C303.221 50.4985 303.876 48.0438 304.451 45.6586C305.037 43.1692 305.578 40.6798 306.394 38.1904C306.762 36.9515 307.279 35.701 307.774 34.5084C308.28 33.3969 308.82 32.2854 309.464 31.278C312.12 26.9592 315.742 23.8098 319.133 21.0425C322.537 18.2637 325.814 15.7164 329.286 13.8407C331.022 12.9144 332.77 12.0691 334.529 11.386C336.288 10.6681 338.024 9.96184 339.818 9.40607C340.703 9.10503 341.6 8.83872 342.497 8.57241C343.405 8.34084 344.313 8.144 345.222 7.94717C346.13 7.75033 347.038 7.54192 347.947 7.37982L350.683 6.89352C354.27 6.21038 357.915 5.92092 361.502 5.65461C363.296 5.51567 365.078 5.29567 366.86 4.95989C368.642 4.69359 370.436 4.42728 372.23 4.29992C376.208 4.13781 380.267 3.52415 384.291 3.94098C386.314 4.0915 388.234 5.04094 390.097 5.94407C391.971 6.78931 393.776 7.80823 395.777 7.92401C396.041 7.94717 396.064 7.70402 395.8 7.63455Z" fill="#4885EE"/>
<path d="M395.88 8.29595C394.478 7.57807 392.983 7.1844 391.465 6.89494C389.948 6.66337 388.407 6.536 386.878 6.24654C385.073 5.96865 383.279 5.54024 381.462 5.14657C379.646 4.84553 377.818 4.47501 375.966 4.48659C374.115 4.50975 372.276 4.74132 370.448 5.16973C368.619 5.54024 366.826 5.89918 365.009 6.06128C364.101 6.13075 363.181 6.10759 362.25 6.07286C361.33 6.06128 360.387 6.02654 359.444 5.99181C357.559 5.87602 355.673 5.94549 353.845 6.32759C351.971 6.67495 350.189 7.43913 348.407 8.09911C346.636 8.82856 344.9 9.63906 343.118 10.2759C341.358 11.0169 339.496 11.5032 337.691 12.1748C335.886 12.8463 334.057 13.4832 332.344 14.4673C328.895 16.4241 326.055 19.504 322.847 22.2481C319.651 24.9807 315.972 27.7595 313.327 31.8005C312.591 32.9352 311.89 34.1046 311.258 35.3319L310.786 36.2466L310.326 37.254C310.027 37.9255 309.728 38.5971 309.487 39.2918C308.464 42.0244 307.762 44.838 307.475 47.721C306.888 53.4756 307.992 59.4733 310.706 65.1121C310.901 65.4942 311.372 65.251 311.189 64.8689C310.062 62.4142 309.487 59.8322 309.234 57.3081C308.992 54.784 309.084 52.3409 309.234 49.9325C309.372 47.5242 309.682 45.1506 310.211 42.7886C310.464 41.6075 310.821 40.4381 311.223 39.2802C311.66 38.1455 312.154 36.9529 312.718 35.9803C314.937 31.8815 317.938 28.5122 321.019 25.6638C324.112 22.8039 327.538 20.7313 330.815 18.7861C334.057 16.8525 336.943 14.5021 340.335 13.0316C342.037 12.3485 343.773 11.7348 345.555 11.318L348.2 10.6232C349.085 10.3917 349.97 10.218 350.844 9.96326C351.729 9.73169 352.592 9.47696 353.477 9.25697L356.133 8.66646C357.892 8.23805 359.686 7.9949 361.468 7.70544C363.25 7.4044 365.032 7.16125 366.803 6.79073C368.585 6.46653 370.379 6.20022 372.195 5.96865C376.196 5.63287 380.198 5.89918 384.164 6.54758C387.959 7.05704 392.029 7.46229 395.49 9.24539C395.892 9.43065 396.283 8.51594 395.88 8.29595Z" fill="#4885EE"/>
<path d="M403.722 22.3858C403.078 22.0616 402.411 21.7837 401.744 21.5174C401.066 21.2626 400.365 21.0774 399.686 20.869C398.996 20.6606 398.307 20.4521 397.628 20.2322C396.938 20.0237 396.248 19.8269 395.582 19.5606C394.903 19.3059 394.225 19.0743 393.535 18.8543C392.845 18.669 392.132 18.5069 391.431 18.3448L389.327 17.847C388.614 17.708 387.913 17.5575 387.211 17.3838L385.096 16.8628L382.957 16.4807C382.244 16.3649 381.531 16.226 380.807 16.1218L378.645 15.8786C377.921 15.8091 377.197 15.6586 376.472 15.5428L374.288 15.1723C372.828 14.8828 371.344 14.7092 369.873 14.7555C368.39 14.7555 366.918 14.7902 365.435 14.8481C363.94 14.8597 362.457 14.9986 360.985 15.2302C359.502 15.4155 358.076 15.8439 356.639 16.2491C355.202 16.6196 353.799 17.1407 352.373 17.5459C350.936 17.9164 349.602 18.5764 348.257 19.2017C346.9 19.7922 345.624 20.5564 344.267 21.1353L340.197 22.8721C338.829 23.4278 337.495 24.0994 336.242 24.8867C333.736 26.5193 331.539 28.6035 329.401 30.6992C327.239 32.7949 325.641 35.4117 324.146 37.9474C323.388 39.221 322.617 40.4831 321.916 41.7915C321.249 43.123 320.64 44.5124 320.364 45.9945C319.8 48.9007 319.352 51.888 319.823 54.829C319.869 55.1184 321.169 54.9332 321.123 54.6669C320.743 51.9112 320.996 49.0628 321.697 46.3534C322.031 44.9872 322.548 43.6788 323.135 42.3936C323.756 41.1315 324.457 39.9042 325.262 38.7347C326.86 36.419 328.504 34.0222 330.677 32.1581C332.816 30.2939 334.77 28.0361 337.265 26.5425C338.507 25.813 339.818 25.1878 341.152 24.6668C342.485 24.1341 343.796 23.5436 345.118 23.0226C346.44 22.4784 347.843 22.1426 349.292 21.9689C350.729 21.7605 352.12 21.529 353.489 21.17C354.845 20.7763 356.156 20.209 357.513 19.769C358.858 19.2943 360.215 18.808 361.629 18.6227C363.032 18.4027 364.411 18.0091 365.826 17.7312C367.228 17.4186 368.642 17.1175 370.08 17.0944C370.793 17.0712 371.517 17.0712 372.23 17.0828C372.943 17.1059 373.667 17.187 374.38 17.2449L376.518 17.4186C377.231 17.488 377.933 17.5807 378.645 17.627L380.761 17.8122L382.865 18.1364L384.958 18.4606C385.648 18.5996 386.349 18.7269 387.039 18.8427L389.12 19.2132L391.178 19.7343L393.225 20.2553L395.248 20.8574C395.927 21.0542 396.628 21.17 397.329 21.2974C398.019 21.4363 398.732 21.5521 399.445 21.6679C400.158 21.7953 400.871 21.8879 401.56 22.0732C402.25 22.27 402.929 22.49 403.584 22.7794C403.802 22.8605 403.952 22.5016 403.722 22.3858Z" fill="#4885EE"/>
<path d="M335.943 54.3305C336.391 53.9947 336.196 53.9021 335.805 53.6821C335.414 53.4737 334.92 53.0685 334.851 52.6169C334.816 52.0727 334.828 51.4822 334.908 50.8801C335.023 50.2896 335.196 49.7107 335.414 49.1781C335.633 48.7149 336.035 47.8813 336.449 47.1865C336.886 46.4571 337.426 45.7045 338.128 44.9982C339.53 43.5509 341.991 43.0414 344.164 42.0688C345.256 41.5709 346.302 40.8878 347.418 40.2047C348.556 39.5563 349.717 38.8731 350.97 38.4447C352.258 38.0742 353.431 37.4721 354.707 37.0553L356.581 36.3606C357.214 36.1522 357.869 35.99 358.513 35.8164C361.123 35.1448 364.02 36.0132 366.573 35.5269C369.171 35.1564 371.793 34.8322 374.437 34.6122C375.426 34.5196 376.426 34.1606 377.438 33.9175C378.45 33.6628 379.485 33.2922 380.496 33.2922C381.52 33.2807 382.566 33.0491 383.612 32.9217C384.659 32.8059 385.728 32.6554 386.763 32.7133C387.798 32.8059 388.786 33.1649 389.775 33.5354C390.741 33.9638 391.684 34.4154 392.696 34.6006C392.765 34.6122 392.96 33.9175 392.891 33.8943C390.201 33.3849 387.568 32.6207 384.831 32.2965C382.095 31.8797 379.266 32.8407 376.587 32.7944C375.254 32.8407 373.92 32.748 372.586 32.7017C371.252 32.7249 369.896 32.6091 368.562 32.7944C367.895 32.8638 367.228 32.8986 366.55 32.9101L364.526 32.9912C363.158 33.0028 361.813 33.107 360.468 33.327C359.099 33.4891 357.8 33.8827 356.455 34.1606C355.133 34.508 353.833 34.8901 352.511 35.2722C349.947 36.1058 347.119 36.6385 344.693 37.8426C342.267 39.0352 340.462 40.8994 338.702 42.3467C336.966 43.8056 335.334 45.1719 334.437 46.816C334.31 47.0244 334.207 47.256 334.126 47.476C334.034 47.696 333.942 47.9276 333.919 48.1128C333.816 48.4949 333.793 48.9117 333.758 49.317C333.712 50.1391 333.816 50.9727 333.873 51.7253C333.931 52.4316 334.184 53.1032 334.379 53.6127C334.575 54.1337 334.667 54.5158 334.391 55.0137C334.333 55.1294 335.794 54.4463 335.943 54.3305Z" fill="#4885EE"/>
<path d="M405.09 20.556C403.561 19.8497 402.089 18.9814 400.56 18.2403C399.801 17.8582 399.042 17.453 398.26 17.094C397.479 16.7698 396.685 16.4572 395.88 16.1793C392.673 15.0678 389.545 13.3542 386.142 12.5437C384.452 12.1847 382.739 11.8489 381.025 11.5132C379.301 11.27 377.576 10.9111 375.828 10.7142C374.115 10.529 372.379 10.5753 370.655 10.83C369.792 10.9342 368.93 11.0384 368.068 11.1079C367.205 11.189 366.354 11.2816 365.492 11.2816C364.63 11.2932 363.756 11.2121 362.882 11.1542L360.238 10.9806C358.455 10.8185 356.673 10.8416 354.914 11.0732C353.155 11.2932 351.419 11.6868 349.648 12.011C347.901 12.3931 346.164 12.8794 344.451 13.4005C342.784 14.0257 341.22 14.9173 339.737 15.9362C338.266 17.0014 336.817 17.9972 335.276 18.9003C332.206 20.6603 328.688 22.0497 325.837 24.6317C322.997 27.2137 320.697 30.502 318.604 33.9062C317.547 35.6314 316.696 37.4724 315.96 39.406C315.19 41.3975 314.684 43.4122 314.212 45.4268C313.741 47.4299 313.212 49.4446 312.867 51.5751C312.522 53.6824 312.407 55.917 312.879 58.117C313.339 60.3053 314.35 62.4126 315.696 64.2768C317.041 66.1525 318.593 67.8198 320.237 69.3482C320.582 69.6956 320.433 69.8808 320.099 69.5103C317.006 66.1178 315.512 61.7063 315.029 57.6538C314.753 55.6044 314.718 53.5782 314.914 51.6098C315.098 49.6414 315.454 47.7078 316.052 45.8553C316.65 44.0143 317.317 42.1964 318.214 40.4828C319.087 38.7923 320.042 37.206 321.134 35.7124C323.296 32.7483 325.503 29.8536 328.217 27.5611C330.942 25.2801 334.103 23.798 337.047 22.1655C338.518 21.3318 340.059 20.6718 341.577 19.954C343.106 19.2824 344.704 18.7382 346.268 18.1593C347.901 17.6846 349.579 17.3719 351.281 17.1867C352.994 17.0593 354.661 16.8393 356.328 16.6772C357.984 16.4804 359.628 16.272 361.295 16.2372L363.767 16.133L366.251 16.1678C369.528 16.1909 372.805 15.913 376.047 16.3183C377.668 16.5151 379.278 16.7467 380.876 16.8741C382.474 17.1172 384.084 17.3025 385.659 17.6498C388.821 18.3677 391.822 19.6066 394.869 20.4518L397.168 21.1002L399.433 21.8876C400.962 22.3623 402.446 22.9297 403.998 23.3581C405.527 23.7402 406.631 21.2739 405.09 20.556Z" fill="#4885EE"/>
<path d="M383.061 21.0551C382.325 20.7077 381.566 20.4182 380.784 20.1751C380.002 19.9667 379.197 19.8277 378.393 19.7119C376.771 19.4341 375.116 19.4572 373.472 19.4109C371.827 19.3646 370.195 19.573 368.562 19.6888C366.952 19.9088 365.343 20.1288 363.767 20.3488C362.158 20.6151 360.514 20.6498 358.881 20.893L356.42 21.2056C355.604 21.3561 354.811 21.5414 354.006 21.7498C350.81 22.5834 347.774 23.8802 344.681 25.0149C343.187 25.6518 341.738 26.4159 340.324 27.2149C338.921 28.0369 337.541 28.8938 336.116 29.6579C333.276 31.1632 329.872 32.1589 327.308 34.4515C324.595 36.8946 323.146 40.4376 321.789 43.7028C321.1 45.3585 320.789 47.1648 320.594 48.9247C320.41 50.7078 320.352 52.4562 320.226 54.2509C320.203 54.9572 321.72 55.0151 321.789 54.3551C322.226 51.1825 322.479 48.0216 323.79 45.1733C325.043 42.3828 327.009 39.8587 329.355 37.8672C331.654 35.9451 334.011 34.0347 336.771 32.7147C339.519 31.3832 342.635 30.8274 345.498 29.8664C346.935 29.3106 348.361 28.7201 349.729 27.9791C351.132 27.3191 352.546 26.6475 354.04 26.2423C357.053 25.4897 360.1 24.9339 363.158 24.5286C366.343 24.0076 369.7 25.177 372.851 25.2697C376.012 25.5012 379.209 24.5634 382.417 24.6097C383.601 24.6097 384.256 21.634 383.061 21.0551Z" fill="#4885EE"/>
<path d="M392.029 43.9687C391.339 43.2393 390.534 42.7066 389.637 42.3824C388.752 42.0235 387.832 41.6877 386.889 41.3751C385.981 41.0509 385.107 40.4951 384.176 40.0899C383.245 39.6615 382.302 39.2099 381.301 39.1404C380.29 39.0362 379.266 39.0478 378.255 39.1752C377.243 39.2794 376.265 39.3141 375.288 39.2794C374.219 39.2215 373.15 38.8162 372.057 38.5383C370.965 38.2141 369.838 37.8784 368.734 37.9015C368.183 37.9015 367.631 37.971 367.09 38.0868C366.55 38.2257 366.021 38.4226 365.504 38.5962C364.975 38.7815 364.446 38.9436 363.928 39.0941C363.411 39.2678 362.882 39.3952 362.342 39.4415C361.238 39.5109 360.169 39.673 359.088 39.8351C357.984 39.9625 356.938 40.2288 355.869 40.472C353.764 40.9699 351.706 41.6646 349.671 42.4519C347.636 43.2161 345.9 44.2466 344.348 45.1845C342.819 46.0992 340.577 46.0181 339.519 47.1065C339.024 47.6391 338.611 48.1602 338.254 48.658C337.944 49.1443 337.633 49.7464 337.541 50.0243C337.288 50.7538 337.173 51.7264 337.369 52.4327C337.472 52.78 337.587 53.081 337.783 53.2084C337.84 53.301 337.978 53.301 338.036 53.3358C338.059 53.3358 338.185 53.2895 338.105 53.3358C337.875 53.44 337.748 53.4747 337.553 53.5674C337.139 53.7873 337.162 53.7642 337.587 53.5558C337.932 53.4052 338.438 53.1853 338.875 53.0695C339.128 52.9768 339.369 52.9074 339.611 52.8611L340.186 52.7337C339.979 52.7568 339.703 52.6179 339.737 52.3748C339.76 52.1432 339.829 51.8769 339.956 51.6337C340.094 51.4022 340.243 51.1937 340.347 51.0548C340.795 50.3601 341.807 49.8506 342.853 49.0054C343.876 48.1717 344.739 46.4349 346.555 45.5202C347.441 45.0687 348.591 44.9645 349.775 44.895C350.959 44.8371 352.189 44.8371 353.201 44.455C354.27 44.154 355.305 43.8298 356.374 43.5519C357.467 43.3435 358.502 43.0308 359.605 42.8803C360.698 42.7298 361.721 42.3361 362.802 42.1046L364.4 41.7109C364.94 41.6067 365.492 41.5604 366.044 41.5372C366.596 41.5256 367.148 41.514 367.711 41.5719L369.39 41.8151C370.494 41.9425 371.597 42.2435 372.667 42.313C373.747 42.3593 374.817 42.5214 375.886 42.5445C376.955 42.6372 378.013 42.7877 379.059 42.9729C380.094 43.2508 381.163 43.1698 382.233 43.1929C383.291 43.2508 384.394 43.1814 385.383 43.5866C386.383 43.9455 387.395 44.235 388.35 44.6518L389.798 45.2076L391.201 45.8676C392.155 46.3192 392.719 44.6982 392.029 43.9687Z" fill="#4885EE"/>
<path d="M408.286 0.467859C403.492 -1.81312 398.169 -3.97832 392.88 -5.2867C387.43 -6.60666 381.842 -6.13193 376.288 -6.27088C372.218 -6.31719 368.045 -7.35926 363.894 -6.87296C362.859 -6.75718 361.836 -6.59508 360.813 -6.4214C359.789 -6.22456 358.777 -5.96983 357.777 -5.72668C355.754 -5.27512 353.764 -4.68461 351.741 -4.20989C347.705 -3.2836 343.531 -2.64678 339.565 -1.21104C337.633 -0.493163 335.771 0.467859 333.919 1.38257C332.091 2.41306 330.298 3.39724 328.424 4.34669C324.675 6.30347 321.146 9.05917 317.363 11.9654C313.615 14.8485 309.13 17.7199 305.658 22.2935C303.945 24.5397 302.266 26.9828 300.806 29.6343C300.082 30.8848 299.323 32.4942 298.668 33.9994C298.058 35.5278 297.472 37.0793 297.058 38.6425C296.173 41.7802 295.92 45.0338 296.035 48.2758C296.138 51.5178 296.552 54.7367 297.069 58.0366C297.575 61.3365 298.346 64.7058 299.691 68.0984C301.025 71.4677 302.818 74.8255 305.313 77.8128C305.808 78.438 306.313 78.5307 306.555 78.3107C306.785 78.1023 306.75 77.5928 306.279 76.9676C301.553 70.9467 298.771 64.0459 298.012 57.5271C297.61 54.2272 297.713 50.9968 298.162 47.9053C298.599 44.8023 299.323 41.815 300.289 38.874C300.749 37.392 301.255 35.9099 301.795 34.4278L302.657 32.1932L303.531 30.1785C304.738 27.527 306.153 25.0029 307.9 22.884C309.648 20.7651 311.476 18.8431 313.35 17.1063C315.213 15.3927 317.121 13.8643 319.03 12.4864C322.87 9.75389 326.986 8.13288 330.689 6.36136C334.391 4.61299 338.162 3.06146 341.991 1.76466C343.865 1.12784 345.762 0.583645 347.694 0.189973L350.568 -0.458427L353.442 -1.03736C354.397 -1.23419 355.351 -1.45419 356.305 -1.61629L359.191 -2.05627C361.077 -2.36889 363.02 -2.51942 364.94 -2.71625C368.792 -3.08677 372.655 -3.74675 376.553 -3.65412C382.279 -3.43412 387.602 -1.72049 392.914 -0.238434C397.49 1.11626 402.607 1.7994 407.551 2.81831C409.022 3.0962 409.793 2.86463 409.919 2.33201C410.034 1.82255 409.505 1.00047 408.286 0.467859Z" fill="#4885EE"/>
<path d="M393.293 30.5022C392.017 30.3632 390.844 29.958 389.614 29.6454C388.407 29.3096 387.211 28.8812 385.958 28.6843C384.716 28.4528 383.428 28.4759 382.141 28.6033C381.497 28.6496 380.864 28.6843 380.232 28.6843C379.6 28.6959 378.967 28.7075 378.346 28.6033C377.726 28.5107 377.105 28.337 376.484 28.117C375.863 27.9317 375.231 27.7117 374.598 27.4918C373.966 27.2718 373.322 27.0402 372.678 26.8781C372.034 26.7391 371.379 26.6465 370.735 26.6465C369.413 26.6002 368.102 26.9707 366.826 27.3181C365.538 27.6307 364.285 28.0938 362.986 28.2328C360.399 28.5338 357.674 28.4296 355.087 29.0201C353.787 29.3096 352.569 29.819 351.315 30.259C350.085 30.7569 348.889 31.3011 347.613 31.6832C346.429 32.1232 345.268 32.6442 344.106 33.1537L340.749 34.8326C338.564 35.9325 336.069 36.6388 334.207 38.1556C332.356 39.6261 330.194 40.8766 328.906 42.8218C328.274 43.7828 327.895 44.9175 327.665 45.9364C327.469 47.0132 327.331 48.0669 327.205 49.109C326.929 51.17 326.848 53.3352 327.584 55.1183C328.274 56.9361 329.838 58.0708 331.091 58.5918C331.574 58.7887 332.781 57.5382 332.448 57.434C331.976 57.1908 331.551 56.7971 331.206 56.253C330.895 55.6856 330.631 55.0256 330.413 54.2846C330.229 53.5204 330.321 52.6752 330.562 51.8531C330.827 51.031 331.137 50.2437 331.367 49.4563C331.608 48.6806 331.631 47.8122 331.815 47.0017C332.011 46.1217 332.333 45.1375 333 44.3965C334.322 42.8681 336.357 41.9302 338.197 40.7377C340.025 39.5335 341.83 38.0051 344.072 36.9978C344.624 36.743 345.222 36.5578 345.819 36.3725L347.694 35.9557L349.533 35.5389C350.154 35.4115 350.752 35.261 351.327 35.0526C352.442 34.6242 353.523 34.0915 354.604 33.5242C355.673 32.9221 356.8 32.459 357.973 32.1463C360.341 31.5443 362.882 31.9148 365.251 31.6369C367.619 31.359 369.988 30.5485 372.414 30.6527C373.563 30.6874 374.713 31.0695 375.828 31.3822C376.955 31.7064 378.059 32.1579 379.163 32.3316C381.359 32.76 383.67 32.2506 385.9 32.6095C388.142 32.98 390.109 34.3579 392.397 34.3115C393.558 34.2884 394.501 30.6411 393.293 30.5022Z" fill="#4885EE"/>
</g>
</g>
</g>
<defs>
<clipPath id="clip0_760_7182">
<rect width="390" height="211" fill="white"/>
</clipPath>
<clipPath id="clip1_760_7182">
<rect width="188.898" height="315.167" fill="white" transform="matrix(0.0700832 -0.997541 -0.997541 -0.0700832 316.392 159.521)"/>
</clipPath>
<clipPath id="clip2_760_7182">
<rect width="154" height="202" fill="white" transform="translate(296 -7)"/>
</clipPath>
</defs>
</svg>
