<svg width="1440" height="141" viewBox="0 0 1440 141" fill="none" xmlns="http://www.w3.org/2000/svg">
<g clip-path="url(#clip0_161_2219)">
<path d="M1439.96 -79.9999L-0.936003 -80L-0.936035 141.931C3.98218 140.866 8.80444 139.421 13.4729 137.539C39.947 126.836 60.5999 102.997 67.228 75.4502C82.9434 83.891 98.4667 77.6935 114.182 69.2337C129.878 60.774 140.771 44.1207 142.135 26.4788C163.979 47.4856 194.277 63.6446 224.651 61.3063C255.025 58.968 284.074 43.1891 302.383 19.1026C326.897 36.3643 365.071 25.129 382.093 0.586233C427.702 32.4861 486.414 36.2693 534.329 7.88635C549.986 23.6082 577.133 19.3688 593.079 3.91312C599.496 21.9162 616.825 42.3717 635.172 48.246C653.52 54.1203 674.576 51.0406 690.426 40.1665C701.646 54.6146 721.396 65.8309 739.397 62.0097C757.399 58.1886 772.557 43.4933 776.803 25.7754C790.578 39.9193 812.844 46.9153 832.421 43.6644C851.998 40.4326 869.616 27.1822 878.011 9.3692C916.57 33.4557 977.241 31.4976 1011.15 1.32769C1030.29 25.7754 1072.28 30.9653 1097.66 12.9242C1131.26 54.9758 1197.97 65.983 1245.08 39.5201C1260.1 69.4809 1303.75 78.2068 1330.59 57.8654C1351.14 88.3015 1386.24 108.7 1423.15 111.076C1428.76 111.437 1434.39 111.342 1440 110.886L1440 -79.9999L1439.96 -79.9999Z" fill="white"/>
</g>
<defs>
<clipPath id="clip0_161_2219">
<rect width="1440" height="141" fill="white"/>
</clipPath>
</defs>
</svg>
