<svg width="381" height="213" viewBox="0 0 381 213" fill="none" xmlns="http://www.w3.org/2000/svg">
<path d="M416.483 0.331421L381.416 213.004L0.37696 150.176C13.9448 136.921 31.3555 127.647 49.8922 123.935C60.2039 121.872 70.8646 121.529 81.298 122.858C90.879 124.047 100.276 126.647 109.063 130.588C110.74 131.329 112.434 132.121 114.068 132.977C118.12 120.352 128.016 109.449 136.612 99.3569C144.995 89.5231 154.605 80.356 166.299 74.929C179.94 68.6014 195.769 67.8881 210.418 71.2321C225.06 74.6237 238.577 81.8862 250.608 90.9319C254.381 80.4359 261.467 72.1232 271.682 67.6986C281.897 63.2739 293.884 63.2955 304.095 67.7405C324.166 39.3813 353.045 15.5777 386.281 5.90774C396.146 3.01376 406.253 1.16149 416.483 0.331421Z" fill="#76A3F2"/>
</svg>
