<svg width="330" height="216" viewBox="0 0 330 216" fill="none" xmlns="http://www.w3.org/2000/svg">
<path d="M-73.3652 0.320709L-55.0052 215.082L329.775 182.187C317.283 167.913 300.65 157.309 282.459 152.161C272.34 149.3 261.739 148.125 251.233 148.636C241.589 149.073 232.017 150.932 222.95 154.175C221.22 154.783 219.469 155.441 217.773 156.167C214.719 143.264 205.704 131.621 197.922 120.889C190.333 110.431 181.467 100.542 170.233 94.2184C157.127 86.8454 141.402 84.8987 126.536 87.0891C111.675 89.3276 97.6325 95.5129 84.9322 103.592C81.9893 92.8333 75.5737 83.993 65.7354 78.7845C55.8972 73.5761 43.9453 72.662 33.418 76.2964C15.6215 46.4571 -11.3107 20.472 -43.6906 8.23738C-53.2998 4.58223 -63.2311 1.94674 -73.3652 0.320709Z" fill="#76A3F2"/>
</svg>
