<svg width="1431" height="386" viewBox="0 0 1431 386" fill="none" xmlns="http://www.w3.org/2000/svg">
<g clip-path="url(#clip0_158_2142)">
<path d="M1440 82.4276V423.5H0V77.5871C134.053 48.1411 276.245 35.3677 417.151 26.3975C760.385 4.57708 1117.38 4.98045 1440 82.4276Z" fill="#F44535"/>
<path d="M1299.96 277.119L1244 275.056C1245.82 271.291 1248.38 267.873 1251.73 265.373C1256.14 262.082 1262.04 260.569 1267.35 262.086C1272.65 263.6 1277.05 268.408 1277.35 273.926C1280.41 270.025 1285.79 268.085 1290.63 269.164C1294.78 270.113 1298.35 273.202 1299.96 277.119Z" fill="#C11202"/>
<path d="M893.272 96.3126L965 95.5424C963.299 92.7824 960.507 90.6803 957.361 89.9101C952.965 88.8349 948.038 90.3914 945.054 93.7933C942.567 89.188 938.956 84.8394 933.95 83.2989C928.959 81.7585 922.573 84.1494 921.225 89.204C917.63 82.4324 910.297 76.3187 902.916 78.4208C895.839 80.4266 892.742 88.9152 893.272 96.3126Z" fill="#C11202"/>
<path d="M149.728 368.313L78 367.542C79.7009 364.782 82.493 362.68 85.6381 361.91C90.0348 360.835 94.9611 362.391 97.9457 365.793C100.433 361.188 104.043 356.839 109.05 355.299C114.04 353.758 120.427 356.149 121.775 361.204C125.369 354.432 132.702 348.319 140.084 350.421C147.16 352.427 150.257 360.915 149.728 368.313Z" fill="#C11202"/>
<path d="M503.819 22.0344L453.222 24.1935C455.958 20.174 459.57 16.7594 464.092 15.0888C470.258 12.7859 478.204 14.5669 481.484 20.2892C484.296 16.2021 489.48 13.8448 494.352 14.729C498.43 15.4544 502.037 18.3039 503.819 22.0344Z" fill="#C11202"/>
<path d="M393.99 186.389H444.633C441.729 182.489 437.974 179.232 433.384 177.756C427.126 175.718 419.264 177.836 416.231 183.693C413.246 179.729 407.967 177.595 403.137 178.686C399.093 179.585 395.611 182.586 393.99 186.389Z" fill="#C11202"/>
<path d="M-12.0872 80.6236L37.4162 69.9426C33.7547 66.7436 29.3973 64.3514 24.5999 63.8762C18.0527 63.2041 10.8136 66.9329 9.08431 73.2978C5.33087 70.0529 -0.279789 69.0802 -4.77099 71.1655C-8.53421 72.8968 -11.3051 76.5644 -12.0872 80.6236Z" fill="#C11202"/>
<path d="M1451.59 361.213L1400.99 359.015C1404.06 355.245 1407.96 352.154 1412.61 350.878C1418.95 349.114 1426.71 351.571 1429.49 357.554C1432.64 353.724 1438.01 351.821 1442.78 353.121C1446.79 354.194 1450.13 357.343 1451.59 361.213Z" fill="#C11202"/>
</g>
<defs>
<clipPath id="clip0_158_2142">
<rect width="1440" height="462" fill="white"/>
</clipPath>
</defs>
</svg>
