<svg width="1440" height="191" viewBox="0 0 1440 191" fill="none" xmlns="http://www.w3.org/2000/svg">
<g clip-path="url(#clip0_202_963)">
<rect width="1440" height="191" fill="#FFF8E8"/>
<path d="M1440.9 -30.5819L3.97539e-05 -30.582L0 191.349C4.91821 190.284 9.74048 188.839 14.4089 186.957C40.8831 176.254 61.5359 152.415 68.1641 124.868C83.8794 133.309 99.4027 127.111 115.118 118.652C130.814 110.192 141.707 93.5386 143.071 75.8967C164.915 96.9035 195.213 113.063 225.587 110.724C255.961 108.386 285.01 92.6071 303.319 68.5206C327.833 85.7823 366.007 74.547 383.029 50.0042C428.638 81.9041 487.35 85.6873 535.265 57.3043C550.922 73.0262 578.069 68.7868 594.015 53.3311C600.432 71.3342 617.761 91.7897 636.108 97.664C654.456 103.538 675.512 100.459 691.362 89.5845C702.582 104.033 722.332 115.249 740.333 111.428C758.335 107.607 773.493 92.9113 777.739 75.1934C791.514 89.3373 813.781 96.3333 833.358 93.0824C852.934 89.8506 870.552 76.6002 878.948 58.7872C917.506 82.8737 978.177 80.9156 1012.09 50.7457C1031.22 75.1934 1073.22 80.3833 1098.6 62.3422C1132.2 104.394 1198.9 115.401 1246.01 88.9381C1261.04 118.899 1304.68 127.625 1331.52 107.283C1352.08 137.72 1387.18 158.118 1424.09 160.494C1429.7 160.856 1435.33 160.76 1440.94 160.304L1440.94 -30.5819L1440.9 -30.5819Z" fill="#F44535"/>
</g>
<defs>
<clipPath id="clip0_202_963">
<rect width="1440" height="191" fill="white"/>
</clipPath>
</defs>
</svg>
